<svg id="Layer_1" data-name="Layer 1" xmlns="http://www.w3.org/2000/svg" viewBox="0 0 183 199.65"><defs><style>.cls-1{fill:#00b1ff;}</style></defs><title>abe</title><path class="cls-1" d="M210.45,169q-4.35-2.65-8.71-5.33-22.19-13.74-44.37-27.5a3.54,3.54,0,0,1-1.22-1.33q-7.41-14.8-14.77-29.63Q134.6,91.59,127.8,78c-.16-.33-.33-.64-.56-1.09L27.56,201.7l-.11-.07L127.25,2.05c.45.91.83,1.65,1.21,2.4L144,35.61,165,77.89l20.78,41.75,21,42.2c1,2.09,2.06,4.18,3.11,6.25a6.11,6.11,0,0,0,.5.75Z" transform="translate(-27.45 -2.05)"/></svg>