<?xml version="1.0" standalone="no"?>
<!DOCTYPE svg PUBLIC "-//W3C//DTD SVG 1.1//EN" "http://www.w3.org/Graphics/SVG/1.1/DTD/svg11.dtd" >
<svg xmlns="http://www.w3.org/2000/svg" xmlns:xlink="http://www.w3.org/1999/xlink" version="1.1">
<metadata>
Created by FontForge 20170731 at Wed Mar  6 14:23:58 2013
 By Aleksey,,,
Copyright (c) 2012 by Ramiro Espinoza &#38; ReType. All rights reserved.
</metadata>
<defs>
<font id="Medusa" horiz-adv-x="1" >
  <font-face 
    font-family="Medusa"
    font-weight="400"
    font-stretch="normal"
    units-per-em="1000"
    panose-1="2 0 0 0 0 0 0 0 0 0"
    ascent="740"
    descent="-260"
    x-height="335"
    cap-height="989"
    bbox="-2161 -834 5513 1592"
    underline-thickness="14"
    underline-position="-138"
    unicode-range="U+000D-FB04"
  />
<missing-glyph horiz-adv-x="673" 
d="M406 0h-442l470 739h442zM-3 6h384l462 727h-384z" />
    <glyph glyph-name="f_f" unicode="ff" horiz-adv-x="378" 
d="M263 250l46 75h-50q-69 0 -97 -1l-49 -82q-296 -502 -446 -627q31 -21 65 -21q57 0 109 43t145.5 178.5t276.5 434.5zM312 330q159 249 264 342q-7 40 -54 40q-39 0 -85 -32.5t-94.5 -92.5t-89 -119.5t-88.5 -138.5q28 1 93 1h54zM660 711q-38 0 -122.5 -108t-181.5 -263
q128 100 225 201t97 153q0 17 -18 17zM-485 -441q58 0 119 53.5t162.5 198.5t286.5 445q32 52 41 66q-77 -4 -120 -18l-1 5q41 13 124 18q105 168 172 248q119 143 221 143q51 0 60 -43q50 42 79 42q24 0 24 -23q0 -52 -100 -158t-233 -206h104v-5h-107q-40 -65 -53 -88
q-77 -132 -141 -232.5t-111 -169.5t-88.5 -115.5t-69 -72.5t-57.5 -39t-49 -16t-47 -3q-37 0 -68 23q-71 -58 -148 -58q-35 0 -60 19l2 4q27 -18 58 -18z" />
    <glyph glyph-name="f_f_l" unicode="ffl" horiz-adv-x="612" 
d="M273 250q8 12 24 38.5t24 39.5h-56q-42 0 -102 -2l-50 -84q-289 -493 -441 -623q31 -25 70 -25q43 0 77 18.5t94 91t140 195t220 351.5zM324 333q155 242 253 334q-4 45 -55 45q-39 0 -84.5 -32.5t-94 -92t-89 -118.5t-88.5 -138q60 2 98 2h60zM418 187l96 126l270 426
q22 0 38 2l-400 -631q-6 -9 -15 -23t-15.5 -24t-13 -20.5t-10 -18.5t-3.5 -13q0 -14 14 -14q77 0 235 198q2 2 4 0.5t0 -3.5q-158 -200 -240 -200q-27 0 -27 30q0 34 48 110l82 129l-59 -77q-40 -53 -98 -114.5t-94 -91.5l-3 4q36 29 93.5 90.5t97.5 114.5zM665 711
q-70 0 -300 -371q97 69 205.5 193t108.5 165q0 13 -14 13zM-485 -441q58 0 119 53.5t162.5 198.5t286.5 445l42 68q-76 -6 -121 -20l-1 5q49 14 125 20q104 167 171 246q119 143 221 143q53 0 61 -47q50 46 83 46q20 0 20 -18q0 -45 -111.5 -171.5t-209.5 -194.5h80v-5h-85
q-12 -19 -32 -52.5t-23 -38.5q-90 -153 -160.5 -264.5t-124 -181.5t-91.5 -112t-73 -61t-57.5 -24t-55.5 -5q-44 0 -73 27q-74 -62 -153 -62q-35 0 -60 19l2 4q27 -18 58 -18z" />
    <glyph glyph-name="f_l" unicode="fl" horiz-adv-x="419" 
d="M-484 -446q-36 0 -61 19l3 4q27 -18 58 -18q58 0 119 54t161 196.5t284 440.5l46 73q-68 -4 -121 -19l-1 5q45 15 125 19q249 389 342 389q20 0 20 -19q0 -45 -113.5 -173t-211.5 -195q-1 0 -1 -1q25 1 85 1v-5q-63 0 -88 -1l-52 -87q-105 -179 -188.5 -305.5
t-142 -199.5t-108.5 -113.5t-83.5 -52.5t-71.5 -12zM225 187l96 126l270 426q22 0 38 2l-400 -631q-6 -9 -15 -23t-15.5 -24t-13 -20.5t-10 -18.5t-3.5 -13q0 -14 14 -14q77 0 235 198q1 2 3 0.5t1 -3.5q-158 -200 -240 -200q-27 0 -27 30q0 34 48 110l82 129l-59 -77
q-40 -53 -98 -114.5t-94 -91.5l-3 4q36 29 93.5 90.5t97.5 114.5zM472 711q-70 0 -300 -371q97 68 205.5 192.5t108.5 165.5q0 13 -14 13z" />
    <glyph glyph-name="f_f_f" unicode="fff" horiz-adv-x="563" 
d="M269 256q21 36 42 69h-51q-70 0 -98 -1l-48 -82q-303 -515 -454 -634q34 -18 64 -18q29 0 51 6.5t47 20.5t55 48t64 78t84 121.5t105.5 166.5t138.5 225zM449 250l46 75h-148q-2 -4 -48 -83q-280 -484 -417 -599q29 -18 59 -18q36 0 61 10t60 40t86 103t120 180.5
t181 291.5zM498 330q157 244 258 336q-7 41 -54 41q-39 0 -84 -32t-92.5 -90.5t-88 -118t-87.5 -136.5h148zM485 575q39 47 74 76q-8 38 -54 38q-39 0 -82.5 -29.5t-89 -85.5t-84 -112.5t-84.5 -132.5q28 1 94 1h55q102 164 171 245zM846 711q-39 0 -124 -109t-180 -262
q126 98 224 200t98 154q0 17 -18 17zM-484 -441q21 0 38 3t37.5 14t37 22t41 38t44 51t52.5 71t60.5 88t72.5 112.5t84 134.5t101 163l41 66q-77 -4 -120 -18l-1 5q41 13 124 18q87 141 141 208q60 76 122.5 118t111.5 42q50 0 60 -41q72 59 137 59q51 0 60 -43q53 47 85 47
q24 0 24 -23q0 -52 -100 -157.5t-234 -206.5h105v-5h-108l-52 -88q-74 -127 -136 -224.5t-107.5 -162.5t-86 -110t-66.5 -68.5t-54 -35.5t-44.5 -14.5t-41.5 -2.5q-35 0 -66 20q-42 -34 -76 -44t-78 -10q-34 0 -69 19q-65 -50 -139 -50q-36 0 -61 19l3 4q27 -18 58 -18z" />
    <glyph glyph-name="s_s" unicode="ss" horiz-adv-x="498" 
d="M-46 -8q-20 0 -29 1q-29 3 -45.5 20.5t-16.5 43.5q0 21 9.5 31.5t21.5 10.5t12 -10q0 -13 -36 -44q2 -19 18.5 -33t43.5 -14q36 0 83.5 47t81.5 115.5t34 124.5q0 31 -11 53q-18 -24 -121 -155q-3 -4 -5 -2t0 4q44 54 123 157q-5 12 -5 29q0 12 7.5 22.5t18.5 10.5
q14 0 14 -13q0 -16 -29 -49q20 -43 20 -98q0 -84 -46 -155.5t-122 -90.5q60 5 137 56v9q0 16 8 27.5t20 11.5t12 -10q0 -4 -2 -10l3 3q86 74 219 269q-11 30 -11 43q0 28 22 28q17 0 17 -21q0 -20 -22 -51q25 -54 25 -110q0 -84 -45.5 -154.5t-115.5 -89.5q93 10 194 120
q22 24 64 76q2 2 4 0.5t0 -3.5q-45 -55 -65 -77q-112 -122 -214 -122q-3 0 -14.5 -0.5t-13.5 -0.5q-37 0 -58 17t-26 40q-87 -57 -159 -57zM156 81q-21 -17 -39 -29q12 -54 79 -54q33 0 78.5 44t80 112.5t34.5 128.5q0 34 -14 66q-133 -194 -219 -268zM366 397q0 -12 9 -39
q20 28 20 46q0 16 -14 16q-15 0 -15 -23z" />
    <glyph glyph-name="r_r" unicode="rr" horiz-adv-x="509" 
d="M277 -8q-11 0 -21 7.5t-10 24.5q0 40 71 138q67 92 67 121q0 12 -16 39l-11 19q-76 -108 -124 -168q-144 -181 -205 -181q-30 0 -30 32q0 19 14 47t23.5 42t34.5 49q67 93 67 123q0 11 -12 29l-13 18q-32 -48 -114 -150q-2 -2 -4 -1t0 4q84 105 115 151q-6 14 -6 20
q0 21 12.5 34.5t24.5 13.5q10 0 10 -9q0 -15 -35 -59l15 -21q21 -29 21 -53q0 -42 -54 -119q-10 -14 -28 -38.5t-28.5 -38.5t-19 -30t-8.5 -25q0 -14 16 -14q58 0 201 180q66 86 124 169q-6 12 -6 25q0 19 12.5 32t25.5 13q12 0 12 -12q0 -15 -38 -59q2 -3 10 -16.5
t10.5 -18t7.5 -15t6.5 -18.5t1.5 -17q0 -43 -52 -117q-9 -12 -23 -31.5t-23 -32t-18.5 -27t-14.5 -25t-5 -16.5q0 -14 17 -14q76 0 234 198q1 2 3 0.5t1 -3.5q-158 -200 -238 -200z" />
    <glyph glyph-name=".notdef" horiz-adv-x="673" 
d="M406 0h-442l470 739h442zM-3 6h384l462 727h-384z" />
    <glyph glyph-name=".null" horiz-adv-x="0" 
 />
    <glyph glyph-name=".null" horiz-adv-x="0" 
 />
    <glyph glyph-name="nonmarkingreturn" horiz-adv-x="333" 
 />
    <glyph glyph-name="CR" unicode="&#xd;" horiz-adv-x="187" 
 />
    <glyph glyph-name="space" unicode=" " horiz-adv-x="187" 
 />
    <glyph glyph-name="exclam" unicode="!" horiz-adv-x="306" 
d="M141 195l-4 3q135 219 246 408q26 0 42 3q-28 -41 -89 -127.5t-107 -153.5t-88 -133zM52 32q0 -14 -10 -25t-23 -11q-15 0 -15 13q0 17 11 28t21 11q16 0 16 -16z" />
    <glyph glyph-name="quotedbl" unicode="&#x22;" horiz-adv-x="286" 
d="M207 504l118 186l30 -8l-145 -181zM313 504l118 186l30 -8l-145 -181z" />
    <glyph glyph-name="numbersign" unicode="#" horiz-adv-x="379" 
d="M62 240v5h87l73 114l5 -2l-71 -112h125l73 114l5 -2l-71 -112h85v-5h-88l-78 -122h86v-5h-89l-74 -117l-5 2l73 115h-126l-74 -117l-5 2l73 115h-86v5h89l77 122h-84zM153 240l-78 -122h126l77 122h-125z" />
    <glyph glyph-name="dollar" unicode="$" horiz-adv-x="291" 
d="M0 -72l-5 3l41 67q-48 21 -48 72q0 16 9 28t22 12q19 0 19 -21q0 -23 -26 -31q-18 -5 -11 -19q12 -25 38 -36l102 167q-13 54 -13 86q0 34 23 66t67 32q18 0 32 -6l41 68l5 -3l-41 -67q35 -19 35 -59q0 -13 -7 -24t-20 -11q-17 0 -17 17q0 21 24 30q14 5 7 18
q-9 16 -25 24l-87 -142q15 -58 15 -99q0 -42 -27 -75t-81 -33q-18 0 -30 4zM154 86q0 30 -11 76l-99 -161q12 -4 28 -4q34 0 58 21t24 68zM151 283q0 -20 12 -76l84 137q-13 5 -29 5q-30 0 -48.5 -19t-18.5 -47z" />
    <glyph glyph-name="percent" unicode="%" horiz-adv-x="481" 
d="M248 420q0 -31 -23.5 -55t-60.5 -24q-29 0 -46.5 16.5t-17.5 42.5q0 33 24.5 56t56.5 23t49.5 -16.5t17.5 -42.5zM238 419q0 24 -15 37.5t-41 13.5q-29 0 -50.5 -20.5t-21.5 -48.5q0 -24 15 -37.5t40 -13.5q31 0 52 20.5t21 48.5zM491 520l3 -5l-515 -561l-4 4zM372 71
q0 -31 -23.5 -55t-60.5 -24q-29 0 -46.5 16.5t-17.5 42.5q0 33 24.5 56t56.5 23t49.5 -16.5t17.5 -42.5zM362 70q0 24 -15 37.5t-41 13.5q-29 0 -50.5 -20.5t-21.5 -48.5q0 -24 15 -37.5t40 -13.5q31 0 52 20.5t21 48.5z" />
    <glyph glyph-name="ampersand" unicode="&#x26;" horiz-adv-x="877" 
d="M812 589q-36 0 -79 -26t-90.5 -74.5t-90 -97t-99 -115t-94.5 -107.5q23 -175 163 -175q58 0 112 22.5t93 58t69 78.5t45 84.5t15 74.5q0 65 -56 65q-57 0 -120.5 -59t-99.5 -139l-4 1q34 83 94.5 143t127.5 60q63 0 63 -71q0 -44 -25 -98.5t-67.5 -105t-108.5 -85
t-138 -34.5q-155 0 -191 152q-156 -154 -264 -154q-67 0 -67 57q0 17 6.5 36.5t21 40.5t29 40t40 44t44 42.5t51.5 44.5t51.5 42t54.5 44t51 41q36 133 101 233t121 100q31 0 31 -37q0 -56 -56 -120t-163 -154q-29 -116 -29 -205q0 -22 4 -60q38 39 93 104t97 114.5t90 98
t92.5 75t82.5 26.5q39 0 56.5 -16t17.5 -39q0 -22 -8 -34t-16 -12q-9 0 -9 9q0 6 7 22t7 33q0 32 -56 32zM66 -8q105 0 263 155q-8 42 -8 85q0 84 25 178l-23 -19q-60 -50 -91.5 -77t-78 -71t-69.5 -74.5t-41 -67t-18 -68.5q0 -41 41 -41zM571 747q-48 0 -100.5 -87
t-85.5 -211q101 85 156.5 149t55.5 117q0 32 -26 32z" />
    <glyph glyph-name="quotesingle" unicode="'" horiz-adv-x="180" 
d="M207 504l118 186l30 -8l-145 -181z" />
    <glyph glyph-name="parenleft" unicode="(" horiz-adv-x="350" 
d="M113 -155l-5 -2q-20 61 -20 128q0 102 30.5 197.5t100.5 218.5q142 250 267 361t248 127v-5q-121 -18 -233 -139t-269 -393q-134 -232 -134 -380q0 -54 15 -113z" />
    <glyph glyph-name="parenright" unicode=")" horiz-adv-x="350" 
d="M-277 -157l1 5q149 4 270.5 129t273.5 399q136 246 136 390q0 53 -15 107l5 2q20 -61 20 -118q0 -103 -30.5 -202.5t-98.5 -225.5q-141 -261 -276.5 -373.5t-285.5 -112.5z" />
    <glyph glyph-name="asterisk" unicode="*" horiz-adv-x="452" 
d="M440 627l42 -111l-22 -7l-23 117l-94 -77l-13 20l104 59l-100 61l14 20l88 -78l33 120l24 -8l-53 -112l118 3l-2 -24z" />
    <glyph glyph-name="plus" unicode="+" horiz-adv-x="402" 
d="M33 207l5 14h168l104 162l12 -8l-99 -154h162l-5 -14h-166l-102 -161l-13 7l98 154h-164z" />
    <glyph glyph-name="comma" unicode="," horiz-adv-x="164" 
d="M-159 -142l-2 4q119 72 142 145q-8 -11 -19 -11q-15 0 -15 16q0 12 9 24t22 12q16 0 16 -18q0 -44 -52 -97q-39 -39 -101 -75z" />
    <glyph glyph-name="hyphen" unicode="-" horiz-adv-x="373" 
d="M99 204l3 15h191l-3 -15h-191z" />
    <glyph glyph-name="period" unicode="." horiz-adv-x="124" 
d="M-6 32q0 -14 -10 -25t-23 -11q-15 0 -15 13q0 17 11 28t21 11q16 0 16 -16z" />
    <glyph glyph-name="slash" unicode="/" horiz-adv-x="372" 
d="M763 844l-925 -1026q-2 0 -5 -0.5t-5 -0.5l927 1028q2 -1 8 -1z" />
    <glyph glyph-name="zero" unicode="0" horiz-adv-x="346" 
d="M262 349q-45 0 -102 -59.5t-94 -131.5t-37 -113q0 -48 38 -48q47 0 104.5 56.5t95.5 129.5t38 122q0 44 -43 44zM66 -8q-58 0 -58 72q0 52 23 101q32 68 101 128.5t129 60.5q56 0 56 -74q0 -60 -34.5 -127t-94 -114t-122.5 -47z" />
    <glyph glyph-name="one" unicode="1" horiz-adv-x="320" 
d="M-4 114l-2 4q92 49 191 118t152 122q3 0 5 1q-140 -229 -217 -358q-26 0 -55 -9q20 27 114 153t143 198q-57 -54 -151.5 -119t-179.5 -110z" />
    <glyph glyph-name="two" unicode="2" horiz-adv-x="344" 
d="M-43 -8l-2 2l-4 2q15 22 37 43t37 32.5t46 34.5q2 2 48 32t78.5 54t63.5 58.5t31 60.5q0 38 -66 38q-55 0 -98 -33.5t-43 -68.5q0 -26 31 -26q45 0 84 45l3 -4q-39 -46 -86 -46q-37 0 -37 31q0 38 44.5 72.5t104.5 34.5q84 0 84 -62q0 -31 -23.5 -58t-52.5 -43t-80 -43
t-81 -47q-71 -47 -107 -90q74 61 129 61q35 0 35 -24q0 -10 -5 -25.5t-5 -21.5q0 -4 6 -4q42 0 82 35.5t64 77.5l4 -3q-25 -44 -66 -79.5t-86 -35.5q-38 0 -38 21q0 8 5.5 24t5.5 22q0 7 -7 7q-24 0 -65 -21.5t-71 -52.5z" />
    <glyph glyph-name="three" unicode="3" horiz-adv-x="352" 
d="M215 259l3 -3q-43 -62 -98 -62q-18 0 -27.5 10t-9.5 25q0 41 48.5 83t113.5 42q43 0 64.5 -20.5t21.5 -54.5q0 -38 -32.5 -76t-79.5 -58q17 -18 17 -48q0 -76 -66 -135.5t-160 -59.5q-41 0 -63.5 21.5t-22.5 52.5q0 36 26.5 65t68.5 29q27 0 44 -17l-3 -4q-18 16 -42 16
q-38 0 -63.5 -26.5t-25.5 -62.5q0 -28 20.5 -48t59.5 -20q64 0 136.5 76.5t72.5 135.5q0 13 -8 22q-28 -11 -57 -11q-20 0 -20 10q0 9 12.5 14.5t27.5 5.5q20 0 34 -8q39 23 67.5 66.5t28.5 81.5q0 25 -13 36.5t-48 11.5q-61 0 -107.5 -40.5t-46.5 -79.5q0 -13 8.5 -21.5
t23.5 -8.5q53 0 95 60zM151 136q25 0 50 14q-9 6 -27 6q-16 0 -26 -4.5t-10 -9.5q0 -6 13 -6z" />
    <glyph glyph-name="four" unicode="4" horiz-adv-x="418" 
d="M313 378l4 -3q-115 -196 -224 -305q20 -1 67.5 -4.5t66.5 -4.5q92 133 129 192l3 -3q-35 -57 -104 -189q75 5 110 39l4 -4q-41 -37 -117 -40l-79 -148q-37 0 -61 -7l111 155q-21 1 -70 5t-64 5q-35 -33 -71.5 -53t-62.5 -20q-27 0 -27 21t32.5 39.5t94.5 18.5h22
q65 62 133.5 154t102.5 152zM-46 -1q44 0 117 68h-14q-60 0 -91.5 -17.5t-31.5 -35.5q0 -15 20 -15z" />
    <glyph glyph-name="five" unicode="5" horiz-adv-x="339" 
d="M58 114l-4 3q27 32 80.5 110.5t60.5 88.5q-12 7 -12 19q0 8 5 13.5t12 5.5q12 0 12 -11q0 -13 -9 -26q18 -11 53 -11q86 0 169 80l3 -5q-87 -80 -173 -80q-35 0 -55 12q-11 -15 -51 -74t-64 -91q53 42 105 42q31 0 46 -19.5t15 -51.5q0 -83 -75 -150t-163 -67
q-44 0 -67 20t-23 50q0 32 23.5 56.5t61.5 24.5q21 0 33 -6l-2 -5q-14 6 -31 6q-36 0 -58 -23t-22 -52q0 -28 21 -47t62 -19q52 0 105.5 46t85 103t31.5 95q0 34 -44 34q-62 0 -119 -57z" />
    <glyph glyph-name="six" unicode="6" horiz-adv-x="325" 
d="M16 64q0 80 61 164t147.5 143t171.5 84l2 -5q-105 -31 -192.5 -116t-136.5 -179q31 42 69.5 68.5t72.5 26.5q29 0 44 -19.5t15 -50.5q0 -65 -53.5 -126.5t-136.5 -61.5q-28 0 -45.5 18t-18.5 54zM210 244q-43 0 -91 -41.5t-73 -97.5q-13 -39 -13 -60q0 -48 45 -48
q58 0 115 74t57 131q0 42 -40 42z" />
    <glyph glyph-name="seven" unicode="7" horiz-adv-x="335" 
d="M-13 -99q64 84 202 239t159 180q-67 -58 -117 -58q-25 0 -36.5 9.5t-14.5 38.5q-2 24 -6 29q-57 -73 -114 -73q-16 0 -16 14q0 23 31.5 48.5t73.5 25.5q16 0 28 -3q26 33 44 74l5 -2q-20 -40 -44 -74q29 -10 33 -49q0 -2 0.5 -8.5t1.5 -9.5l2.5 -7.5t4.5 -6t8 -1.5
q52 0 133 73l3 -3q-223 -274 -322 -427q-16 0 -59 -9zM60 271q54 0 110 72q-8 6 -24 6q-37 0 -67 -24.5t-30 -44.5q0 -9 11 -9z" />
    <glyph glyph-name="eight" unicode="8" horiz-adv-x="328" 
d="M364 389q0 -33 -32.5 -70t-94.5 -62q16 -52 16 -91q0 -73 -43 -123.5t-121 -50.5q-41 0 -66 25t-25 63q0 105 206 174q-12 45 -12 79q0 49 26 85t74 36q28 0 50 -15t22 -50zM225 134q0 44 -19 116q-66 -26 -121.5 -74t-55.5 -107q0 -32 20 -51.5t47 -19.5q64 0 96.5 40
t32.5 96zM213 373q0 -36 22 -110q102 55 102 136q0 50 -46 50q-36 0 -57 -24.5t-21 -51.5z" />
    <glyph glyph-name="nine" unicode="9" horiz-adv-x="325" 
d="M230 354q30 0 47 -20.5t17 -55.5q0 -81 -61.5 -164.5t-147.5 -140.5t-172 -82l-2 5q112 35 199.5 121t133.5 180q-30 -45 -70 -73t-76 -28q-32 0 -48 19t-16 51q0 62 60 125t136 63zM99 102q44 0 93 43.5t73 101.5q11 33 11 54q0 48 -45 48q-58 0 -115 -74t-57 -131
q0 -42 40 -42z" />
    <glyph glyph-name="colon" unicode=":" horiz-adv-x="163" 
d="M-6 32q0 -14 -10 -25t-23 -11q-15 0 -15 13q0 17 11 28t21 11q16 0 16 -16zM165 321q0 -14 -10 -25t-23 -11q-15 0 -15 13q0 17 11 28t21 11q16 0 16 -16z" />
    <glyph glyph-name="semicolon" unicode=";" horiz-adv-x="163" 
d="M165 321q0 -14 -10 -25t-23 -11q-15 0 -15 13q0 17 11 28t21 11q16 0 16 -16zM-159 -142l-2 4q119 72 142 145q-8 -11 -19 -11q-15 0 -15 16q0 12 9 24t22 12q16 0 16 -18q0 -44 -52 -97q-39 -39 -101 -75z" />
    <glyph glyph-name="less" unicode="&#x3c;" horiz-adv-x="402" 
d="M55 207l1 10l390 166l4 -13l-377 -161l173 -161l-9 -11z" />
    <glyph glyph-name="equal" unicode="=" horiz-adv-x="402" 
d="M63 275l4 14h333l-4 -14h-333zM21 139l4 14h333l-4 -14h-333z" />
    <glyph glyph-name="greater" unicode="&#x3e;" horiz-adv-x="402" 
d="M361 213l-1 -10l-390 -166l-4 13l377 161l-173 161l9 11z" />
    <glyph glyph-name="question" unicode="?" horiz-adv-x="383" 
d="M359 610q-68 0 -105 -36.5t-37 -73.5q0 -31 21 -31q4 0 13 13.5t21 13.5q17 0 17 -17q0 -10 -9 -18.5t-24 -8.5q-21 0 -32.5 13t-11.5 35q0 42 40 78.5t107 36.5q52 0 81.5 -24.5t29.5 -60.5q0 -88 -132 -148q-202 -92 -202 -163q0 -18 17 -18q14 0 31 14.5t30 47.5l4 -2
q-8 -26 -26.5 -45.5t-38.5 -19.5q-22 0 -22 23q0 19 12.5 38.5t39 41.5t49 38t63.5 42.5t62 40.5q99 68 99 126q0 29 -28 46.5t-69 17.5zM57 32q0 -14 -10 -25t-23 -11q-15 0 -15 13q0 17 11 28t21 11q16 0 16 -16z" />
    <glyph glyph-name="at" unicode="@" horiz-adv-x="542" 
d="M434 9l4 -3q-49 -66 -127.5 -113.5t-165.5 -47.5t-130.5 45t-43.5 117q0 94 64 191t167 160.5t206 63.5q70 0 103.5 -30t33.5 -80q0 -56 -37.5 -124t-95.5 -115.5t-110 -47.5q-25 0 -25 25q0 28 30 75q-85 -100 -134 -100q-27 0 -27 34q0 37 15.5 71t32.5 53.5t44 42.5
q81 72 129 72q26 0 26 -27q0 -5 -2 -15l22 35q20 0 32 2l-102 -160q-3 -5 -19.5 -28.5t-25 -39t-8.5 -24.5q0 -11 14 -11q47 0 103 46t94.5 113t38.5 123q0 105 -132 105q-75 0 -152 -44.5t-133 -109.5t-91.5 -141t-35.5 -138t36.5 -98t112.5 -36q92 0 169 49.5t120 109.5z
M174 30q34 0 78.5 43t80.5 94l11 15l35 55q10 20 10 34q0 22 -23 22q-47 0 -126.5 -103t-79.5 -146q0 -14 14 -14z" />
    <glyph glyph-name="A" unicode="A" horiz-adv-x="1794" 
d="M902 388l4 5h290l15 16q47 51 115.5 129t110 124t97.5 105.5t95 94t83.5 67.5t83.5 47.5t76 14.5l2 -5q-141 -155 -278 -349.5t-231 -357.5q-109 -187 -109 -280q0 -41 25 -65t77 -24q98 0 188.5 66.5t140.5 152.5t50 154q0 85 -84 85q-70 0 -144 -86t-94 -198l-5 1
q19 129 92 212q33 36 74.5 56.5t75.5 20.5q90 0 90 -91q0 -51 -31 -116t-81.5 -123.5t-124 -98.5t-148.5 -40q-118 0 -118 117q0 129 103 301q21 36 39 65h-183q-78 -85 -143 -149t-146 -130t-154.5 -108.5t-158 -69t-167.5 -26.5q-188 0 -285.5 94.5t-97.5 232.5
q0 77 32 151t90 134t148.5 97t198.5 37q127 0 191.5 -60t64.5 -151q0 -116 -88 -213.5t-217 -97.5q-78 0 -120 40t-42 97q0 61 46.5 107t125.5 46q11 0 19 -1l-1 -5h-15q-71 0 -119 -48.5t-48 -104.5q0 -52 39.5 -89t114.5 -37q84 0 154.5 47t108 117.5t37.5 142.5
q0 88 -63 146t-188 58q-94 0 -179 -40t-141.5 -103.5t-90 -141.5t-33.5 -155q0 -126 90 -210.5t268 -84.5q100 0 200.5 37t198.5 108t182 149t181 184h-289zM1214 405l-11 -12h182q181 283 482 593q-42 0 -93.5 -26.5t-98.5 -65t-111.5 -104t-111.5 -118.5t-120.5 -136
t-117.5 -131z" />
    <glyph glyph-name="B" unicode="B" horiz-adv-x="1163" 
d="M542 -39l5 -1q-4 -24 -26.5 -42.5t-67.5 -18.5q-72 0 -165 31q-103 -25 -226 -25q-62 0 -104 8t-59.5 19t-17.5 25q0 20 35.5 36t90.5 16q29 0 59 -3.5t66.5 -12t55 -13.5t64 -19t54.5 -17q153 47 281.5 174t275.5 370q93 154 165 250t145 149q-102 100 -321 100
q-142 0 -265.5 -39t-207.5 -100.5t-144.5 -139.5t-88.5 -155.5t-28 -147.5q0 -89 49 -136.5t140 -47.5q82 0 169 49t151 119t105 148.5t41 137.5q0 45 -25.5 70.5t-78.5 25.5q-60 0 -115.5 -23.5t-96 -61t-72 -83.5t-49 -90.5t-21.5 -82.5l-5 1q5 50 32.5 108t72 112
t112 89.5t142.5 35.5q60 0 89.5 -32.5t29.5 -86.5q0 -50 -23 -109.5t-67 -117.5t-101.5 -106.5t-133.5 -78.5t-155 -30q-94 0 -144.5 49.5t-50.5 140.5q0 71 28 149.5t89 156.5t145.5 140.5t209.5 101.5t270 39q216 0 324 -101q85 60 178 60v-5q-96 0 -173 -60
q74 -73 74 -177q0 -94 -60.5 -175t-158.5 -107q58 -39 58 -132q0 -160 -104.5 -276t-240.5 -116q-42 0 -63.5 18.5t-21.5 49.5q0 58 61.5 122t159.5 90l1 -5q-94 -25 -155.5 -88t-61.5 -119q0 -29 19.5 -46t59.5 -17q146 0 272 222q58 101 58 194q0 70 -49 101
q-37 -8 -74 -8q-32 0 -32 16q0 17 34 17q38 0 68 -16q86 31 146.5 118.5t60.5 181.5q0 88 -57 148q-42 -34 -87.5 -95t-76.5 -112.5t-88 -152.5q-5 -7 -13 -22t-10 -19q-132 -231 -270.5 -361.5t-310.5 -180.5q85 -23 138 -23q35 0 56.5 12t25.5 33zM62 -89q114 0 212 24
q-12 4 -49.5 18.5t-55 20t-48.5 14.5t-58.5 12.5t-55.5 3.5q-51 0 -85.5 -14.5t-34.5 -32.5q0 -12 16.5 -22t57.5 -17t101 -7zM959 422q33 0 62 10q-28 13 -61 13q-29 0 -29 -11q0 -12 28 -12z" />
    <glyph glyph-name="C" unicode="C" horiz-adv-x="818" 
d="M1139 945q0 -45 -67.5 -112t-171 -131.5t-243.5 -118t-271 -71.5q-223 -269 -223 -470q0 -65 40.5 -98.5t112.5 -33.5q94 0 181 43.5t144 108.5t91.5 137t34.5 132q0 53 -27 83t-82 30q-53 0 -111.5 -37t-102 -89.5t-72 -110t-28.5 -97.5q0 -51 44 -55l-1 -4
q-54 6 -54 77q0 73 51.5 149t127.5 124.5t145 48.5q57 0 86 -32.5t29 -86.5q0 -61 -34.5 -134t-93 -138.5t-146.5 -109.5t-183 -44q-92 0 -134 49t-42 128q0 192 186 424q-18 -2 -55 -2q-171 0 -253 66t-82 167q0 117 99.5 210.5t258.5 93.5q92 0 138 -40t46 -98
q0 -77 -62 -138t-155 -61v5q92 0 152 60.5t60 133.5q0 57 -44.5 95t-134.5 38q-144 0 -241 -97.5t-97 -212.5q0 -95 76.5 -156t240.5 -61q38 0 57 2q105 128 245.5 240t272 176t218.5 64q74 0 74 -46zM1066 986q-120 0 -318 -138.5t-357 -329.5q129 18 267.5 71.5
t240.5 117.5t168.5 129.5t66.5 108.5q0 41 -68 41z" />
    <glyph glyph-name="D" unicode="D" horiz-adv-x="1242" 
d="M309 400h-5q37 161 138.5 250.5t200.5 89.5q80 0 117 -42t37 -111q0 -54 -23.5 -115.5t-68 -120.5t-102 -107.5t-132.5 -78t-152 -29.5q-134 0 -202.5 70t-68.5 183q0 63 22 132t62 136t102 128t136 107t169.5 73t198.5 27q165 0 277.5 -66.5t168.5 -180.5
q126 126 274 158l1 -5q-152 -32 -271 -162q47 -98 47 -221q0 -88 -24 -175t-72.5 -165t-115 -138t-157.5 -95t-194 -35q-78 0 -203 28q-128 -36 -290 -36q-76 0 -119.5 17.5t-43.5 40.5q0 18 29.5 30.5t83.5 12.5q32 0 64 -3t71 -10.5t61 -12.5t70.5 -16.5t63.5 -15.5
q95 29 173 86.5t130 121t117 164.5q22 34 68.5 109t75 118.5t72.5 101t85 99.5q-55 112 -166 178t-274 66q-135 0 -262.5 -62.5t-215.5 -156.5t-141 -203t-53 -203q0 -99 63.5 -159.5t187.5 -60.5q94 0 184 45t152 112.5t99.5 145.5t37.5 144t-36 106.5t-113 40.5
q-98 0 -197 -88.5t-137 -246.5zM1230 515q0 119 -46 217l-5 -6q-51 -58 -140 -218t-122 -212q-86 -135 -187 -224.5t-253 -133.5q117 -26 194 -26q126 0 234 53.5t177.5 140t108.5 193t39 216.5zM179 -96q151 0 272 35q-15 3 -62 14.5t-69 16.5t-59.5 12t-69 10t-62.5 3
q-52 0 -80 -11t-28 -27q0 -21 42.5 -37t115.5 -16z" />
    <glyph glyph-name="E" unicode="E" horiz-adv-x="795" 
d="M289 871v5q80 0 128.5 52t48.5 123q0 73 -59.5 126t-173.5 53q-115 0 -192.5 -81.5t-77.5 -184.5q0 -52 23 -98.5t69 -85t127 -61.5t187 -23q81 0 154 12q2 81 57.5 147.5t137.5 101t168 34.5q27 0 45.5 -5t26.5 -13.5t10.5 -15t2.5 -13.5q0 -63 -129.5 -137t-308.5 -103
q-1 -6 -1 -20q0 -24 6 -41q36 4 52 4q31 0 48.5 -10.5t17.5 -23.5q0 -10 -11 -17.5t-31 -7.5q-54 0 -78 47q-105 -23 -212 -120.5t-173 -221t-66 -222.5q0 -69 48.5 -115t148.5 -46q80 0 156 29t133 75.5t100.5 103t66 115t22.5 107.5q0 132 -131 132q-84 0 -163 -58.5
t-129.5 -146t-65.5 -179.5l-5 -1q5 68 31.5 135.5t70.5 125.5t112.5 94t148.5 36q70 0 103 -38t33 -100q0 -64 -37 -139t-98.5 -141.5t-154.5 -110.5t-193 -44q-50 0 -89 12.5t-62.5 32.5t-38.5 47.5t-20.5 54.5t-5.5 57q0 91 41 183.5t107 164t150.5 121.5t168.5 64
q-10 23 -10 61q-73 -12 -153 -12q-110 0 -194.5 24t-134.5 65t-75 90.5t-25 103.5q0 104 81.5 182.5t210.5 78.5q117 0 177.5 -54t60.5 -130q0 -72 -50.5 -126t-131.5 -54zM966 944q0 34 -57 34q-43 0 -102.5 -20.5t-117.5 -54.5t-102 -86t-53 -108q175 29 303.5 102
t128.5 133zM592 642q-26 0 -51 -6q20 -43 73 -43q37 0 37 20q0 11 -15.5 20t-43.5 9z" />
    <glyph glyph-name="F" unicode="F" horiz-adv-x="1267" 
d="M820 292h-4q12 79 88.5 110.5t210.5 38.5q29 45 72 113t68 107.5t56 84t56 74.5q-37 14 -65 45.5t-48.5 63.5t-47 63t-74.5 50.5t-117 19.5q-92 0 -170.5 -29.5t-128.5 -76.5t-77.5 -102t-27.5 -109q0 -79 56 -130t165 -51q118 0 198 77.5t80 158.5q0 43 -27 69.5
t-80 26.5q-78 0 -131 -38t-81 -95l-4 3q27 56 81 95.5t136 39.5q58 0 89.5 -32t31.5 -81q0 -84 -79.5 -156.5t-213.5 -72.5q-111 0 -168.5 53t-57.5 133q0 55 28 111.5t78.5 103.5t130 77t172.5 30q78 0 133.5 -20t84.5 -51t49 -63t42 -63t49 -44q88 102 176 102
q25 0 38 -9.5t13 -24.5q0 -30 -44.5 -58.5t-115.5 -28.5q-29 0 -61 9q-10 -13 -20 -27.5t-22 -33t-21.5 -33.5t-24.5 -40t-24 -40.5t-26.5 -46.5t-26 -46.5t-29.5 -52.5t-30 -54q116 4 165 10q52 97 111 97q14 0 25 -7.5t11 -22.5q0 -52 -124 -69l-17 -38
q-29 -65 -66.5 -102.5t-97.5 -37.5v5q22 0 40.5 7.5t30.5 17t25 29.5t20 33.5t19.5 41.5t19.5 41q-61 -7 -165 -10q-3 -4 -7 -12q-57 -100 -108 -173t-118 -142t-140 -111.5t-168 -68t-207 -25.5q-177 0 -267.5 83.5t-90.5 203.5q0 66 28 131.5t77.5 117.5t125.5 84.5
t164 32.5q129 0 196 -61.5t67 -150.5q0 -102 -79.5 -181t-209.5 -79q-73 0 -111 34.5t-38 87.5q0 64 49.5 115.5t129.5 51.5h12l-1 -4h-10q-77 0 -126 -50t-49 -112q0 -50 35 -83.5t102 -33.5q114 0 194.5 86.5t80.5 187.5q0 81 -60.5 134t-184.5 53q-86 0 -160.5 -32
t-123 -84t-76 -116t-27.5 -129q0 -56 21 -105.5t62.5 -89.5t111 -63.5t158.5 -23.5q59 0 114.5 10t101 25.5t91.5 44t81 54t75 67.5t67 73t63.5 81.5t58 83t56.5 86.5q-63 -3 -107 -10t-86 -22t-67 -42.5t-32 -68.5zM1550 923q-87 0 -167 -101q24 -9 58 -9q67 0 110 27
t43 55q0 12 -12 20t-32 8zM1432 544q-29 0 -48 -22.5t-39 -66.5q117 15 117 64q0 13 -10 19t-20 6z" />
    <glyph glyph-name="G" unicode="G" horiz-adv-x="1360" 
d="M853 802v5q84 0 138 52.5t54 118.5q0 57 -45.5 95.5t-134.5 38.5q-124 0 -205.5 -87.5t-81.5 -199.5q0 -54 21.5 -102t65.5 -88t119 -63.5t173 -24.5q36 83 105 163.5t155.5 143.5t190.5 101.5t202 38.5q55 0 85.5 -20t30.5 -59q0 -36 -27.5 -81.5t-88 -96t-143.5 -92.5
t-207 -71t-265 -32q-50 -100 -50 -174q0 -105 122 -105q123 0 230 71q14 22 21 38q42 83 67.5 121.5t48.5 38.5q21 0 21 -20q0 -31 -43 -84t-109 -96q-60 -120 -124 -218.5t-151.5 -194t-184 -161t-221 -105.5t-263.5 -40q-99 0 -177 27.5t-125 74t-71.5 103.5t-24.5 121
q0 68 26.5 131.5t75.5 115t125.5 82.5t169.5 31q124 0 191 -63t67 -149q0 -81 -58.5 -140t-159.5 -59q-22 0 -54 5l1 5q23 -3 44 -3q96 0 153.5 59.5t57.5 139.5q0 82 -62.5 141t-179.5 59q-91 0 -167 -30.5t-124 -81.5t-74.5 -113.5t-26.5 -129.5q0 -61 23 -117t68 -101.5
t120.5 -72.5t170.5 -27q123 0 248 48t226 121.5t195 170.5t160 187t116 178q-110 -68 -226 -68q-143 0 -143 142q0 64 31 142q-101 1 -180 26.5t-125.5 67.5t-70 92.5t-23.5 106.5q0 113 85 197.5t224 84.5q92 0 138.5 -40t46.5 -99q0 -67 -55.5 -121.5t-141.5 -54.5z
M1612 989q-96 0 -193 -40t-176.5 -105t-142.5 -141.5t-103 -155.5q144 3 268 32.5t205.5 72t140 93t84.5 94t26 76.5q0 74 -109 74zM1307 340q63 43 103 94t40 78q0 15 -15 15q-11 0 -22 -9t-26 -33t-25 -41.5t-31 -58.5q-1 -2 -3 -5.5t-7.5 -14t-13.5 -25.5z" />
    <glyph glyph-name="H" unicode="H" horiz-adv-x="1810" 
d="M1335 528l1 -5q-27 -7 -53 -55q84 31 146 53q158 187 342 326t285 139q34 0 56 -15.5t22 -46.5q0 -22 -8 -44t-28 -43.5t-40 -40t-57 -40t-64.5 -37.5t-78 -37.5t-83 -35.5t-93 -37t-93.5 -35l-99 -36q-132 -157 -217 -303.5t-85 -227.5q0 -89 113 -89h5q7 87 45 173.5
t93 152t125.5 106.5t137.5 41q70 0 70 -69q0 -50 -38 -118t-98.5 -132t-149 -109.5t-178.5 -48.5q-1 -11 -1 -31q0 -114 66 -164l-4 -4q-69 51 -69 168q0 20 1 30h-5q-131 0 -131 115q0 102 102 277q58 100 150 209l-142 -53q-27 -63 -71 -79l-1 5q13 3 24.5 16t16 20.5
t17.5 32.5q-83 -32 -138 -55q-186 -305 -431 -429q16 -59 70 -87t126 -28q43 0 83 9l1 -5q-41 -9 -83 -9q-74 0 -129.5 29t-72.5 89q-144 -73 -302 -73q-86 0 -152.5 22.5t-106.5 61t-60.5 86.5t-20.5 103q0 63 26 124.5t73 111.5t119 80.5t156 30.5q119 0 181 -57.5
t62 -141.5q0 -98 -76.5 -176t-200.5 -78q-74 0 -113 36t-39 89q0 60 46.5 106.5t123.5 46.5h8l-1 -6h-13q-70 0 -114 -45.5t-44 -102.5q0 -50 36 -83.5t107 -33.5q111 0 187 82t76 179q0 78 -56.5 129t-169.5 51q-83 0 -154 -30.5t-117 -79.5t-72 -109.5t-26 -122.5
q0 -114 85 -191t250 -77q159 0 299 82q-3 17 -3 35q0 59 29 111.5t84.5 97t119.5 80.5t151 74l41 59q141 203 245 313q-98 -81 -158 -81q-47 0 -47 49q0 29 27 85t27 84q0 33 -35.5 54.5t-101.5 21.5q-87 0 -173 -41t-146 -100.5t-97 -126.5t-37 -120q0 -43 27 -68.5
t83 -25.5t110.5 30t95.5 76t70.5 97.5t41.5 97.5l6 -1q-11 -48 -35 -98t-62.5 -98.5t-98 -79.5t-129.5 -31q-56 0 -85 27t-29 73q0 55 37.5 123t98 128.5t147.5 101.5t175 41q81 0 117.5 -30t36.5 -75q0 -41 -28 -94t-28 -68q0 -26 33 -26q37 0 89.5 32.5t98.5 76.5
q83 83 159 121l1 -4q-79 -42 -157 -121q-50 -51 -107 -136t-150 -239l137 54q26 54 65 65zM1707 386q-76 0 -165 -74t-153 -184t-75 -209q88 3 175 49t147.5 109t98 130t37.5 115q0 64 -65 64zM2056 981q-93 0 -249 -125.5t-311 -309.5q76 28 121.5 45t113.5 43t109.5 45.5
t93 45t82 47.5t59.5 47.5t41.5 51.5t12.5 53q0 29 -20.5 43t-52.5 14zM691 19q0 -17 3 -32q99 59 185 154t185 233q-84 -37 -147 -73t-116.5 -80t-81.5 -95t-28 -107z" />
    <glyph glyph-name="I" unicode="I" horiz-adv-x="1064" 
d="M1446 925h-31q-70 -56 -154 -192q35 -13 53.5 -41.5t18.5 -63.5q0 -69 -61.5 -124.5t-168.5 -55.5h-6q-1 -2 -2.5 -4t-1.5 -3q-79 -130 -151.5 -222t-159 -166t-186.5 -111t-215 -37q-162 0 -245.5 79t-83.5 196q0 67 27.5 132.5t77.5 119t129 86.5t173 33
q124 0 189.5 -61t65.5 -150q0 -101 -79 -179.5t-212 -78.5q-80 0 -120.5 35t-40.5 89q0 62 48 111t122 49q29 0 50 -6l-1 -4q-27 5 -50 5q-71 0 -117.5 -48t-46.5 -107q0 -49 36.5 -82.5t108.5 -33.5q124 0 204 82.5t80 183.5q0 81 -61 135.5t-178 54.5q-91 0 -168.5 -32.5
t-127 -85t-77 -117t-27.5 -129.5q0 -115 83 -193t242 -78q78 0 153 26.5t139.5 71.5t132 115.5t125 146t124.5 175.5l3 5q-85 12 -132.5 66t-47.5 131q0 53 23.5 103.5t69 93t122.5 68t175 25.5q22 0 71 -3.5t74 -4.5q74 59 154 59q48 0 48 -21q-2 -43 -170 -43zM1270 933
q-97 0 -173 -25t-121.5 -67t-68.5 -91t-23 -102q0 -76 46 -128.5t132 -63.5q28 41 87.5 136t91.5 141q-13 4 -35 4q-53 0 -92.5 -26.5t-55.5 -61.5l-3 2q13 33 54.5 62t96.5 29q16 0 38 -4q90 129 164 187q-25 1 -73 4.5t-65 3.5zM1259 728q-28 -46 -81 -139.5t-77 -134.5h2
q95 0 156 58.5t61 125.5q0 68 -61 90zM1568 984q-77 0 -147 -54h26q37 0 66.5 2.5t47 6.5t29.5 9t16.5 10t4.5 10q0 16 -43 16z" />
    <glyph glyph-name="J" unicode="J" horiz-adv-x="1353" 
d="M971 515q51 0 97.5 21t76.5 52t47.5 64.5t17.5 60.5q0 57 -56 64l1 4q30 -3 46.5 -22.5t16.5 -45.5q0 -83 -66.5 -143.5t-180.5 -60.5q-67 0 -102 35t-35 93q0 53 31.5 111.5t88 110.5t147.5 86t197 34q78 0 116 -28t38 -72q0 -31 -11 -57t-24 -40t-24 -29t-11 -27
q0 -27 39 -27q21 0 44 7t41 15.5t40.5 24t34.5 25t33 27t26 21.5q138 115 271 115v-5q-157 0 -310 -153q-27 -26 -52.5 -57.5t-43 -55.5t-49 -75t-47 -76.5t-60.5 -103.5t-67 -116q-205 -351 -398.5 -520t-426.5 -169q-123 0 -194 51t-86 131q-90 27 -136 90.5t-46 146.5
q0 70 34 140t94 128.5t154.5 95t204.5 36.5q268 0 367 -182l-5 -4q-97 181 -363 181q-108 0 -201 -36t-153 -93t-93.5 -127t-33.5 -139q0 -80 44 -142t132 -89q-3 18 -3 37q0 111 86 199.5t225 88.5q79 0 122 -35t43 -89q0 -40 -21 -78.5t-61.5 -71.5t-109 -53.5
t-154.5 -20.5q-69 0 -121 15q16 -76 84.5 -125t190.5 -49q68 0 135 20.5t123.5 53t117.5 88t109 109t106 133.5t100.5 144.5t101.5 157.5q197 313 326 444q-89 -66 -155 -66q-51 0 -51 48q0 39 33 87.5t33 73.5q0 30 -37.5 51t-100.5 21q-105 0 -195 -33.5t-146 -84.5
t-87 -108.5t-31 -110.5q0 -55 32.5 -88.5t99.5 -33.5zM178 -173q0 -18 3 -38q57 -15 119 -15q73 0 139 24t108.5 60t67.5 74t25 69q0 48 -41.5 79t-114.5 31q-134 0 -220 -86t-86 -198z" />
    <glyph glyph-name="K" unicode="K" horiz-adv-x="1734" 
d="M1196 456q52 0 77 -27q25 8 48.5 23t40 29t41.5 45t38.5 49.5t45 64t48.5 69.5q56 78 101.5 129t103 95.5t124.5 65t149 20.5q104 0 155 -50t51 -131q0 -82 -48 -170.5t-134.5 -151.5t-182.5 -63q-60 0 -89.5 30t-29.5 77q0 81 71.5 159.5t155.5 108.5l1 -4
q-86 -35 -151 -117.5t-65 -153.5q0 -43 26.5 -69t79.5 -26q71 0 139 37t116 93t77 123t29 127q0 79 -50 127.5t-151 48.5q-45 0 -86 -9t-73 -22t-67 -39.5t-58.5 -48t-57 -62.5t-53.5 -68t-57 -79q-53 -74 -87.5 -116.5t-88.5 -86t-109 -59.5q17 -22 17 -57
q0 -51 -26.5 -114.5t-58.5 -112t-58.5 -100.5t-26.5 -82q0 -23 20 -38.5t59 -15.5q5 0 14.5 0.5t14.5 0.5q30 102 98.5 203.5t153 167.5t155.5 66q61 0 61 -54q0 -43 -37 -104t-95.5 -119.5t-144 -104.5t-171.5 -57q-28 -73 -28 -129q0 -55 29 -86t88 -31q71 0 139.5 26.5
t120.5 70.5l3 -4q-53 -45 -122.5 -71.5t-140.5 -26.5q-127 0 -127 134q0 57 17 114q-5 0 -14.5 -0.5t-13.5 -0.5q-91 0 -91 77q0 51 26.5 113.5t59 111t59 101.5t26.5 88q0 18 -12 33q-34 -10 -77 -10q-46 0 -46 20q0 9 13.5 16t35.5 7zM1453 878q22 0 22 -18
q0 -24 -46.5 -62.5t-114.5 -49.5q-53 -75 -212 -346q-69 -117 -138 -202.5t-158 -156t-200.5 -106.5t-244.5 -36q-150 0 -230 78.5t-80 191.5q0 63 25.5 123t72.5 109t122 79t167 30q120 0 183.5 -58t63.5 -143q0 -44 -18.5 -86.5t-53.5 -79t-93.5 -58.5t-131.5 -22
q-81 0 -122.5 37.5t-41.5 91.5q0 68 54 123t139 55q29 0 57 -7l-1 -5q-25 7 -56 7q-82 0 -135 -54t-53 -119q0 -52 40 -87.5t119 -35.5q119 0 197.5 78.5t78.5 176.5q0 77 -55.5 129t-170.5 52q-90 0 -164.5 -29.5t-121 -78t-71.5 -107t-25 -120.5q0 -112 78 -188.5
t223 -76.5q74 0 142 15t123.5 39t110 64.5t96.5 81.5t88.5 100t81.5 110t79 121q124 198 212 307q-8 -1 -23 -1q-44 0 -65.5 22.5t-27.5 77.5q-7 74 -37 102.5t-118 28.5q-76 0 -151 -36t-128.5 -90t-87 -116.5t-33.5 -114.5t33.5 -83.5t105.5 -31.5q63 0 123.5 29
t101.5 71.5t66 90t25 85.5q0 58 -69 58q-65 0 -130.5 -56t-93.5 -131l-4 1q25 72 92.5 131.5t138.5 59.5q74 0 74 -69q0 -45 -25 -93.5t-67 -89t-104 -66.5t-129 -26q-74 0 -108.5 32t-34.5 87q0 54 33.5 117.5t87.5 118t130.5 91.5t154.5 37q57 0 95 -12.5t54.5 -33t25 -45
t10.5 -49.5t6 -45.5t18 -33t40 -12.5q17 0 26 1q104 127 158 127zM1641 336q-55 0 -133.5 -66.5t-148.5 -166t-107 -195.5q86 11 170.5 57t142 104.5t93.5 118t36 100.5q0 48 -53 48zM1453 873q-49 0 -135 -119q66 13 108.5 49.5t42.5 57.5q0 12 -16 12zM1193 418q41 0 74 9
q-24 24 -71 24q-18 0 -30.5 -5.5t-12.5 -12.5q0 -15 40 -15z" />
    <glyph glyph-name="L" unicode="L" horiz-adv-x="1374" 
d="M877 986q-166 0 -266.5 -95.5t-100.5 -221.5q0 -115 103 -190t301 -75q42 0 75 4l37 59q46 75 74.5 119t73.5 108.5t81 102.5t81 76.5t90.5 56t92.5 17.5q45 0 65.5 -23t20.5 -55q0 -52 -44.5 -121.5t-118 -137t-182 -123.5t-223.5 -77q-51 -81 -94.5 -139t-102 -120
t-129 -108.5t-152.5 -77.5q69 -19 106.5 -28t93.5 -18t104 -9q107 0 199.5 33.5t149 82.5t88 99.5t31.5 90.5q0 57 -65 57q-77 0 -171.5 -95t-132.5 -193l-6 1q48 119 133.5 205.5t177.5 86.5q69 0 69 -62q0 -33 -20 -73.5t-61 -82.5t-95.5 -76.5t-132.5 -56.5t-164 -22
q-144 0 -336 48q-147 -48 -329 -48q-143 0 -224.5 27.5t-81.5 63.5q0 24 38 39.5t106 15.5q98 0 200 -14.5t158 -28t153 -40.5q131 52 228.5 154.5t210.5 280.5q-32 -4 -73 -4q-210 0 -317.5 82.5t-107.5 201.5q0 58 26.5 112.5t74 98.5t122.5 70.5t165 26.5
q103 0 155.5 -42.5t52.5 -105.5q0 -74 -64.5 -136.5t-165.5 -64.5v5q98 2 161.5 63t63.5 133q0 60 -51 101.5t-151 41.5zM1066 457q-2 -4 -11.5 -18.5t-14.5 -22.5q113 21 219.5 76t179.5 121.5t117 135.5t44 120q0 28 -17.5 50.5t-63.5 22.5q-35 0 -68.5 -12t-61.5 -30
t-59 -50.5t-54 -61.5t-53.5 -75.5t-51 -80.5t-52.5 -87.5t-53 -87.5zM198 -90q182 0 317 46q-17 5 -88 24.5t-100 26t-86 18.5t-105.5 16.5t-99.5 4.5q-66 0 -102.5 -14.5t-36.5 -35.5q0 -15 18 -29.5t52.5 -27.5t94.5 -21t136 -8z" />
    <glyph glyph-name="M" unicode="M" horiz-adv-x="1930" 
d="M1427 354q100 135 166 220.5t139 172t123.5 133t100.5 76t90 29.5l1 -8q-61 -62 -165 -192t-211.5 -281.5t-185.5 -298t-78 -219.5q0 -74 75 -74q67 0 142 44.5t132 107.5t94.5 131.5t37.5 116.5q0 65 -65 65q-78 0 -168.5 -106.5t-114.5 -210.5l-5 1q23 113 109 217.5
t179 104.5q34 0 52 -19.5t18 -51.5q0 -67 -61.5 -162t-160.5 -169t-189 -74q-47 0 -72 26.5t-25 72.5q0 114 99 282q90 152 253.5 353.5t302.5 337.5q-37 0 -86.5 -31t-102.5 -81.5t-124.5 -135t-138 -171t-157.5 -209.5q-153 -207 -251 -319t-144 -112q-14 0 -14 20
q0 107 202.5 396.5t510.5 651.5q-40 -4 -91 -41t-125 -120t-112 -130t-125 -158q-28 -35 -41 -52q-60 -76 -100.5 -126t-101 -117t-108.5 -110.5t-112 -91t-122.5 -74.5t-129 -45t-142.5 -18q-94 0 -168 27t-119 72t-68 100.5t-23 116.5q0 73 30.5 142t85.5 124t142 88
t192 33q136 0 210.5 -64t74.5 -159q0 -109 -86.5 -196t-221.5 -87q-86 0 -131.5 41.5t-45.5 100.5q0 60 44 105.5t118 45.5q36 0 66 -15l-2 -4q-28 14 -63 14q-66 0 -108.5 -46.5t-42.5 -105.5q0 -55 41.5 -93t123.5 -38q132 0 217.5 86t85.5 192q0 91 -71 153.5t-209 62.5
q-94 0 -175.5 -36t-134.5 -93.5t-83.5 -128t-30.5 -141.5q0 -123 90.5 -207.5t261.5 -84.5q71 0 140.5 17.5t128 45t121.5 74.5t112.5 91t108.5 110t101.5 117.5t100.5 125.5q182 233 245 304q173 197 258 198l1 -6q-200 -259 -454 -630t-254 -424q0 -7 5 -7q39 0 137.5 112
t250.5 316z" />
    <glyph glyph-name="N" unicode="N" horiz-adv-x="1534" 
d="M2242 820l-3 3q24 34 24 69q0 33 -36 54.5t-88 21.5q-54 0 -102.5 -18t-89 -46.5t-91.5 -86t-93 -113.5t-110 -153q-62 -88 -215.5 -333.5t-191.5 -293.5l-4 3q27 46 50 115t34.5 119.5t32.5 155.5t30 148q29 135 64 243.5t93 201.5q-46 -58 -103 -143t-104 -162
t-107.5 -166t-117.5 -163t-131.5 -144.5t-151.5 -119t-175 -78t-204 -29.5q-196 0 -300.5 98.5t-104.5 239.5q0 76 31.5 148.5t88.5 131.5t148 95t200 36q142 0 213 -64.5t71 -161.5q0 -113 -85.5 -205.5t-213.5 -92.5q-83 0 -126.5 38t-43.5 93q0 59 47.5 104.5t125.5 45.5
q23 0 35 -2l-1 -5q-11 2 -32 2q-72 0 -117.5 -45t-45.5 -103q0 -52 40 -87.5t118 -35.5q84 0 153 44.5t105 111.5t36 138q0 94 -69.5 157t-209.5 63q-97 0 -181.5 -38.5t-140 -100t-87 -137.5t-31.5 -152q0 -63 22.5 -117.5t66.5 -98.5t117 -69.5t168 -25.5
q110 0 211.5 31.5t180.5 83.5t154.5 126t133.5 152.5t119.5 169.5t109.5 170.5t105 162.5t106 138l4 -4q-31 -40 -59.5 -127.5t-44 -160t-39.5 -196.5q-57 -304 -159 -490q33 49 178.5 280.5t198.5 308.5q48 69 77 110t69.5 93t68.5 81.5t64 62t67.5 48.5t69 26.5t76.5 10.5
q53 0 90.5 -26.5t37.5 -68.5q0 -38 -26 -72z" />
    <glyph glyph-name="O" unicode="O" horiz-adv-x="875" 
d="M811 158l3 -4q-83 -57 -169 -69q-221 -180 -414 -180q-98 0 -143 52t-45 134q0 145 83.5 305.5t208.5 286t280 208t290 82.5q92 0 137 -39.5t45 -100.5q0 -81 -60 -150q-7 -128 -113.5 -296t-261.5 -296q82 14 159 67zM231 -90q186 0 403 173q-10 -1 -29 -1
q-74 0 -111.5 40t-37.5 112q0 30 5 53q-81 9 -81 90q0 60 44.5 137t114 144.5t166 114.5t189.5 47q70 0 102 -33.5t32 -87.5v-8q54 69 54 142q0 59 -43.5 97t-133.5 38q-108 0 -231 -64.5t-230 -167.5t-195.5 -222t-140 -238.5t-51.5 -206.5q0 -77 47 -118t127 -41zM605 87
q11 0 37 2q154 127 262.5 294t117.5 295q-60 -67 -141 -80l-1 5q80 10 143 83v11q0 118 -129 118q-82 0 -175.5 -49t-165 -118t-119 -145.5t-47.5 -130.5q0 -73 75 -80q23 113 107 208t175 95q43 0 43 -40q0 -32 -26 -78t-67 -88.5t-99.5 -72.5t-115.5 -30h-9q-7 -29 -7 -60
q0 -66 36 -102.5t106 -36.5zM745 590q-76 0 -161.5 -96t-112.5 -203h8q57 0 114.5 30t97.5 72t65.5 86.5t25.5 75.5q0 35 -37 35z" />
    <glyph glyph-name="P" unicode="P" horiz-adv-x="1310" 
d="M1743 995l1 -5q-169 -47 -269 -129q80 -82 80 -189q0 -108 -67 -193t-166 -85q-32 0 -48 15t-16 39q0 59 50.5 112t115.5 74l1 -5q-71 -24 -116.5 -77t-45.5 -104q0 -21 14 -34t42 -13q50 0 101 48t82.5 120t31.5 141q0 80 -64 147q-110 -93 -242 -316q-29 -50 -67 -111
t-46 -74q-43 -70 -87.5 -126.5t-105.5 -113t-140.5 -99.5t-173.5 -70q116 -29 196 -29q128 0 245 54.5t208 165.5l5 -4q-186 -221 -458 -221q-96 0 -215 28q-138 -36 -307 -36q-77 0 -140.5 5t-106 13.5t-71.5 20t-42 23.5t-13 25q0 28 55 47t133 19q74 0 149.5 -14.5
t195 -49.5t147.5 -42q89 26 164 70t137 107t108 124.5t102 149.5q116 185 194.5 288t168.5 172q-114 111 -327 111q-145 0 -271.5 -37.5t-213 -97.5t-149 -135.5t-92 -151t-29.5 -144.5q0 -84 51.5 -136t159.5 -52q79 0 166 47.5t153 115t109 143t43 130.5q0 86 -99 86
q-38 0 -86 -17.5t-100 -52t-100 -94.5t-78 -136l-4 2q37 96 105.5 167.5t137 103.5t126.5 32q106 0 106 -97t-66 -198t-179 -169.5t-234 -68.5q-110 0 -163 53.5t-53 140.5q0 58 21.5 121t62.5 127.5t106.5 122t147 102.5t191 71.5t231.5 26.5q217 0 332 -112
q113 85 275 128zM282 -89q156 0 288 35q-38 10 -143.5 43t-179.5 48.5t-150 15.5q-79 0 -131 -18t-52 -43q0 -12 12.5 -23t41 -21.5t70 -18.5t104.5 -13t140 -5z" />
    <glyph glyph-name="Q" unicode="Q" horiz-adv-x="1056" 
d="M158 -95q-116 0 -182 26.5t-66 60.5q0 30 48.5 52t129.5 22q39 0 79 -5.5t68 -11.5t67.5 -20t56.5 -20.5t58 -24.5t50 -22q147 51 274 148.5t209 210.5t128.5 231t46.5 218q0 92 -51 145t-145 53q-125 0 -241.5 -58.5t-194.5 -145.5t-125 -185.5t-47 -181.5
q0 -78 43 -123t132 -45q64 0 131 32t121 82.5t97.5 110.5t67.5 120t24 106q0 88 -81 88q-72 0 -146.5 -50.5t-126 -127.5t-64.5 -154l-5 1q13 77 65 154.5t128 129.5t150 52q90 0 90 -107q0 -66 -35.5 -143t-94 -144t-144 -111.5t-176.5 -44.5t-136 47.5t-45 126.5
q0 85 47.5 184.5t126.5 187t197.5 146t245.5 58.5q109 0 165.5 -67t56.5 -178q0 -78 -27.5 -166t-84 -179t-134 -172.5t-187.5 -149.5t-236 -107q76 -32 125 -32q107 0 207.5 53t168.5 142l3 -3q-63 -84 -163.5 -141t-215.5 -57q-81 0 -166 26q-142 -37 -287 -37zM158 -91
q138 0 267 39q-34 12 -108.5 44.5t-132.5 49t-123 16.5q-63 0 -104.5 -20t-41.5 -46q0 -33 64.5 -58t178.5 -25z" />
    <glyph glyph-name="R" unicode="R" horiz-adv-x="1370" 
d="M187 -90q89 0 163.5 29t143.5 92.5t129.5 144t136.5 204.5l96 156q77 125 141 207.5t133 136.5q-122 96 -360 96q-126 0 -241 -37t-197.5 -96t-144.5 -132.5t-92.5 -148.5t-30.5 -141q0 -81 48.5 -130.5t142.5 -49.5q102 0 214.5 80.5t182.5 183t70 172.5q0 95 -102 95
q-66 0 -130.5 -33t-110 -81.5t-76.5 -97t-40 -85.5l-5 1q9 35 39 84t76 98.5t112.5 84t134.5 34.5q111 0 111 -105q0 -67 -39 -144t-102 -142t-152.5 -108t-182.5 -43q-96 0 -146 51t-50 135q0 55 22.5 117.5t63.5 125t104.5 120t139.5 101.5t175 70t206 26q239 0 365 -97
q124 96 277 102v-5q-158 -7 -269 -104q92 -78 92 -190q0 -92 -60 -169t-152 -96q11 -16 11 -46q0 -46 -26.5 -109.5t-58.5 -115t-58.5 -101t-26.5 -70.5q0 -35 27 -52.5t70 -17.5q66 0 137 42.5t124 103t87 128.5t34 118q0 54 -53 54q-74 0 -162.5 -107t-113.5 -228h-4
q7 68 44.5 146t101.5 136.5t132 58.5q27 0 43.5 -15t16.5 -45q0 -67 -55.5 -160t-148.5 -165t-183 -72q-52 0 -81.5 23t-29.5 68q0 39 27 98.5t59.5 110.5t59.5 105.5t27 84.5q0 15 -6 26q-20 -4 -44 -4q-43 0 -43 17t36 17q34 0 52 -22q76 25 135.5 108.5t59.5 173.5
q0 97 -75 162q-42 -39 -88.5 -101.5t-75.5 -109.5t-89 -150q-61 -105 -108 -178t-102.5 -147t-106.5 -121.5t-111.5 -86.5t-127 -56.5t-142.5 -17.5q-93 0 -141.5 44.5t-48.5 102.5q0 45 28 76.5t74 31.5q25 0 37.5 -8t12.5 -19q0 -14 -13 -14q-12 0 -21 17t-25 17
q-40 0 -64 -29.5t-24 -71.5q0 -57 46.5 -99.5t138.5 -42.5zM974 422q16 0 38 5q-17 19 -47 19t-30 -12t39 -12z" />
    <glyph glyph-name="S" unicode="S" horiz-adv-x="1147" 
d="M1180 1016v-5q-22 2 -46 2q-120 0 -195 -72t-75 -166q0 -92 84.5 -159.5t235.5 -67.5h17q50 90 85 148t78 119t79 94.5t78 55t86 21.5q82 0 82 -73q0 -47 -32.5 -105t-88 -113t-142 -97t-183.5 -52q-32 -61 -56 -105.5t-58.5 -102t-65 -99.5t-71.5 -90t-81 -81.5
t-90.5 -66t-103.5 -52.5t-116.5 -32t-132.5 -12q-108 0 -191 27t-131.5 73.5t-72.5 103t-24 121.5q0 92 47.5 176t140 139t208.5 55q150 0 226 -69t76 -169q0 -103 -79 -183t-203 -80q-97 0 -147 47t-50 110q0 64 47 113t122 49v-5q-73 0 -118.5 -48t-45.5 -109t48.5 -105.5
t138.5 -44.5q111 0 187 85.5t76 188.5q0 92 -69 153.5t-209 61.5q-87 0 -162.5 -32t-124.5 -84.5t-76.5 -117t-27.5 -131.5q0 -64 23.5 -119.5t71 -101t129 -72t188.5 -26.5q96 0 182.5 30t154 78.5t134 124.5t117 153t107.5 179l37 67h-14q-161 0 -247.5 71t-86.5 170
q0 95 77 164.5t208 69.5q23 0 45 -2zM1611 981q-30 0 -59 -11.5t-52.5 -27.5t-51 -49t-46 -59t-46.5 -75.5t-43.5 -79.5l-46.5 -90q-3 -6 -20 -38q95 11 180 53t139.5 96t86.5 110.5t32 100.5q0 70 -73 70z" />
    <glyph glyph-name="T" unicode="T" horiz-adv-x="1004" 
d="M360 -93q52 0 100 9t87.5 22.5t80 39.5t70.5 48.5t66 62t59 68t57.5 78.5t54.5 80.5t55 86.5q141 224 236 322.5t192 111.5v-5q-30 -4 -59 -17t-52 -29t-50 -46t-46 -54.5t-46.5 -67.5t-44 -71t-47 -79.5t-47.5 -80.5q-107 -179 -204 -282.5t-208.5 -153t-253.5 -49.5
q-146 0 -221 68.5t-75 168.5q0 119 92 211t232 92q107 0 163 -49t56 -121q0 -84 -68.5 -150t-178.5 -66q-57 0 -87 29t-30 72q0 54 40.5 96.5t106.5 42.5h11v-4h-10q-64 0 -103.5 -41.5t-39.5 -93.5q0 -41 28.5 -68.5t83.5 -27.5q94 0 161.5 70t67.5 150q0 69 -50 112.5
t-151 43.5q-140 0 -229.5 -92t-89.5 -206q0 -98 73 -164.5t218 -66.5zM1022 958q-107 0 -197 -23.5t-149.5 -61.5t-101.5 -86.5t-60.5 -98t-18.5 -97.5q0 -71 45.5 -116.5t130.5 -45.5q60 0 122.5 30.5t107.5 75.5t74 95.5t29 90.5q0 83 -98 83q-84 0 -153.5 -54.5
t-97.5 -133.5l-4 1q21 66 90 129t166 63q106 0 106 -95q0 -45 -25 -95.5t-67.5 -94.5t-107 -73t-136.5 -29q-89 0 -138 48t-49 121q0 49 19 99.5t61.5 99.5t103 87.5t151 62t197.5 23.5q154 0 366.5 -28.5t347.5 -28.5q39 0 74.5 5.5t68.5 17.5t53 35.5t20 56.5h6
q0 -63 -65 -107t-184 -44q-76 0 -188 22t-243.5 44t-255.5 22z" />
    <glyph glyph-name="U" unicode="U" horiz-adv-x="1325" 
d="M941 -310q46 0 93 35t76 102l4 -2q-29 -68 -77.5 -104t-95.5 -36q-85 0 -85 103q0 57 22 123q-85 1 -85 72q0 61 52 154.5t146 225.5q-352 -458 -507 -458q-37 0 -52.5 21t-15.5 50q0 19 4 38.5t13.5 42t18.5 41.5t27 46.5t30.5 45.5t37 50.5t38.5 50t43.5 54.5t43.5 55
q120 151 177.5 248t57.5 171q0 25 -10.5 51t-34.5 53t-72.5 44t-114.5 17q-114 0 -221.5 -38.5t-186.5 -101t-139 -138t-91 -152.5t-31 -142q0 -72 42 -114.5t127 -42.5q84 0 173 51t154 124t107 153.5t42 139.5q0 42 -20.5 65t-71.5 23q-41 0 -94 -23.5t-108 -65.5
t-104.5 -112.5t-76.5 -153.5l-5 1q25 81 74 151.5t104.5 114.5t111 68.5t99.5 24.5q102 0 102 -106q0 -71 -41.5 -157t-108.5 -151q-157 -153 -336 -153q-88 0 -131.5 44t-43.5 119q0 66 31 144t92 154.5t141 139t187.5 101t222.5 38.5q124 0 183 -55t59 -135
q0 -171 -212 -423q-278 -331 -278 -416q0 -23 16 -36.5t41 -13.5q48 0 116.5 47t135.5 115t150.5 169.5t144.5 183t134 182.5l102 147q26 0 50 3q-22 -32 -171.5 -238t-246 -355t-96.5 -193q0 -53 77 -55q36 103 113 209.5t159.5 173.5t136.5 67q49 0 49 -52
q0 -40 -40 -106.5t-101.5 -131t-144.5 -112.5t-159 -52q-30 -73 -30 -124q0 -98 78 -98zM1289 361q-45 0 -123 -70.5t-154 -175t-117 -198.5q73 4 154.5 51.5t142.5 111t101 129t40 105.5q0 47 -44 47z" />
    <glyph glyph-name="V" unicode="V" horiz-adv-x="834" 
d="M1695 1020q-82 0 -176.5 -46t-189.5 -125t-194 -176t-204 -208t-204.5 -212.5t-211 -196.5t-209.5 -154l-2 5q32 21 60 46t53.5 58.5t44.5 60.5t42.5 72t37.5 72t40 82t39 82q127 260 267 403q-69 -52 -128 -52q-62 0 -62 86q0 10 2.5 39t2.5 40q0 51 -38 86t-131 35
q-98 0 -187.5 -34.5t-153.5 -90t-112 -124t-71.5 -138.5t-23.5 -132q0 -86 42.5 -131.5t119.5 -45.5q63 0 123 27.5t105 71.5t79.5 97t52 106.5t17.5 97.5q0 48 -21.5 75t-63.5 27q-93 0 -184 -91.5t-104 -210.5h-5q12 120 105 213.5t188 93.5q50 0 75.5 -33.5t25.5 -89.5
q0 -58 -27.5 -124.5t-76 -126t-125 -99t-164.5 -39.5q-78 0 -122.5 47t-44.5 135q0 62 23.5 133t72 140t113 125.5t154.5 91t190 34.5q103 0 149.5 -42.5t46.5 -103.5q0 -14 -3 -44.5t-3 -48.5q0 -46 38 -46q19 0 40 6.5t36.5 14t38 23.5t32 23.5t31.5 26.5t24 21l3 -4
q-38 -30 -72 -67.5t-57.5 -70.5t-51 -82.5t-42.5 -81.5t-43 -92.5t-44 -92.5q-138 -286 -301 -421q100 70 211.5 170t207.5 199t196.5 205t193 195.5t182 161.5t179 113t169.5 41q108 0 165 -48.5t57 -118.5q0 -85 -77 -152.5t-205 -67.5q-46 0 -96 10l1 5q47 -10 95 -10
q118 0 191 68t73 152q0 67 -52 112t-152 45z" />
    <glyph glyph-name="W" unicode="W" horiz-adv-x="1200" 
d="M388 -96l-6 6q103 83 166 182.5t203 372.5q108 208 235 351q-108 -98 -173 -98q-35 0 -51.5 27t-17.5 103q-1 43 -7 69.5t-23.5 51t-54.5 36t-96 11.5q-106 0 -202.5 -33.5t-166.5 -88.5t-121.5 -123t-77.5 -139t-26 -136q0 -89 51 -144t151 -55q102 0 203.5 70t162 165
t60.5 173q0 55 -35 87t-107 32q-66 0 -125 -29t-96.5 -72t-59.5 -91t-22 -88q0 -65 49 -78l-1 -4q-53 12 -53 82q0 41 22.5 89.5t60.5 92.5t98.5 73.5t127.5 29.5q78 0 117 -38.5t39 -102.5q0 -60 -34 -129t-90.5 -129t-141 -99.5t-175.5 -39.5q-102 0 -154.5 56.5
t-52.5 148.5q0 83 42 173.5t116.5 169.5t191 130.5t249.5 51.5q66 0 110.5 -16.5t64.5 -42.5t29.5 -57.5t10 -63.5t1.5 -58t8.5 -42.5t26.5 -16.5q22 0 45.5 9t51.5 29.5t49 38t58 50.5t58 51l3 -4q-49 -41 -86 -84t-68 -96t-54.5 -101t-63 -128.5t-76.5 -148.5
q-60 -111 -152 -231.5t-173 -187.5q122 88 481 470q50 53 164.5 176.5t183 195t118.5 118.5l2 -4l-14 -14q-76 -79 -126.5 -161.5t-118.5 -221t-125 -237.5q-35 -60 -113.5 -164t-151.5 -174q89 59 201 161.5t288 280.5t228 228q24 24 73 72l73.5 72t68 64.5t71.5 62
t69.5 52t75 46t74 32t82 23t84.5 6.5q102 0 156.5 -46t54.5 -112q0 -81 -74 -144.5t-198 -63.5q-49 0 -99 10l1 6q53 -10 98 -10q115 0 185.5 63.5t70.5 143.5q0 62 -51 105t-144 43q-48 0 -96 -11t-86.5 -25t-87.5 -45t-79 -52.5t-81.5 -68t-76.5 -70t-81.5 -80
t-79.5 -78.5q-70 -68 -196.5 -195t-202.5 -202t-173 -159t-169 -129l-3 6q42 41 77.5 85.5t73.5 106t60.5 101.5t70.5 130t72 134q112 203 230 339q-68 -70 -211 -223t-165 -177q-192 -203 -313 -322.5t-189 -160.5z" />
    <glyph glyph-name="X" unicode="X" horiz-adv-x="1266" 
d="M-48 -40q0 69 165 157q256 135 583 278q47 73 75 129q88 174 88 270q0 84 -57 136t-186 52q-94 0 -182 -34.5t-153.5 -90t-115.5 -124t-75.5 -138.5t-25.5 -131q0 -76 44 -123.5t127 -47.5q75 0 155.5 44.5t141 109t99.5 138t39 129.5q0 113 -119 113q-62 0 -121.5 -29.5
t-102 -75t-71 -99t-35.5 -103.5h-5q5 47 33.5 100.5t71.5 101t104.5 79t125.5 31.5q129 0 129 -129q0 -62 -35.5 -134.5t-93 -136t-140 -105.5t-166.5 -42q-90 0 -138 48.5t-48 129.5q0 61 26 132t76 140t116 125.5t155 91.5t184 35q138 0 200.5 -60t62.5 -162
q0 -150 -123 -344l78 34q70 103 153.5 197t173 170.5t181.5 121.5t169 45q36 0 57 -15t21 -40q0 -78 -164.5 -187.5t-532.5 -271.5q-98 -145 -158.5 -277.5t-60.5 -205.5q0 -85 92 -85q93 0 185 51t156 123.5t104 150.5t40 135q0 72 -72 72q-53 0 -114 -45t-109 -109
t-83.5 -131.5t-45.5 -115.5l-4 1q32 160 143 283t213 123q38 0 57.5 -21.5t19.5 -58.5q0 -45 -25 -105t-71.5 -122.5t-105.5 -115.5t-135.5 -86.5t-153.5 -33.5q-114 0 -114 120q0 78 48 190t130 234l-77 -33q-63 -99 -148.5 -189t-180.5 -161t-200 -113.5t-199 -42.5
q-32 0 -53.5 13t-21.5 40zM27 -87q161 0 346 134.5t322 339.5q-338 -148 -576 -275q-161 -88 -161 -151q0 -48 69 -48zM1515 983q-93 0 -206.5 -74t-214 -182.5t-193.5 -243.5q369 164 527.5 272t158.5 179q0 21 -18.5 35t-53.5 14z" />
    <glyph glyph-name="Y" unicode="Y" horiz-adv-x="906" 
d="M171 482h-5q0 56 31 119t78 114.5t109 85.5t119 34q91 0 91 -97q0 -93 -64 -198.5t-169.5 -179.5t-211.5 -74q-155 0 -155 175q0 86 44.5 180.5t120 175t190.5 133t242 52.5q126 0 186.5 -52t60.5 -130q0 -67 -44.5 -151t-132.5 -201q-26 -34 -74.5 -93.5t-74.5 -93.5
t-48.5 -73t-22.5 -63q0 -40 46 -40q81 0 219 126t293 335q90 148 119 191q18 0 44 2q-67 -105 -185.5 -295.5t-196.5 -314.5q-64 -102 -111 -169q62 -15 96.5 -48.5t34.5 -77.5q0 -59 -60 -113.5t-153 -54.5v5q91 0 149.5 53.5t58.5 109.5q0 42 -34.5 74.5t-95.5 46.5
q-152 -218 -282 -333.5t-248 -115.5q-33 0 -50.5 21t-17.5 58q0 41 20.5 90.5t64 101.5t103 95t145.5 70t182 27q30 0 44 -2l119 178q104 156 224 352q-139 -182 -269 -300t-213 -118q-58 0 -58 62q0 17 6 37t19.5 45t25 44.5t34 51t34.5 47t38.5 49.5t34.5 44
q100 130 151.5 217.5t51.5 150.5q0 19 -9.5 41.5t-32 48.5t-72.5 43t-119 17q-127 0 -241 -52.5t-189 -132.5t-118.5 -173.5t-43.5 -177.5q0 -169 147 -169q96 0 201.5 83t171 189.5t65.5 181.5q0 84 -82 84q-73 0 -151.5 -55t-129 -137t-50.5 -156zM582 -16q-96 0 -181 -27
t-143.5 -69.5t-101.5 -93.5t-63.5 -100t-20.5 -89q0 -35 16 -54.5t47 -19.5q101 0 218 115t270 336q-26 2 -41 2z" />
    <glyph glyph-name="Z" unicode="Z" horiz-adv-x="1378" 
d="M589 358l1 5h213q57 67 153.5 191t101.5 130h-14q-105 0 -105 75q0 27 10.5 73t10.5 78q0 76 -161 76q-95 0 -182.5 -31t-151 -80.5t-111 -110.5t-71 -122.5t-23.5 -114.5q0 -60 32 -95t95 -35q79 0 157.5 38t134 93.5t90 117t34.5 108.5q0 37 -22 59t-67 22
q-101 0 -190 -86.5t-114 -178.5l-4 1q9 37 36 82t66.5 87.5t94.5 71t112 28.5q51 0 76.5 -27.5t25.5 -73.5q0 -48 -31.5 -107t-85 -113.5t-137 -91t-176.5 -36.5q-65 0 -98.5 37t-33.5 99q0 54 24 116.5t72 124t112 111.5t152.5 81t184.5 31q194 0 194 -109q0 -22 -12 -69.5
t-12 -68.5q0 -55 77 -55h15q79 99 136.5 150t104.5 51q33 0 33 -26t-37 -65.5t-103 -74.5t-133 -40q-6 -7 -101.5 -130.5t-152.5 -190.5h167l-1 -5h-170q-214 -253 -409 -358q11 -5 67.5 -32t76 -35t63 -24t77 -21.5t68.5 -5.5q106 0 200.5 27.5t160.5 70.5t114.5 95.5
t71.5 103t23 92.5q0 44 -25.5 70.5t-73.5 26.5q-56 0 -118 -33t-113 -83.5t-91.5 -107t-62.5 -107.5l-4 2q21 54 56 108.5t83.5 107.5t114 86t135.5 33q50 0 77 -28.5t27 -74.5q0 -57 -40.5 -124t-110.5 -128t-183 -102t-241 -41q-127 0 -219.5 27t-178.5 74
q-138 -64 -277 -64q-79 0 -119 20.5t-40 53.5q0 36 47 66.5t130 30.5q122 0 299 -82q194 104 408 356h-209zM73 -82q137 0 271 62q-13 7 -51 28t-54 28.5t-45.5 20t-54.5 17t-52 4.5q-78 0 -123 -28.5t-45 -62.5q0 -30 39 -49.5t115 -19.5zM1303 885q-46 0 -101.5 -49
t-133.5 -146q52 4 103 26t84.5 50t54.5 55t21 43q0 21 -28 21z" />
    <glyph glyph-name="bracketleft" unicode="[" horiz-adv-x="350" 
d="M-98 -157l654 1032h138v-5h-102l-649 -1022h96v-5h-137z" />
    <glyph glyph-name="backslash" unicode="\" horiz-adv-x="356" 
d="M107 847l119 -1034q-4 2 -7 2l-118 1027l3 2q2 1 3 3z" />
    <glyph glyph-name="bracketright" unicode="]" horiz-adv-x="350" 
d="M614 875l-654 -1032h-138v5h102l649 1022h-96v5h137z" />
    <glyph glyph-name="asciicircum" unicode="^" horiz-adv-x="622" 
d="M244 558l-3 4q304 181 378 231q25 -150 44 -239l-5 -2q-10 32 -28.5 100.5t-27.5 100.5q-60 -33 -179.5 -97.5t-178.5 -97.5z" />
    <glyph glyph-name="underscore" unicode="_" horiz-adv-x="370" 
d="M-179 -117l4 14h377l-5 -14h-376z" />
    <glyph glyph-name="grave" unicode="`" horiz-adv-x="457" 
d="M293 449l-4 1l-1 122q9 -5 31 -10z" />
    <glyph glyph-name="a" unicode="a" horiz-adv-x="358" 
d="M213 342q33 0 33 -33q0 -12 -4 -23l30 47q25 0 39 2l-129 -203q-11 -17 -24 -36.5t-20.5 -30.5t-14 -22t-9.5 -18.5t-3 -13.5q0 -14 15 -14q76 0 234 198q2 2 4 0.5t0 -3.5q-158 -200 -239 -200q-28 0 -28 30q0 34 48 110l4 6q-116 -146 -184 -146q-30 0 -30 36
q0 33 19 80t45 83q31 44 102 97.5t112 53.5zM-35 -3q44 0 104 58.5t108 126.5l53 85q11 26 11 42q0 28 -29 28q-41 0 -106 -69t-112 -147t-47 -108q0 -16 18 -16z" />
    <glyph glyph-name="b" unicode="b" horiz-adv-x="265" 
d="M245 260q-36 -95 -119.5 -181.5t-152.5 -86.5q-34 0 -34 33q0 44 50 123l69 109l-59 -74q-2 -4 -6 -2q-1 1 1 4q64 78 94 119l276 435q22 0 38 2l-400 -631q-47 -74 -47 -96q0 -16 21 -16q64 0 144.5 83.5t119.5 180.5q-24 11 -24 44q0 15 7.5 25.5t18.5 10.5
q17 0 17 -24q0 -22 -14 -58z" />
    <glyph glyph-name="c" unicode="c" horiz-adv-x="268" 
d="M245 313q-2 24 -25 24q-41 0 -105.5 -63.5t-110.5 -138t-46 -108.5q0 -30 37 -30q58 0 131.5 54t143.5 144q2 2 4 0.5t-1 -4.5q-64 -83 -140 -141t-138 -58q-51 0 -51 50q0 61 37 121.5t96 106.5q94 72 143 72q30 0 30 -32q0 -17 -9.5 -31.5t-24.5 -14.5t-15 14
q0 15 22 24.5t22 10.5z" />
    <glyph glyph-name="d" unicode="d" horiz-adv-x="358" 
d="M213 342q33 0 33 -33q0 -12 -4 -23l288 453q22 0 38 2l-400 -631q-6 -9 -15 -23t-15.5 -24t-13 -20.5t-10 -18.5t-3.5 -13q0 -14 14 -14q77 0 235 198q2 2 4 0.5t0 -3.5q-158 -200 -240 -200q-27 0 -27 30q0 34 48 110l2 4q-114 -144 -182 -144q-30 0 -30 36q0 33 19 80
t45 83q31 44 102 97.5t112 53.5zM-35 -3q44 0 105 60t108 128l52 82q11 26 11 43q0 27 -29 27q-41 0 -106 -69t-112 -147t-47 -108q0 -16 18 -16z" />
    <glyph glyph-name="e" unicode="e" horiz-adv-x="256" 
d="M-57 40q0 60 35 119t81.5 97.5t89.5 62t64 23.5q22 0 22 -17q0 -34 -70 -89t-149 -82q-57 -88 -57 -129q0 -28 35 -28q109 0 264 198q2 2 4 0.5t-1 -4.5q-155 -199 -266 -199q-52 0 -52 48zM215 337q-35 0 -91 -53t-103 -123q79 28 144 81.5t65 82.5q0 12 -15 12z" />
    <glyph glyph-name="f" unicode="f" horiz-adv-x="194" 
d="M5 304l-1 5q41 13 124 18q123 192 212.5 291t135.5 99q24 0 24 -23q0 -54 -99.5 -158.5t-234.5 -206.5q31 1 105 1v-5q-78 0 -109 -1l-52 -87q-106 -180 -189.5 -306t-141.5 -199.5t-107.5 -113.5t-83 -52t-72.5 -12q-36 0 -61 19l3 4q27 -18 58 -18q58 0 119 54
t161 196.5t284 440.5q22 38 45 72q-70 -4 -120 -18zM477 711q-38 0 -123 -108.5t-182 -263.5q128 100 225.5 201.5t97.5 153.5q0 17 -18 17z" />
    <glyph glyph-name="g" unicode="g" horiz-adv-x="353" 
d="M213 342q33 0 33 -33q0 -12 -4 -23l30 47q23 0 39 2q-45 -71 -130 -208.5t-128 -206.5q6 5 34.5 25.5t38.5 28t34.5 26t38.5 31t35 31t39 37.5t35 39q10 12 47 57q1 2 3 0.5t1 -3.5q-35 -43 -49 -59q-53 -61 -110 -108t-153 -115q-125 -196 -229.5 -315t-161.5 -119
q-30 0 -30 29q0 90 355 361q100 152 166 270q-114 -144 -182 -144q-30 0 -30 36q0 33 19 80t45 83q31 44 102 97.5t112 53.5zM-35 -3q46 0 109.5 64t109.5 132l46 74q11 26 11 42q0 28 -29 28q-41 0 -106 -69t-112 -147t-47 -108q0 -16 18 -16zM-345 -519q78 0 319 374
q-343 -261 -343 -350q0 -24 24 -24z" />
    <glyph glyph-name="h" unicode="h" horiz-adv-x="378" 
d="M260 342q34 0 34 -35q0 -43 -75 -151q-4 -6 -22.5 -32t-26 -37t-19 -29.5t-16.5 -29.5t-5 -18q0 -13 16 -13q76 0 234 198q2 2 4 0.5t0 -3.5q-158 -200 -238 -200q-13 0 -22.5 8t-9.5 24q0 43 80 159q9 13 24 34.5t24 34.5t18.5 28t14 25t4.5 17q0 15 -20 15
q-27 0 -61 -21t-70.5 -60t-60.5 -68t-55 -70l-74 -117q-18 0 -38 -2l187 295q-16 -21 -88 -111q-2 -4 -6 -2q-1 1 1 4q115 142 177 240l199 314q22 0 38 2l-368 -580q143 181 220 181z" />
    <glyph glyph-name="i" unicode="i" horiz-adv-x="187" 
d="M-46 -8q-28 0 -28 30q0 34 48 110l61 97q-13 -18 -37 -47q-2 -2 -4 -1t0 4q54 68 91 122l16 26q25 0 39 2l-143 -225q-5 -8 -15 -23t-16 -24.5t-13 -20.5t-10 -18.5t-3 -12.5q0 -14 15 -14q76 0 234 198q1 2 3 0.5t1 -3.5q-158 -200 -239 -200zM207 511q19 0 19 -18
q0 -14 -11 -27t-27 -13q-18 0 -18 18q0 14 11 27t26 13z" />
    <glyph glyph-name="j" unicode="j" horiz-adv-x="182" 
d="M188 192q-35 -43 -49 -59q-53 -62 -111.5 -109.5t-151.5 -113.5q-125 -196 -229.5 -315t-161.5 -119q-30 0 -30 29q0 90 355 361q52 81 93 148q18 30 35.5 59t26.5 43.5t9 15.5l61 97q-13 -18 -37 -47q-2 -2 -4 -1t0 4q54 68 91 122l16 26q23 0 39 2q-147 -232 -191 -307
q-33 -56 -66 -108q63 46 93 68.5t77 64t84 85.5q10 12 47 57q2 2 4 0.5t0 -3.5zM-516 -519q78 0 319 374q-343 -261 -343 -350q0 -24 24 -24zM207 511q19 0 19 -18q0 -14 -11 -27t-27 -13q-18 0 -18 18q0 14 11 27t26 13z" />
    <glyph glyph-name="k" unicode="k" horiz-adv-x="357" 
d="M125 -3q76 0 234 198q1 2 3 0.5t1 -3.5q-158 -200 -238 -200q-33 0 -33 32q0 30 24 70q8 13 20.5 30t19.5 27.5t7 15.5q0 13 -30 13q-5 -1 -15 -1v4q49 0 99.5 47.5t50.5 88.5q0 17 -15 17q-78 0 -242 -218l-74 -117q-17 0 -37 -2l187 295q-16 -21 -88 -111q-2 -4 -6 -2
q-1 1 1 4q94 117 143 188l233 366q21 0 37 2l-370 -582q142 183 218 183q38 0 38 -36q0 -43 -45 -77.5t-98 -45.5q26 -5 26 -28q0 -29 -33 -81q-35 -54 -35 -65q0 -12 17 -12z" />
    <glyph glyph-name="l" unicode="l" horiz-adv-x="187" 
d="M-6 185q68 88 92 124l15 23l258 407q22 0 38 2l-400 -631q-6 -9 -15 -23t-15.5 -24t-13 -20.5t-10 -18.5t-3.5 -13q0 -14 14 -14q77 0 235 198q1 2 3 0.5t1 -3.5q-158 -200 -240 -200q-27 0 -27 30q0 34 48 110l62 99l-38 -49q-2 -2 -4 -1t0 4z" />
    <glyph glyph-name="m" unicode="m" horiz-adv-x="617" 
d="M330 337q-86 0 -252 -219l-74 -117q-12 0 -38 -2l136 215q5 8 16 25t17.5 27t14 23t11 22t3.5 14q0 12 -15 12q-8 0 -15 -2.5t-16 -10t-16.5 -14.5t-20 -22.5t-22 -28t-28 -36t-33.5 -41.5q-2 -2 -4 -1t0 4q80 103 106 130t51 27q26 0 26 -30q0 -38 -41 -103l-30 -47
q146 180 224 180q31 0 31 -32q0 -8 -3 -18t-9.5 -23t-12 -23.5t-16.5 -27.5t-17 -25t-19 -27t-16 -24q155 200 232 200q33 0 33 -33q0 -40 -70 -146q-10 -14 -25.5 -36.5t-26 -37.5t-21 -31.5t-16 -28t-5.5 -18.5q0 -14 16 -14q76 0 234 198q1 2 3 0.5t1 -3.5
q-158 -200 -238 -200q-31 0 -31 32q0 44 79 159q9 13 24 34.5t24 34t18.5 28t14 26t4.5 17.5q0 14 -19 14q-26 0 -59 -21t-71 -62.5t-59.5 -67.5t-55.5 -70l-72 -115q-18 0 -38 -2l99 157q10 14 28 40t29 42.5t23 35.5t18 31.5t6 18.5q0 13 -17 13z" />
    <glyph glyph-name="n" unicode="n" horiz-adv-x="444" 
d="M136 209l-31 -48q145 181 221 181q34 0 34 -35q0 -43 -75 -151q-4 -6 -22.5 -32t-26 -37t-19 -29.5t-16.5 -29.5t-5 -18q0 -13 16 -13q76 0 234 198q2 2 4 0.5t0 -3.5q-158 -200 -238 -200q-13 0 -22.5 8t-9.5 24q0 43 80 159q9 13 24 34.5t24 34.5t18.5 28t14 25t4.5 17
q0 15 -20 15q-83 0 -248 -221l-73 -115q-12 0 -38 -2l136 215q5 8 16 25t17.5 27t14 23t11 22t3.5 14q0 12 -15 12q-8 0 -15 -2.5t-16 -10t-16.5 -14.5t-20 -22.5t-22 -28t-28 -36t-33.5 -41.5q-2 -2 -4 -1t0 4q81 104 106.5 130.5t50.5 26.5q27 0 27 -29q0 -38 -42 -104z
" />
    <glyph glyph-name="o" unicode="o" horiz-adv-x="255" 
d="M-2 191q28 40 98 95.5t110 55.5q36 0 36 -37q0 -47 -40.5 -121.5t-102 -133t-111.5 -58.5q-46 0 -46 54q0 67 56 145zM207 337q-35 0 -96 -62.5t-107 -138.5t-46 -113q0 -26 31 -26q62 0 139 91t101 175q-19 9 -19 30q0 24 23 30q-6 14 -26 14z" />
    <glyph glyph-name="p" unicode="p" horiz-adv-x="376" 
d="M144 -8q-13 0 -22.5 8t-9.5 24q0 43 80 159q9 13 24 34.5t24 34.5t18.5 28t14 25t4.5 17q0 15 -20 15q-80 0 -243 -214l-362 -569q-24 0 -40 -3l468 733l-81 -101q-2 -4 -6 -2q-1 1 1 4q93 114 134 176l81 126q22 0 38 2l-206 -323q140 176 217 176q34 0 34 -35
q0 -43 -75 -151q-4 -6 -22.5 -32t-26 -37t-19 -29.5t-16.5 -29.5t-5 -18q0 -13 16 -13q76 0 234 198q2 2 4 0.5t0 -3.5q-158 -200 -238 -200z" />
    <glyph glyph-name="q" unicode="q" horiz-adv-x="296" 
d="M213 342q33 0 33 -34q0 -10 -3 -20l29 45q22 0 38 2l-497 -781q-23 0 -40 -3l368 577q-111 -136 -176 -136q-30 0 -30 36q0 33 19 80t45 83q31 44 102 97.5t112 53.5zM-35 -3q41 0 97.5 53t105.5 120l64 100q9 23 9 37q0 30 -29 30q-41 0 -106 -69t-112 -147t-47 -108
q0 -16 18 -16z" />
    <glyph glyph-name="r" unicode="r" horiz-adv-x="261" 
d="M29 -8q-11 0 -20.5 7.5t-9.5 24.5q0 11 3.5 23t7.5 21.5t13 24.5t14 22t17 24.5t16 22.5q40 58 53.5 81.5t13.5 41.5q0 13 -25 47q-37 -55 -114 -150q-2 -2 -4 -1t0 4q80 99 115 152q-6 12 -6 19q0 21 12.5 34.5t24.5 13.5q10 0 10 -9q0 -11 -35 -59l15 -21
q21 -29 21 -53q0 -44 -65 -135q-5 -8 -17 -24t-20 -27.5t-17 -25t-14 -23.5t-5 -16q0 -14 16 -14q76 0 234 198q1 2 3 0.5t1 -3.5q-158 -200 -238 -200z" />
    <glyph glyph-name="s" unicode="s" horiz-adv-x="251" 
d="M-41 -8q-25 0 -34 1q-27 3 -44.5 19.5t-17.5 44.5q0 21 9.5 31.5t21.5 10.5t12 -10q0 -13 -36 -44q2 -19 18.5 -33t44.5 -14q36 0 88 54q46 46 78.5 110t32.5 117q0 33 -12 59q-18 -24 -121 -155q-3 -4 -5 -2t0 4q48 59 124 158q-6 13 -6 28q0 12 7.5 22.5t18.5 10.5
q14 0 14 -13q0 -16 -29 -49q20 -44 20 -99q0 -86 -47 -157t-122 -89q116 9 215 122q32 36 64 76q1 2 3 0.5t1 -3.5q-45 -55 -65 -77q-109 -123 -233 -123z" />
    <glyph glyph-name="t" unicode="t" horiz-adv-x="187" 
d="M-6 185q69 88 107 147l35 55h-77v5h80l59 93q22 0 38 2l-60 -95h75v-5h-78l-176 -277q-6 -10 -18.5 -28t-19.5 -29t-13 -23t-6 -19q0 -14 14 -14q77 0 235 198q1 2 3 0.5t1 -3.5q-158 -200 -240 -200q-27 0 -27 30q0 34 48 110l63 99l-39 -49q-2 -2 -4 -1t0 4z" />
    <glyph glyph-name="u" unicode="u" horiz-adv-x="368" 
d="M88 312l13 21q19 0 39 2l-60 -94q-19 -31 -57.5 -89t-57.5 -91t-19 -47q0 -17 25 -17q27 0 59.5 21t69 62.5t57 68t53.5 71.5l72 113q25 0 39 2l-143 -225q-5 -8 -15 -23t-16 -24.5t-13 -20.5t-10 -18.5t-3 -12.5q0 -14 15 -14q76 0 234 198q2 2 4 0.5t0 -3.5
q-158 -200 -239 -200q-28 0 -28 30q0 34 48 110l23 37q-61 -80 -112.5 -128.5t-96.5 -48.5q-39 0 -39 34q0 20 11.5 47.5t25 49t37 56.5t33.5 52l-39 -49q-2 -2 -4 -1t0 4q59 75 94 127z" />
    <glyph glyph-name="v" unicode="v" horiz-adv-x="342" 
d="M327 271q-31 -92 -117 -185.5t-157 -93.5q-33 0 -33 31q0 36 40.5 101.5t81 123t40.5 75.5q0 14 -16 14q-27 0 -63 -34t-105 -121q-2 -2 -4 -1t0 4q70 88 107 122.5t65 34.5q15 0 23 -8.5t8 -20.5q0 -38 -40.5 -104t-81.5 -123.5t-41 -74.5q0 -14 20 -14q64 0 144.5 84.5
t119.5 180.5q-24 11 -24 44q0 15 7.5 25.5t18.5 10.5q17 0 17 -24q0 -20 -10 -47z" />
    <glyph glyph-name="w" unicode="w" horiz-adv-x="494" 
d="M479 271q-32 -92 -117 -185.5t-152 -93.5q-31 0 -31 30q0 39 40 102l15 23q-52 -65 -104 -110t-84 -45q-28 0 -28 31q0 36 41 101t82 122t41 76q0 15 -16 15q-27 0 -63 -34t-105 -121q-2 -2 -4 -1t0 4q70 88 107 122.5t66 34.5q14 0 22 -9t8 -20q0 -32 -26 -80.5
t-56.5 -89t-56.5 -79t-26 -53.5q0 -14 15 -14q37 0 104.5 64.5t119.5 145.5q71 113 79 124q30 0 40 2l-143 -222q-53 -81 -53 -99q0 -6 4.5 -10.5t10.5 -4.5q65 0 146 88.5t115 176.5q-24 11 -24 44q0 15 7.5 25.5t18.5 10.5q17 0 17 -24q0 -20 -10 -47z" />
    <glyph glyph-name="x" unicode="x" horiz-adv-x="408" 
d="M-60 22q0 17 10 31t24 14q12 0 12 -12q0 -15 -20.5 -24t-20.5 -10q0 -24 27 -24q36 0 95 63t103.5 137.5t44.5 109.5q0 30 -33 30q-21 0 -42.5 -10.5t-47 -36t-43.5 -46.5t-51 -62q-2 -2 -4 -1t0 4q33 42 50 62t44 46.5t49.5 37.5t45.5 11q45 0 45 -50q0 -22 -10 -52
q91 102 141 102q32 0 32 -32q0 -16 -8.5 -29t-21.5 -13q-14 0 -14 13q0 14 19.5 22.5t19.5 9.5q0 24 -26 24q-31 0 -87.5 -66.5t-99.5 -141.5t-43 -103q0 -29 35 -29q49 0 108 50t137 148q2 2 4 0.5t0 -3.5q-34 -42 -57.5 -68.5t-59 -61.5t-69 -52.5t-63.5 -17.5
q-50 0 -50 52q0 23 9 48q-40 -44 -81.5 -72t-68.5 -28q-34 0 -34 30z" />
    <glyph glyph-name="y" unicode="y" horiz-adv-x="445" 
d="M451 192q-35 -43 -49 -59q-53 -61 -110.5 -108.5t-152.5 -114.5q-125 -196 -229.5 -315t-161.5 -119q-30 0 -30 29q0 90 355 361q56 88 96 153t65 106.5t34 56.5q-149 -190 -229 -190q-34 0 -34 33q0 35 41.5 100t83 122.5t41.5 74.5q0 15 -15 15q-24 0 -48 -24t-79 -92
q-6 -8 -10 -12.5t-10 -12t-11 -14.5q-2 -2 -4 -1t0 4q43 55 59.5 74.5t39.5 44.5t35.5 31.5t27.5 6.5q14 0 21.5 -8.5t7.5 -21.5q0 -31 -26 -79t-56.5 -88.5t-56.5 -79t-26 -54.5q0 -14 19 -14q83 0 257 229l68 107q23 0 39 2q-147 -232 -191 -307q-15 -26 -67 -108
q64 46 94.5 69t75.5 63t83 84q15 17 49 59q1 2 3 0.5t1 -3.5zM-253 -519q78 0 319 374q-343 -261 -343 -350q0 -24 24 -24z" />
    <glyph glyph-name="z" unicode="z" horiz-adv-x="351" 
d="M-2 182q-2 -4 -4 -1.5t0 4.5q37 46 81 114q-5 7 -5 21q0 22 14.5 42t35.5 20q15 0 15 -15t-23.5 -36t-27.5 -29q2 -9 17 -9q14 0 64 18.5t77 18.5q42 0 42 -35q0 -39 -42.5 -75t-91 -56.5t-101.5 -34.5q31 -9 47.5 -28t16.5 -57q0 -35 -13 -79q76 49 128.5 94.5
t124.5 135.5q2 2 4 0.5t0 -3.5q-49 -64 -95.5 -109.5t-76 -66.5t-88.5 -60q-35 -105 -133 -218.5t-213.5 -187.5t-198.5 -74q-38 0 -38 31q0 34 49 91t139 118q62 43 186 117.5t173 106.5q42 78 42 118q0 30 -16 45t-45 24v4q80 28 154.5 85.5t74.5 88.5q0 19 -29 19
q-27 0 -77.5 -18t-64.5 -18q-13 0 -21 8q-49 -79 -81 -114zM-447 -518q58 0 132 44t143 112t128.5 144.5t98.5 146.5q-32 -21 -156 -95.5t-194 -122.5q-83 -55 -134 -113.5t-51 -90.5q0 -25 33 -25z" />
    <glyph glyph-name="braceleft" unicode="{" horiz-adv-x="420" 
d="M87 -157q-62 0 -62 52q0 43 35.5 108t78.5 120t78.5 110t35.5 80q0 53 -100 75l1 7q90 9 140.5 28t72.5 43t53 76q14 24 34 66t35.5 74.5t40 70.5t49 63t60 42t76.5 17h38l-1 -5h-26q-41 0 -69 -16t-67.5 -71t-94.5 -165q-37 -70 -67.5 -110.5t-71.5 -65t-82 -34
t-116 -17.5q35 -8 58 -20t31.5 -24.5t11 -20.5t2.5 -18q0 -42 -38 -109.5t-125 -194.5q-39 -57 -48 -78.5t-9 -45.5q0 -32 49 -32h20l-1 -5h-22z" />
    <glyph glyph-name="bar" unicode="|" horiz-adv-x="340" 
d="M541 844l-652 -1029q-3 3 -7 3l651 1025q5 0 8 1z" />
    <glyph glyph-name="braceright" unicode="}" horiz-adv-x="420" 
d="M446 875h22q62 0 62 -52q0 -43 -35.5 -108t-78.5 -120t-78.5 -110t-35.5 -80q0 -53 100 -75l-1 -7q-90 -9 -140.5 -28t-72.5 -43t-53 -76q-14 -24 -34 -66t-35.5 -74.5t-40 -70.5t-49 -63t-60 -42t-76.5 -17h-38l1 5h26q40 0 68.5 16.5t67.5 71t95 164.5q36 70 66.5 111
t72 65t82.5 33.5t116 17.5q-35 8 -58 19.5t-31.5 24.5t-11 21t-2.5 18q0 42 38 109.5t125 194.5q39 57 48 78.5t9 45.5q0 32 -49 32h-20z" />
    <glyph glyph-name="asciitilde" unicode="~" horiz-adv-x="734" 
d="M57 143l-4 3q38 51 77 77t92 26q43 0 153.5 -47.5t152.5 -47.5q57 0 125 88l4 -3q-40 -53 -77.5 -78.5t-89.5 -25.5q-48 0 -108 24t-114 48t-86 24q-59 0 -125 -88z" />
    <glyph glyph-name="uni00A0" unicode="&#xa0;" horiz-adv-x="187" 
 />
    <glyph glyph-name="exclamdown" unicode="&#xa1;" horiz-adv-x="306" 
d="M127 143l4 -3q-135 -219 -246 -408q-25 0 -42 -3q28 41 89 127.5t107 153.5t88 133zM216 306q0 14 10 25t23 11q15 0 15 -13q0 -17 -11 -28t-21 -11q-16 0 -16 16z" />
    <glyph glyph-name="cent" unicode="&#xa2;" horiz-adv-x="318" 
d="M26 -72l-5 3l37 61h-4q-61 0 -61 63q0 38 16 75q32 73 115.5 148.5t147.5 75.5h7l38 62l5 -3l-37 -61q31 -7 31 -38q0 -15 -8.5 -29t-22.5 -14q-15 0 -15 16q0 11 8.5 18.5t16.5 9.5q10 2 12.5 5t0.5 10q-7 15 -26 18l-214 -350q45 4 96.5 40.5t92.5 90.5l4 -3
q-44 -58 -96 -93.5t-100 -39.5zM6 41q0 -44 51 -44h4l215 352h-4q-42 0 -106.5 -61.5t-112 -135.5t-47.5 -111z" />
    <glyph glyph-name="sterling" unicode="&#xa3;" horiz-adv-x="665" 
d="M219 183l1 5h140l26 42h-7q-73 0 -112.5 30.5t-39.5 72.5q0 38 31.5 65.5t85.5 27.5h13v-5h-12q-46 0 -73.5 -26.5t-27.5 -62.5q0 -40 34.5 -68.5t100.5 -28.5h10q113 176 187 176q34 0 34 -30q0 -39 -54 -87.5t-135 -60.5q-4 -9 -30 -45h91l-1 -5h-94
q-80 -114 -173 -157q11 -2 48.5 -11.5t67 -14t57.5 -4.5q99 0 161 50t62 95q0 28 -30 28q-37 0 -83 -45.5t-64 -92.5l-4 2q18 58 60.5 100t87.5 42q38 0 38 -34q0 -49 -64.5 -99.5t-163.5 -50.5q-90 0 -194 26q-64 -26 -146 -26q-95 0 -95 29q0 13 19.5 23t51.5 10
q74 0 176 -24q83 42 157 154h-137zM579 406q-9 0 -17.5 -2.5t-17.5 -8.5t-16 -12t-16.5 -18t-16 -20t-17 -24t-17 -25.5t-18.5 -28.5t-18 -29q76 12 128 58.5t52 84.5q0 25 -26 25zM47 -4q75 0 132 24q-104 27 -163 27q-25 0 -42 -8t-17 -18q0 -25 90 -25z" />
    <glyph glyph-name="currency" unicode="&#xa4;" horiz-adv-x="353" 
d="M70 158q0 61 49 107l-26 41l5 3l26 -40q37 32 80 32q38 0 61 -25l32 33l4 -4l-32 -33q20 -28 20 -65q0 -67 -54 -114l22 -35l-4 -3l-23 34q-33 -27 -74 -27t-64 26l-33 -33l-4 4l33 34q-18 26 -18 65zM203 296q-49 0 -88 -43.5t-39 -94.5q0 -38 20 -64.5t61 -26.5
q49 0 87.5 43.5t38.5 94.5q0 38 -19.5 64.5t-60.5 26.5z" />
    <glyph glyph-name="yen" unicode="&#xa5;" horiz-adv-x="511" 
d="M227 98l1 5h115l90 144q-81 -99 -141 -99q-26 0 -26 24q0 35 54 106.5t54 100.5q0 22 -19 41.5t-67 19.5q-92 0 -159 -67.5t-67 -135.5q0 -28 15 -45.5t43 -17.5q48 0 100.5 63.5t52.5 108.5q0 28 -29 28q-41 0 -79.5 -42.5t-42.5 -87.5h-4q3 47 44 91t84 44q36 0 36 -41
q0 -52 -49.5 -111t-112.5 -59q-30 0 -46.5 19.5t-16.5 49.5q0 70 68.5 139t161.5 69q48 0 71.5 -20.5t23.5 -50.5q0 -36 -17 -71.5t-37 -58t-37 -44.5t-17 -33q0 -14 17 -14q29 0 75 35t92 101q35 56 37 59q20 0 27 1q-26 -39 -77.5 -124.5t-73.5 -121.5h78l-1 -5h-80
q-15 -22 -30 -42h81l-1 -5h-83q-111 -146 -222 -146q-51 0 -78.5 24t-27.5 61q0 38 29 66t74 28q19 0 31 -8t12 -19q0 -14 -15 -14q-12 0 -14 19q-2 16 -17 16q-42 0 -68.5 -26t-26.5 -62q0 -35 26 -57t73 -22q53 0 98.5 32t99.5 108h-112l1 5h114l28 42h-113z" />
    <glyph glyph-name="brokenbar" unicode="&#xa6;" horiz-adv-x="833" 
d="M541 844l-264 -417q-3 1 -9 -1l265 417q5 0 8 1zM148 224l-259 -409q-6 3 -7 3l257 405q6 0 9 1z" />
    <glyph glyph-name="section" unicode="&#xa7;" horiz-adv-x="706" 
d="M-14 -381q173 0 173 236q0 33 -4 126.5t-4 148.5q0 33 1 50q1 27 6 55.5t20.5 66t38.5 65.5t64 48t94 20q76 0 126 -50q6 -6 10 -6q6 0 6 16q0 37 -3.5 121.5t-3.5 121.5q0 41 5 77.5t19 75t36 66t60.5 45.5t88.5 18q65 0 102.5 -41t37.5 -94q0 -25 -14 -47.5t-38 -22.5
q-13 0 -20.5 7.5t-7.5 18.5q0 12 9.5 22.5t25.5 14.5q36 8 36 26q0 10 -5 26q-3 9 -9 19.5t-19.5 27t-39 27t-58.5 10.5q-84 0 -129.5 -60.5t-45.5 -175.5q0 -33 4.5 -126t4.5 -148q0 -34 -1 -50q-1 -27 -6 -55.5t-20.5 -66t-38.5 -65.5t-64.5 -48t-94.5 -20q-78 0 -128 52
q-4 4 -8 4q-6 0 -6 -16q0 -38 3.5 -128.5t3.5 -148.5q-1 -20 -3.5 -40t-9.5 -51t-21.5 -56.5t-36 -49.5t-56.5 -37.5t-80 -13.5q-65 0 -102.5 41.5t-37.5 93.5q0 25 13.5 47.5t38.5 22.5q13 0 20.5 -7.5t7.5 -18.5q0 -12 -9.5 -22.5t-25.5 -14.5q-36 -8 -36 -26q0 -10 5 -26
q2 -8 9 -19.5t21 -27.5t39 -27t57 -11zM517 330q0 26 -13 42q-46 56 -129 56q-33 0 -62 -10t-58 -33t-47.5 -69.5t-20.5 -111.5v-4q0 -23 12 -37q19 -24 54 -40.5t76 -16.5q33 0 61.5 9.5t57.5 32t47.5 69t21.5 113.5z" />
    <glyph glyph-name="dieresis" unicode="&#xa8;" horiz-adv-x="457" 
d="M291 510q18 0 18 -17q0 -13 -10.5 -25t-24.5 -12q-17 0 -17 17q0 12 10 24.5t24 12.5zM396 510q18 0 18 -17q0 -13 -10.5 -25t-24.5 -12q-17 0 -17 17q0 12 10 24.5t24 12.5z" />
    <glyph glyph-name="copyright" unicode="&#xa9;" horiz-adv-x="557" 
d="M572 535q0 -79 -61 -141.5t-157 -62.5q-70 0 -115.5 42.5t-45.5 106.5q0 87 64 146.5t149 59.5q76 0 121 -43t45 -108zM554 536q0 61 -41.5 97.5t-109.5 36.5q-76 0 -134 -56t-58 -133q0 -61 41.5 -97.5t105.5 -36.5q82 0 139 57t57 132zM342 415q49 0 87 42l4 -4
q-40 -44 -92 -44q-62 0 -62 57q0 27 14 55q19 37 56.5 63.5t76.5 26.5q14 0 27 -3.5t15 -3.5q9 0 17 8l5 -2q-12 -17 -28 -59h-6q0 3 1 14t1 15q0 12 -6 18.5t-25 6.5q-44 0 -85 -53.5t-41 -98.5q0 -38 41 -38z" />
    <glyph glyph-name="ordfeminine" unicode="&#xaa;" horiz-adv-x="312" 
d="M283 476q22 0 22 -18q0 -4 -1 -7l13 20q20 0 28 2l-80 -123q-34 -49 -34 -55q0 -5 6 -5q20 0 53.5 24.5t65.5 63.5l4 -4q-31 -38 -66 -63.5t-57 -25.5q-16 0 -16 16q0 17 19 49q-57 -65 -92 -65q-18 0 -18 22q0 48 33 89q20 24 58.5 52t61.5 28zM150 291q25 0 57.5 31
t57.5 67l30 47q5 10 5 21q0 14 -17 14q-33 0 -87.5 -72t-54.5 -100q0 -8 9 -8zM77 247l1 5h155l-1 -5h-155z" />
    <glyph glyph-name="guillemotleft" unicode="&#xab;" horiz-adv-x="534" 
d="M300 300l2 -4l-199 -109l125 -136l-3 -4q-4 3 -60.5 52.5t-82.5 68.5q2 11 1 18zM468 300l2 -4l-199 -109l125 -136l-3 -4q-4 3 -60.5 52.5t-82.5 68.5q2 11 1 18z" />
    <glyph glyph-name="logicalnot" unicode="&#xac;" horiz-adv-x="402" 
d="M43 207l4 14h325l-95 -148l-13 7l82 127h-303z" />
    <glyph glyph-name="uni00AD" unicode="&#xad;" horiz-adv-x="373" 
d="M78 204l3 15h191l-3 -15h-191z" />
    <glyph glyph-name="registered" unicode="&#xae;" horiz-adv-x="557" 
d="M572 535q0 -79 -61 -141.5t-157 -62.5q-70 0 -115.5 42.5t-45.5 106.5q0 87 64 146.5t149 59.5q76 0 121 -43t45 -108zM554 536q0 61 -41.5 97.5t-109.5 36.5q-76 0 -134 -56t-58 -133q0 -61 41.5 -97.5t105.5 -36.5q82 0 139 57t57 132zM469 574q0 -54 -86 -54
q30 -5 43 -48l4 -15q6 -22 12 -28t19 -6h8l-1 -5h-14q-23 0 -33.5 7.5t-16.5 34.5l-5 22q-5 22 -10.5 28.5t-20.5 6.5h-12l-36 -71q-6 -12 -6 -16q0 -7 25 -7h9l-1 -5h-100l1 5h7q17 0 25.5 5.5t17.5 22.5l62 122q10 19 10 25q0 9 -19 9h-14l1 5h76q55 0 55 -38zM395 594
l-36 -71h11q75 0 75 54q0 30 -30 30q-13 0 -20 -13z" />
    <glyph glyph-name="macron" unicode="&#xaf;" horiz-adv-x="457" 
d="M183 487l3 12h232l-3 -12h-232z" />
    <glyph glyph-name="degree" unicode="&#xb0;" horiz-adv-x="249" 
d="M212 446q-28 0 -47 -22.5t-19 -47.5q0 -40 42 -40q29 0 48.5 22t19.5 48q0 17 -11 28.5t-33 11.5zM188 330q-24 0 -36.5 13t-12.5 33q0 28 21 52t53 24q25 0 37.5 -13t12.5 -33q0 -28 -21 -52t-54 -24z" />
    <glyph glyph-name="plusminus" unicode="&#xb1;" horiz-adv-x="402" 
d="M49 219l5 14h160l96 150l12 -8l-91 -142h147l-5 -14h-151l-86 -136l-13 7l82 129h-156zM-53 0l5 14h324l-5 -14h-324z" />
    <glyph glyph-name="twosuperior" unicode="&#xb2;" horiz-adv-x="340" 
d="M111 258l-3 3l-2 3q22 30 63 59q5 3 26 17t37.5 26t35.5 27t30 29t11 25q0 24 -36 24q-33 0 -59.5 -18t-26.5 -39q0 -16 19 -16q26 0 51 27l3 -3q-24 -29 -54 -29q-24 0 -24 21q0 23 28 42.5t65 19.5q26 0 39.5 -11t13.5 -28q0 -26 -20 -43t-66.5 -39t-69.5 -37
q-31 -20 -54 -47q44 39 78 39q24 0 24 -17q0 -6 -5 -15t-5 -13t4 -4q23 0 48.5 21.5t40.5 46.5l4 -3q-16 -26 -42.5 -48t-52.5 -22t-26 15q0 8 5.5 17t5.5 11q0 5 -6 5q-14 0 -37 -13t-43 -33z" />
    <glyph glyph-name="threesuperior" unicode="&#xb3;" horiz-adv-x="340" 
d="M160 263q33 0 67 36.5t34 63.5v3q-16 -2 -24 -2q-16 0 -16 9q0 13 20 13q16 0 25 -9q17 10 29 28.5t12 37.5q0 11 -9 19.5t-29 8.5q-29 0 -49 -15.5t-20 -31.5q0 -15 16 -15q25 0 46 25l3 -3q-19 -27 -50 -27q-20 0 -20 20q0 18 21.5 35t54.5 17q28 0 42 -12t14 -29
q0 -21 -15 -39t-40 -26q6 -10 6 -23q0 -33 -31 -62t-84 -29q-23 0 -35 11.5t-12 28.5q0 19 14.5 34t37.5 15q12 0 25 -5l-2 -5q-12 5 -23 5q-21 0 -33.5 -13.5t-12.5 -29.5q0 -15 10 -24.5t28 -9.5zM238 369q12 0 21 4q-5 8 -18 8q-14 0 -14 -7q0 -5 11 -5z" />
    <glyph glyph-name="acute" unicode="&#xb4;" horiz-adv-x="457" 
d="M342 454h-5l72 97q29 0 45 3z" />
    <glyph glyph-name="mu" unicode="&#xb5;" horiz-adv-x="423" 
d="M-192 -213q347 544 348 546q19 0 39 2q-44 -70 -141 -220q-53 -83 -53 -100q0 -18 24 -18q26 0 56.5 19t65 57t54.5 63.5t53 69.5l26 37l57 90q25 0 39 2l-143 -225q-5 -8 -15 -23t-16 -24.5t-13 -20.5t-10 -18.5t-3 -12.5q0 -14 15 -14q76 0 234 198q1 2 3 0.5t1 -3.5
q-158 -200 -239 -200q-28 0 -28 30q0 34 48 110l23 37q-61 -80 -112.5 -128.5t-96.5 -48.5q-34 0 -34 21l-137 -216q-26 0 -45 -10z" />
    <glyph glyph-name="paragraph" unicode="&#xb6;" horiz-adv-x="647" 
d="M762 757l-3 2q-104 -120 -167.5 -174t-114.5 -54q-35 0 -54 23.5t-19 61.5q0 37 17.5 78.5t58 84.5t97.5 77.5t145 56.5t191 22q46 0 123 -7l-1 -7q-70 0 -132 -39q-52 -33 -108.5 -96t-120 -157.5t-119.5 -185.5t-138.5 -225t-145.5 -230q-311 -474 -601 -474
q-91 0 -142 50.5t-51 122.5q0 88 75 156t208 68q33 0 62 -4l-1 -5q-29 4 -64 4q-130 0 -202.5 -66.5t-72.5 -152.5q0 -69 47.5 -116.5t132.5 -47.5q91 0 192 65.5t189 166t188.5 239t182 267t178.5 269.5t170 227z" />
    <glyph glyph-name="periodcentered" unicode="&#xb7;" horiz-adv-x="145" 
d="M100 199q0 -14 -10 -25t-23 -11q-15 0 -15 13q0 17 11 28t21 11q16 0 16 -16z" />
    <glyph glyph-name="cedilla" unicode="&#xb8;" horiz-adv-x="457" 
d="M87 -54l45 51h7l-40 -46q52 -9 52 -50q0 -25 -22 -45t-57 -20q-31 0 -56 14l1 3q22 -11 48 -11q27 0 45.5 18t18.5 40q0 36 -42 46z" />
    <glyph glyph-name="onesuperior" unicode="&#xb9;" horiz-adv-x="318" 
d="M84 335l-2 5q157 83 212 138q5 0 7 1q-107 -173 -131 -215q-16 0 -41 -5q22 31 74 97t78 103q-55 -48 -197 -124z" />
    <glyph glyph-name="ordmasculine" unicode="&#xba;" horiz-adv-x="312" 
d="M190 380q22 32 63.5 64t67.5 32q19 0 19 -22q0 -10 -5 -25q4 -1 13 -1q50 0 93 59l4 -3q-45 -61 -98 -61q-9 0 -13 1q-17 -48 -58 -93.5t-78 -45.5q-28 0 -28 31q0 33 20 64zM329 426q-12 6 -12 17q0 16 18 20q-3 8 -14 8q-30 0 -83.5 -68t-53.5 -99q0 -13 17 -13
q33 0 72.5 44.5t55.5 90.5zM101 247l1 5h145l-1 -5h-145z" />
    <glyph glyph-name="guillemotright" unicode="&#xbb;" horiz-adv-x="534" 
d="M211 47l-2 4l199 109l-125 136l3 4q4 -3 60.5 -52.5t82.5 -68.5q-2 -11 -1 -18zM43 47l-2 4l199 109l-125 136l3 4q4 -3 60.5 -52.5t82.5 -68.5q-2 -11 -1 -18z" />
    <glyph glyph-name="onequarter" unicode="&#xbc;" horiz-adv-x="600" 
d="M471 216l5 -3q-62 -94 -109 -136q14 -1 39.5 -4t32.5 -4q11 15 62 88l5 -1q-22 -35 -49 -88h4q39 0 56 14l4 -4q-17 -15 -60 -15h-7l-34 -63q-21 0 -36 -6l52 70l-74 8q-41 -34 -74 -34q-16 0 -16 12q0 11 16 20t46 9h15q70 58 122 137zM287 45q21 0 56 29h-9
q-19 0 -32 -4t-18.5 -9t-5.5 -10q0 -6 9 -6zM81 335l-2 5q157 83 212 138q5 0 7 1q-107 -173 -131 -215q-16 0 -41 -5q22 31 74 97t78 103q-55 -48 -197 -124zM538 519l4 -4l-484 -561q-2 2 -5 3z" />
    <glyph glyph-name="onehalf" unicode="&#xbd;" horiz-adv-x="600" 
d="M298 -6l-3 3l-2 3q22 30 63 59q5 3 26 17t37.5 26t35.5 27t30 29t11 25q0 24 -36 24q-33 0 -59.5 -18t-26.5 -39q0 -16 19 -16q26 0 51 27l3 -3q-24 -29 -54 -29q-24 0 -24 21q0 23 28 42.5t65 19.5q26 0 39.5 -11t13.5 -28q0 -26 -20 -43t-66.5 -39t-69.5 -37
q-31 -20 -54 -47q44 39 78 39q24 0 24 -17q0 -6 -5 -15t-5 -13t4 -4q23 0 48.5 21.5t40.5 46.5l4 -3q-16 -26 -42.5 -48t-52.5 -22t-26 15q0 8 5.5 17t5.5 11q0 5 -6 5q-14 0 -37 -13t-43 -33zM535 519l4 -4l-484 -561q-2 2 -5 3zM77 335l-2 5q157 83 212 138q5 0 7 1
q-107 -173 -131 -215q-16 0 -41 -5q22 31 74 97t78 103q-55 -48 -197 -124z" />
    <glyph glyph-name="threequarters" unicode="&#xbe;" horiz-adv-x="600" 
d="M471 216l5 -3q-62 -94 -109 -136q14 -1 39.5 -4t32.5 -4q11 15 62 88l5 -1q-22 -35 -49 -88h4q39 0 56 14l4 -4q-17 -15 -60 -15h-7l-34 -63q-21 0 -36 -6l52 70l-74 8q-41 -34 -74 -34q-16 0 -16 12q0 11 16 20t46 9h15q70 58 122 137zM287 45q21 0 56 29h-9
q-19 0 -32 -4t-18.5 -9t-5.5 -10q0 -6 9 -6zM127 263q33 0 67 36.5t34 63.5v3q-16 -2 -24 -2q-16 0 -16 9q0 13 20 13q16 0 25 -9q17 10 29 28.5t12 37.5q0 11 -9 19.5t-29 8.5q-29 0 -49 -15.5t-20 -31.5q0 -15 16 -15q25 0 46 25l3 -3q-20 -27 -50 -27q-20 0 -20 20
q0 18 21.5 35t54.5 17q28 0 42 -12t14 -29q0 -21 -15 -39t-40 -26q6 -10 6 -23q0 -33 -31 -62t-84 -29q-23 0 -35 11.5t-12 28.5q0 19 14.5 34t37.5 15q13 0 25 -5l-2 -5q-12 5 -23 5q-21 0 -33.5 -13.5t-12.5 -29.5q0 -15 9.5 -24.5t28.5 -9.5zM205 369q12 0 21 4
q-5 8 -18 8q-14 0 -14 -7q0 -5 11 -5zM543 519l4 -4l-484 -561q-2 2 -5 3z" />
    <glyph glyph-name="questiondown" unicode="&#xbf;" horiz-adv-x="383" 
d="M-10 -272q68 0 109.5 34.5t41.5 71.5q0 27 -22 27q-4 0 -12.5 -13t-20.5 -13q-18 0 -18 18q0 11 8.5 19t23.5 8q20 0 33 -13.5t13 -33.5q0 -40 -44 -75t-112 -35q-51 0 -80.5 24.5t-29.5 60.5q0 88 132 148q202 92 202 163q0 18 -17 18q-14 0 -31 -14.5t-30 -47.5l-4 2
q8 26 26.5 45.5t38.5 19.5q22 0 22 -23q0 -19 -12.5 -38.5t-39 -41.5t-49 -38t-63.5 -42.5t-62 -40.5q-99 -68 -99 -126q0 -29 28.5 -46.5t67.5 -17.5zM293 306q0 14 10 25t23 11q15 0 15 -13q0 -17 -11 -28t-21 -11q-16 0 -16 16z" />
    <glyph glyph-name="Agrave" unicode="&#xc0;" horiz-adv-x="1794" 
d="M902 388l4 5h290l15 16q47 51 115.5 129t110 124t97.5 105.5t95 94t83.5 67.5t83.5 47.5t76 14.5l2 -5q-141 -155 -278 -349.5t-231 -357.5q-109 -187 -109 -280q0 -41 25 -65t77 -24q98 0 188.5 66.5t140.5 152.5t50 154q0 85 -84 85q-70 0 -144 -86t-94 -198l-5 1
q19 129 92 212q33 36 74.5 56.5t75.5 20.5q90 0 90 -91q0 -51 -31 -116t-81.5 -123.5t-124 -98.5t-148.5 -40q-118 0 -118 117q0 129 103 301q21 36 39 65h-183q-78 -85 -143 -149t-146 -130t-154.5 -108.5t-158 -69t-167.5 -26.5q-188 0 -285.5 94.5t-97.5 232.5
q0 77 32 151t90 134t148.5 97t198.5 37q127 0 191.5 -60t64.5 -151q0 -116 -88 -213.5t-217 -97.5q-78 0 -120 40t-42 97q0 61 46.5 107t125.5 46q11 0 19 -1l-1 -5h-15q-71 0 -119 -48.5t-48 -104.5q0 -52 39.5 -89t114.5 -37q84 0 154.5 47t108 117.5t37.5 142.5
q0 88 -63 146t-188 58q-94 0 -179 -40t-141.5 -103.5t-90 -141.5t-33.5 -155q0 -126 90 -210.5t268 -84.5q100 0 200.5 37t198.5 108t182 149t181 184h-289zM1214 405l-11 -12h182q181 283 482 593q-42 0 -93.5 -26.5t-98.5 -65t-111.5 -104t-111.5 -118.5t-120.5 -136
t-117.5 -131zM1847 1074h-4l-35 143q12 -4 38 -4z" />
    <glyph glyph-name="Aacute" unicode="&#xc1;" horiz-adv-x="1794" 
d="M902 388l4 5h290l15 16q47 51 115.5 129t110 124t97.5 105.5t95 94t83.5 67.5t83.5 47.5t76 14.5l2 -5q-141 -155 -278 -349.5t-231 -357.5q-109 -187 -109 -280q0 -41 25 -65t77 -24q98 0 188.5 66.5t140.5 152.5t50 154q0 85 -84 85q-70 0 -144 -86t-94 -198l-5 1
q19 129 92 212q33 36 74.5 56.5t75.5 20.5q90 0 90 -91q0 -51 -31 -116t-81.5 -123.5t-124 -98.5t-148.5 -40q-118 0 -118 117q0 129 103 301q21 36 39 65h-183q-78 -85 -143 -149t-146 -130t-154.5 -108.5t-158 -69t-167.5 -26.5q-188 0 -285.5 94.5t-97.5 232.5
q0 77 32 151t90 134t148.5 97t198.5 37q127 0 191.5 -60t64.5 -151q0 -116 -88 -213.5t-217 -97.5q-78 0 -120 40t-42 97q0 61 46.5 107t125.5 46q11 0 19 -1l-1 -5h-15q-71 0 -119 -48.5t-48 -104.5q0 -52 39.5 -89t114.5 -37q84 0 154.5 47t108 117.5t37.5 142.5
q0 88 -63 146t-188 58q-94 0 -179 -40t-141.5 -103.5t-90 -141.5t-33.5 -155q0 -126 90 -210.5t268 -84.5q100 0 200.5 37t198.5 108t182 149t181 184h-289zM1214 405l-11 -12h182q181 283 482 593q-42 0 -93.5 -26.5t-98.5 -65t-111.5 -104t-111.5 -118.5t-120.5 -136
t-117.5 -131zM1875 1074h-6l86 116q35 0 54 4z" />
    <glyph glyph-name="Acircumflex" unicode="&#xc2;" horiz-adv-x="1794" 
d="M902 388l4 5h290l15 16q47 51 115.5 129t110 124t97.5 105.5t95 94t83.5 67.5t83.5 47.5t76 14.5l2 -5q-141 -155 -278 -349.5t-231 -357.5q-109 -187 -109 -280q0 -41 25 -65t77 -24q98 0 188.5 66.5t140.5 152.5t50 154q0 85 -84 85q-70 0 -144 -86t-94 -198l-5 1
q19 129 92 212q33 36 74.5 56.5t75.5 20.5q90 0 90 -91q0 -51 -31 -116t-81.5 -123.5t-124 -98.5t-148.5 -40q-118 0 -118 117q0 129 103 301q21 36 39 65h-183q-78 -85 -143 -149t-146 -130t-154.5 -108.5t-158 -69t-167.5 -26.5q-188 0 -285.5 94.5t-97.5 232.5
q0 77 32 151t90 134t148.5 97t198.5 37q127 0 191.5 -60t64.5 -151q0 -116 -88 -213.5t-217 -97.5q-78 0 -120 40t-42 97q0 61 46.5 107t125.5 46q11 0 19 -1l-1 -5h-15q-71 0 -119 -48.5t-48 -104.5q0 -52 39.5 -89t114.5 -37q84 0 154.5 47t108 117.5t37.5 142.5
q0 88 -63 146t-188 58q-94 0 -179 -40t-141.5 -103.5t-90 -141.5t-33.5 -155q0 -126 90 -210.5t268 -84.5q100 0 200.5 37t198.5 108t182 149t181 184h-289zM1214 405l-11 -12h182q181 283 482 593q-42 0 -93.5 -26.5t-98.5 -65t-111.5 -104t-111.5 -118.5t-120.5 -136
t-117.5 -131zM1778 1074l145 123q22 0 34 3l-19 -126h-5l-3 97l-145 -97h-7z" />
    <glyph glyph-name="Atilde" unicode="&#xc3;" horiz-adv-x="1794" 
d="M902 388l4 5h290l15 16q47 51 115.5 129t110 124t97.5 105.5t95 94t83.5 67.5t83.5 47.5t76 14.5l2 -5q-141 -155 -278 -349.5t-231 -357.5q-109 -187 -109 -280q0 -41 25 -65t77 -24q98 0 188.5 66.5t140.5 152.5t50 154q0 85 -84 85q-70 0 -144 -86t-94 -198l-5 1
q19 129 92 212q33 36 74.5 56.5t75.5 20.5q90 0 90 -91q0 -51 -31 -116t-81.5 -123.5t-124 -98.5t-148.5 -40q-118 0 -118 117q0 129 103 301q21 36 39 65h-183q-78 -85 -143 -149t-146 -130t-154.5 -108.5t-158 -69t-167.5 -26.5q-188 0 -285.5 94.5t-97.5 232.5
q0 77 32 151t90 134t148.5 97t198.5 37q127 0 191.5 -60t64.5 -151q0 -116 -88 -213.5t-217 -97.5q-78 0 -120 40t-42 97q0 61 46.5 107t125.5 46q11 0 19 -1l-1 -5h-15q-71 0 -119 -48.5t-48 -104.5q0 -52 39.5 -89t114.5 -37q84 0 154.5 47t108 117.5t37.5 142.5
q0 88 -63 146t-188 58q-94 0 -179 -40t-141.5 -103.5t-90 -141.5t-33.5 -155q0 -126 90 -210.5t268 -84.5q100 0 200.5 37t198.5 108t182 149t181 184h-289zM1214 405l-11 -12h182q181 283 482 593q-42 0 -93.5 -26.5t-98.5 -65t-111.5 -104t-111.5 -118.5t-120.5 -136
t-117.5 -131zM1761 1088l-4 4q43 61 90 61q25 0 75 -22.5t73 -22.5q30 0 58 46l4 -3q-40 -64 -92 -64q-24 0 -72 23t-71 23q-18 0 -31 -10.5t-30 -34.5z" />
    <glyph glyph-name="Adieresis" unicode="&#xc4;" horiz-adv-x="1794" 
d="M902 388l4 5h290l15 16q47 51 115.5 129t110 124t97.5 105.5t95 94t83.5 67.5t83.5 47.5t76 14.5l2 -5q-141 -155 -278 -349.5t-231 -357.5q-109 -187 -109 -280q0 -41 25 -65t77 -24q98 0 188.5 66.5t140.5 152.5t50 154q0 85 -84 85q-70 0 -144 -86t-94 -198l-5 1
q19 129 92 212q33 36 74.5 56.5t75.5 20.5q90 0 90 -91q0 -51 -31 -116t-81.5 -123.5t-124 -98.5t-148.5 -40q-118 0 -118 117q0 129 103 301q21 36 39 65h-183q-78 -85 -143 -149t-146 -130t-154.5 -108.5t-158 -69t-167.5 -26.5q-188 0 -285.5 94.5t-97.5 232.5
q0 77 32 151t90 134t148.5 97t198.5 37q127 0 191.5 -60t64.5 -151q0 -116 -88 -213.5t-217 -97.5q-78 0 -120 40t-42 97q0 61 46.5 107t125.5 46q11 0 19 -1l-1 -5h-15q-71 0 -119 -48.5t-48 -104.5q0 -52 39.5 -89t114.5 -37q84 0 154.5 47t108 117.5t37.5 142.5
q0 88 -63 146t-188 58q-94 0 -179 -40t-141.5 -103.5t-90 -141.5t-33.5 -155q0 -126 90 -210.5t268 -84.5q100 0 200.5 37t198.5 108t182 149t181 184h-289zM1214 405l-11 -12h182q181 283 482 593q-42 0 -93.5 -26.5t-98.5 -65t-111.5 -104t-111.5 -118.5t-120.5 -136
t-117.5 -131zM1843 1156q22 0 22 -20q0 -15 -13 -30t-30 -15q-20 0 -20 20q0 16 12 30.5t29 14.5zM1999 1156q22 0 22 -20q0 -15 -13 -30t-30 -15q-20 0 -20 20q0 16 12 30.5t29 14.5z" />
    <glyph glyph-name="Aring" unicode="&#xc5;" horiz-adv-x="1794" 
d="M902 388l4 5h290l15 16q47 51 115.5 129t110 124t97.5 105.5t95 94t83.5 67.5t83.5 47.5t76 14.5l2 -5q-141 -155 -278 -349.5t-231 -357.5q-109 -187 -109 -280q0 -41 25 -65t77 -24q98 0 188.5 66.5t140.5 152.5t50 154q0 85 -84 85q-70 0 -144 -86t-94 -198l-5 1
q19 129 92 212q33 36 74.5 56.5t75.5 20.5q90 0 90 -91q0 -51 -31 -116t-81.5 -123.5t-124 -98.5t-148.5 -40q-118 0 -118 117q0 129 103 301q21 36 39 65h-183q-78 -85 -143 -149t-146 -130t-154.5 -108.5t-158 -69t-167.5 -26.5q-188 0 -285.5 94.5t-97.5 232.5
q0 77 32 151t90 134t148.5 97t198.5 37q127 0 191.5 -60t64.5 -151q0 -116 -88 -213.5t-217 -97.5q-78 0 -120 40t-42 97q0 61 46.5 107t125.5 46q11 0 19 -1l-1 -5h-15q-71 0 -119 -48.5t-48 -104.5q0 -52 39.5 -89t114.5 -37q84 0 154.5 47t108 117.5t37.5 142.5
q0 88 -63 146t-188 58q-94 0 -179 -40t-141.5 -103.5t-90 -141.5t-33.5 -155q0 -126 90 -210.5t268 -84.5q100 0 200.5 37t198.5 108t182 149t181 184h-289zM1214 405l-11 -12h182q181 283 482 593q-42 0 -93.5 -26.5t-98.5 -65t-111.5 -104t-111.5 -118.5t-120.5 -136
t-117.5 -131zM1853 1123q0 30 22.5 52.5t56.5 22.5q26 0 42.5 -15.5t16.5 -39.5q0 -31 -23 -53t-55 -22q-27 0 -43.5 15.5t-16.5 39.5zM1864 1124q0 -22 14 -34.5t37 -12.5q26 0 45.5 19.5t19.5 45.5q0 21 -13.5 34t-35.5 13q-28 0 -47.5 -20t-19.5 -45z" />
    <glyph glyph-name="AE" unicode="&#xc6;" horiz-adv-x="1988" 
d="M902 388l4 5h290l13 14q51 56 114.5 129t102.5 118t89.5 99.5t85 87t78 66.5t80.5 51.5t80 29t88 11.5q40 0 83 -10q41 10 94 10q88 0 128 -37.5t40 -95.5q0 -102 -82 -194.5t-184 -92.5q-42 0 -65 21.5t-23 53.5q0 73 65 121t150 48h13v-4q-76 0 -148.5 -51.5
t-72.5 -114.5q0 -32 21 -50.5t60 -18.5q100 0 180.5 91t80.5 191q0 50 -34 85.5t-107 35.5q-82 0 -164.5 -39t-141 -96t-95.5 -120.5t-37 -112.5q0 -18 2 -26q37 7 63 7q35 0 54 -12t19 -29q0 -15 -13.5 -24.5t-38.5 -9.5q-65 0 -87 58q-72 -21 -144 -77
q-109 -85 -185.5 -215t-76.5 -233q0 -67 45.5 -109.5t136.5 -42.5q100 0 192 42t153 104.5t97 131.5t36 126q0 47 -27.5 74.5t-83.5 27.5q-89 0 -194 -89t-142 -203l-6 2q36 129 132.5 212.5t208.5 83.5q59 0 88 -29.5t29 -78.5q0 -45 -22.5 -100t-66 -109t-101 -99
t-134.5 -73t-159 -28q-108 0 -158 53t-50 139q0 122 77 239q18 28 41 56h-175q-100 -109 -181.5 -185.5t-180.5 -149.5t-201.5 -110.5t-205.5 -37.5q-188 0 -285.5 94.5t-97.5 232.5q0 77 32 151t90 134t148.5 97t198.5 37q127 0 191.5 -60t64.5 -151q0 -116 -88 -213.5
t-217 -97.5q-78 0 -120 40t-42 97q0 61 46.5 107t125.5 46q11 0 19 -1l-1 -5h-15q-71 0 -119 -48.5t-48 -104.5q0 -52 39.5 -89t114.5 -37q84 0 154.5 47t108 117.5t37.5 142.5q0 88 -63 146t-188 58q-94 0 -179 -40t-141.5 -103.5t-90 -141.5t-33.5 -155q0 -126 90 -210.5
t268 -84.5q81 0 163.5 25.5t155.5 66.5t152 105t146 130t145 151h-289zM1214 405l-11 -12h174q63 74 144.5 127.5t162.5 71.5q-6 21 -6 46q0 100 90 207.5t230 141.5q-49 7 -72 7q-61 0 -121 -23t-108 -56.5t-112 -96.5t-110 -116t-125 -144t-136 -153zM1757 594
q-26 0 -64 -9q17 -55 81 -55q22 0 34.5 8.5t12.5 20.5q0 14 -17 24.5t-47 10.5z" />
    <glyph glyph-name="Ccedilla" unicode="&#xc7;" horiz-adv-x="818" 
d="M1139 945q0 -45 -67.5 -112t-171 -131.5t-243.5 -118t-271 -71.5q-223 -269 -223 -470q0 -65 40.5 -98.5t112.5 -33.5q94 0 181 43.5t144 108.5t91.5 137t34.5 132q0 53 -27 83t-82 30q-53 0 -111.5 -37t-102 -89.5t-72 -110t-28.5 -97.5q0 -51 44 -55l-1 -4
q-54 6 -54 77q0 73 51.5 149t127.5 124.5t145 48.5q57 0 86 -32.5t29 -86.5q0 -61 -34.5 -134t-93 -138.5t-146.5 -109.5t-183 -44q-13 0 -19 1l-57 -67q37 -8 56.5 -29t19.5 -47q0 -36 -32.5 -64.5t-83.5 -28.5q-46 0 -83 20l2 4q34 -17 71 -17q41 0 68 27.5t27 60.5
q0 52 -60 66l65 75q-78 7 -114 55.5t-36 120.5q0 192 186 424q-18 -2 -55 -2q-171 0 -253 66t-82 167q0 117 99.5 210.5t258.5 93.5q92 0 138 -40t46 -98q0 -77 -62 -138t-155 -61v5q92 0 152 60.5t60 133.5q0 57 -44.5 95t-134.5 38q-144 0 -241 -97.5t-97 -212.5
q0 -95 76.5 -156t240.5 -61q30 0 58 3q105 128 245.5 239.5t271.5 175.5t218 64q74 0 74 -46zM1066 986q-120 0 -318 -138.5t-357 -329.5q129 18 267.5 71.5t240.5 117.5t168.5 129.5t66.5 108.5q0 41 -68 41z" />
    <glyph glyph-name="Egrave" unicode="&#xc8;" horiz-adv-x="795" 
d="M289 871v5q80 0 128.5 52t48.5 123q0 73 -59.5 126t-173.5 53q-115 0 -192.5 -81.5t-77.5 -184.5q0 -52 23 -98.5t69 -85t127 -61.5t187 -23q81 0 154 12q2 81 57.5 147.5t137.5 101t168 34.5q27 0 45.5 -5t26.5 -13.5t10.5 -15t2.5 -13.5q0 -63 -129.5 -137t-308.5 -103
q-1 -6 -1 -20q0 -24 6 -41q36 4 52 4q31 0 48.5 -10.5t17.5 -23.5q0 -10 -11 -17.5t-31 -7.5q-54 0 -78 47q-105 -23 -212 -120.5t-173 -221t-66 -222.5q0 -69 48.5 -115t148.5 -46q80 0 156 29t133 75.5t100.5 103t66 115t22.5 107.5q0 132 -131 132q-84 0 -163 -58.5
t-129.5 -146t-65.5 -179.5l-5 -1q5 68 31.5 135.5t70.5 125.5t112.5 94t148.5 36q70 0 103 -38t33 -100q0 -64 -37 -139t-98.5 -141.5t-154.5 -110.5t-193 -44q-50 0 -89 12.5t-62.5 32.5t-38.5 47.5t-20.5 54.5t-5.5 57q0 91 41 183.5t107 164t150.5 121.5t168.5 64
q-10 23 -10 61q-73 -12 -153 -12q-110 0 -194.5 24t-134.5 65t-75 90.5t-25 103.5q0 104 81.5 182.5t210.5 78.5q117 0 177.5 -54t60.5 -130q0 -72 -50.5 -126t-131.5 -54zM966 944q0 34 -57 34q-43 0 -102.5 -20.5t-117.5 -54.5t-102 -86t-53 -108q175 29 303.5 102
t128.5 133zM592 642q-26 0 -51 -6q20 -43 73 -43q37 0 37 20q0 11 -15.5 20t-43.5 9zM793 1074h-4l-35 143q12 -4 38 -4z" />
    <glyph glyph-name="Eacute" unicode="&#xc9;" horiz-adv-x="795" 
d="M289 871v5q80 0 128.5 52t48.5 123q0 73 -59.5 126t-173.5 53q-115 0 -192.5 -81.5t-77.5 -184.5q0 -52 23 -98.5t69 -85t127 -61.5t187 -23q81 0 154 12q2 81 57.5 147.5t137.5 101t168 34.5q27 0 45.5 -5t26.5 -13.5t10.5 -15t2.5 -13.5q0 -63 -129.5 -137t-308.5 -103
q-1 -6 -1 -20q0 -24 6 -41q36 4 52 4q31 0 48.5 -10.5t17.5 -23.5q0 -10 -11 -17.5t-31 -7.5q-54 0 -78 47q-105 -23 -212 -120.5t-173 -221t-66 -222.5q0 -69 48.5 -115t148.5 -46q80 0 156 29t133 75.5t100.5 103t66 115t22.5 107.5q0 132 -131 132q-84 0 -163 -58.5
t-129.5 -146t-65.5 -179.5l-5 -1q5 68 31.5 135.5t70.5 125.5t112.5 94t148.5 36q70 0 103 -38t33 -100q0 -64 -37 -139t-98.5 -141.5t-154.5 -110.5t-193 -44q-50 0 -89 12.5t-62.5 32.5t-38.5 47.5t-20.5 54.5t-5.5 57q0 91 41 183.5t107 164t150.5 121.5t168.5 64
q-10 23 -10 61q-73 -12 -153 -12q-110 0 -194.5 24t-134.5 65t-75 90.5t-25 103.5q0 104 81.5 182.5t210.5 78.5q117 0 177.5 -54t60.5 -130q0 -72 -50.5 -126t-131.5 -54zM966 944q0 34 -57 34q-43 0 -102.5 -20.5t-117.5 -54.5t-102 -86t-53 -108q175 29 303.5 102
t128.5 133zM592 642q-26 0 -51 -6q20 -43 73 -43q37 0 37 20q0 11 -15.5 20t-43.5 9zM839 1074h-6l86 116q35 0 54 4z" />
    <glyph glyph-name="Ecircumflex" unicode="&#xca;" horiz-adv-x="795" 
d="M289 871v5q80 0 128.5 52t48.5 123q0 73 -59.5 126t-173.5 53q-115 0 -192.5 -81.5t-77.5 -184.5q0 -52 23 -98.5t69 -85t127 -61.5t187 -23q81 0 154 12q2 81 57.5 147.5t137.5 101t168 34.5q27 0 45.5 -5t26.5 -13.5t10.5 -15t2.5 -13.5q0 -63 -129.5 -137t-308.5 -103
q-1 -6 -1 -20q0 -24 6 -41q36 4 52 4q31 0 48.5 -10.5t17.5 -23.5q0 -10 -11 -17.5t-31 -7.5q-54 0 -78 47q-105 -23 -212 -120.5t-173 -221t-66 -222.5q0 -69 48.5 -115t148.5 -46q80 0 156 29t133 75.5t100.5 103t66 115t22.5 107.5q0 132 -131 132q-84 0 -163 -58.5
t-129.5 -146t-65.5 -179.5l-5 -1q5 68 31.5 135.5t70.5 125.5t112.5 94t148.5 36q70 0 103 -38t33 -100q0 -64 -37 -139t-98.5 -141.5t-154.5 -110.5t-193 -44q-50 0 -89 12.5t-62.5 32.5t-38.5 47.5t-20.5 54.5t-5.5 57q0 91 41 183.5t107 164t150.5 121.5t168.5 64
q-10 23 -10 61q-73 -12 -153 -12q-110 0 -194.5 24t-134.5 65t-75 90.5t-25 103.5q0 104 81.5 182.5t210.5 78.5q117 0 177.5 -54t60.5 -130q0 -72 -50.5 -126t-131.5 -54zM966 944q0 34 -57 34q-43 0 -102.5 -20.5t-117.5 -54.5t-102 -86t-53 -108q175 29 303.5 102
t128.5 133zM592 642q-26 0 -51 -6q20 -43 73 -43q37 0 37 20q0 11 -15.5 20t-43.5 9zM811 1074l145 123q22 0 34 3l-19 -126h-5l-3 97l-145 -97h-7z" />
    <glyph glyph-name="Edieresis" unicode="&#xcb;" horiz-adv-x="795" 
d="M289 871v5q80 0 128.5 52t48.5 123q0 73 -59.5 126t-173.5 53q-115 0 -192.5 -81.5t-77.5 -184.5q0 -52 23 -98.5t69 -85t127 -61.5t187 -23q81 0 154 12q2 81 57.5 147.5t137.5 101t168 34.5q27 0 45.5 -5t26.5 -13.5t10.5 -15t2.5 -13.5q0 -63 -129.5 -137t-308.5 -103
q-1 -6 -1 -20q0 -24 6 -41q36 4 52 4q31 0 48.5 -10.5t17.5 -23.5q0 -10 -11 -17.5t-31 -7.5q-54 0 -78 47q-105 -23 -212 -120.5t-173 -221t-66 -222.5q0 -69 48.5 -115t148.5 -46q80 0 156 29t133 75.5t100.5 103t66 115t22.5 107.5q0 132 -131 132q-84 0 -163 -58.5
t-129.5 -146t-65.5 -179.5l-5 -1q5 68 31.5 135.5t70.5 125.5t112.5 94t148.5 36q70 0 103 -38t33 -100q0 -64 -37 -139t-98.5 -141.5t-154.5 -110.5t-193 -44q-50 0 -89 12.5t-62.5 32.5t-38.5 47.5t-20.5 54.5t-5.5 57q0 91 41 183.5t107 164t150.5 121.5t168.5 64
q-10 23 -10 61q-73 -12 -153 -12q-110 0 -194.5 24t-134.5 65t-75 90.5t-25 103.5q0 104 81.5 182.5t210.5 78.5q117 0 177.5 -54t60.5 -130q0 -72 -50.5 -126t-131.5 -54zM966 944q0 34 -57 34q-43 0 -102.5 -20.5t-117.5 -54.5t-102 -86t-53 -108q175 29 303.5 102
t128.5 133zM592 642q-26 0 -51 -6q20 -43 73 -43q37 0 37 20q0 11 -15.5 20t-43.5 9zM851 1156q22 0 22 -20q0 -15 -13 -30t-30 -15q-20 0 -20 20q0 16 12 30.5t29 14.5zM1007 1156q22 0 22 -20q0 -15 -13 -30t-30 -15q-20 0 -20 20q0 16 12 30.5t29 14.5z" />
    <glyph glyph-name="Igrave" unicode="&#xcc;" horiz-adv-x="1064" 
d="M1446 925h-31q-70 -56 -154 -192q35 -13 53.5 -41.5t18.5 -63.5q0 -69 -61.5 -124.5t-168.5 -55.5h-6q-1 -2 -2.5 -4t-1.5 -3q-79 -130 -151.5 -222t-159 -166t-186.5 -111t-215 -37q-162 0 -245.5 79t-83.5 196q0 67 27.5 132.5t77.5 119t129 86.5t173 33
q124 0 189.5 -61t65.5 -150q0 -101 -79 -179.5t-212 -78.5q-80 0 -120.5 35t-40.5 89q0 62 48 111t122 49q29 0 50 -6l-1 -4q-27 5 -50 5q-71 0 -117.5 -48t-46.5 -107q0 -49 36.5 -82.5t108.5 -33.5q124 0 204 82.5t80 183.5q0 81 -61 135.5t-178 54.5q-91 0 -168.5 -32.5
t-127 -85t-77 -117t-27.5 -129.5q0 -115 83 -193t242 -78q78 0 153 26.5t139.5 71.5t132 115.5t125 146t124.5 175.5l3 5q-85 12 -132.5 66t-47.5 131q0 53 23.5 103.5t69 93t122.5 68t175 25.5q22 0 71 -3.5t74 -4.5q74 59 154 59q48 0 48 -21q-2 -43 -170 -43zM1270 933
q-97 0 -173 -25t-121.5 -67t-68.5 -91t-23 -102q0 -76 46 -128.5t132 -63.5q28 41 87.5 136t91.5 141q-13 4 -35 4q-53 0 -92.5 -26.5t-55.5 -61.5l-3 2q13 33 54.5 62t96.5 29q16 0 38 -4q90 129 164 187q-25 1 -73 4.5t-65 3.5zM1259 728q-28 -46 -81 -139.5t-77 -134.5h2
q95 0 156 58.5t61 125.5q0 68 -61 90zM1568 984q-77 0 -147 -54h26q37 0 66.5 2.5t47 6.5t29.5 9t16.5 10t4.5 10q0 16 -43 16zM1411 1074h-4l-35 143q12 -4 38 -4z" />
    <glyph glyph-name="Iacute" unicode="&#xcd;" horiz-adv-x="1064" 
d="M1446 925h-31q-70 -56 -154 -192q35 -13 53.5 -41.5t18.5 -63.5q0 -69 -61.5 -124.5t-168.5 -55.5h-6q-1 -2 -2.5 -4t-1.5 -3q-79 -130 -151.5 -222t-159 -166t-186.5 -111t-215 -37q-162 0 -245.5 79t-83.5 196q0 67 27.5 132.5t77.5 119t129 86.5t173 33
q124 0 189.5 -61t65.5 -150q0 -101 -79 -179.5t-212 -78.5q-80 0 -120.5 35t-40.5 89q0 62 48 111t122 49q29 0 50 -6l-1 -4q-27 5 -50 5q-71 0 -117.5 -48t-46.5 -107q0 -49 36.5 -82.5t108.5 -33.5q124 0 204 82.5t80 183.5q0 81 -61 135.5t-178 54.5q-91 0 -168.5 -32.5
t-127 -85t-77 -117t-27.5 -129.5q0 -115 83 -193t242 -78q78 0 153 26.5t139.5 71.5t132 115.5t125 146t124.5 175.5l3 5q-85 12 -132.5 66t-47.5 131q0 53 23.5 103.5t69 93t122.5 68t175 25.5q22 0 71 -3.5t74 -4.5q74 59 154 59q48 0 48 -21q-2 -43 -170 -43zM1270 933
q-97 0 -173 -25t-121.5 -67t-68.5 -91t-23 -102q0 -76 46 -128.5t132 -63.5q28 41 87.5 136t91.5 141q-13 4 -35 4q-53 0 -92.5 -26.5t-55.5 -61.5l-3 2q13 33 54.5 62t96.5 29q16 0 38 -4q90 129 164 187q-25 1 -73 4.5t-65 3.5zM1259 728q-28 -46 -81 -139.5t-77 -134.5h2
q95 0 156 58.5t61 125.5q0 68 -61 90zM1568 984q-77 0 -147 -54h26q37 0 66.5 2.5t47 6.5t29.5 9t16.5 10t4.5 10q0 16 -43 16zM1502 1074h-6l86 116q35 0 54 4z" />
    <glyph glyph-name="Icircumflex" unicode="&#xce;" horiz-adv-x="1064" 
d="M1446 925h-31q-70 -56 -154 -192q35 -13 53.5 -41.5t18.5 -63.5q0 -69 -61.5 -124.5t-168.5 -55.5h-6q-1 -2 -2.5 -4t-1.5 -3q-79 -130 -151.5 -222t-159 -166t-186.5 -111t-215 -37q-162 0 -245.5 79t-83.5 196q0 67 27.5 132.5t77.5 119t129 86.5t173 33
q124 0 189.5 -61t65.5 -150q0 -101 -79 -179.5t-212 -78.5q-80 0 -120.5 35t-40.5 89q0 62 48 111t122 49q29 0 50 -6l-1 -4q-27 5 -50 5q-71 0 -117.5 -48t-46.5 -107q0 -49 36.5 -82.5t108.5 -33.5q124 0 204 82.5t80 183.5q0 81 -61 135.5t-178 54.5q-91 0 -168.5 -32.5
t-127 -85t-77 -117t-27.5 -129.5q0 -115 83 -193t242 -78q78 0 153 26.5t139.5 71.5t132 115.5t125 146t124.5 175.5l3 5q-85 12 -132.5 66t-47.5 131q0 53 23.5 103.5t69 93t122.5 68t175 25.5q22 0 71 -3.5t74 -4.5q74 59 154 59q48 0 48 -21q-2 -43 -170 -43zM1270 933
q-97 0 -173 -25t-121.5 -67t-68.5 -91t-23 -102q0 -76 46 -128.5t132 -63.5q28 41 87.5 136t91.5 141q-13 4 -35 4q-53 0 -92.5 -26.5t-55.5 -61.5l-3 2q13 33 54.5 62t96.5 29q16 0 38 -4q90 129 164 187q-25 1 -73 4.5t-65 3.5zM1259 728q-28 -46 -81 -139.5t-77 -134.5h2
q95 0 156 58.5t61 125.5q0 68 -61 90zM1568 984q-77 0 -147 -54h26q37 0 66.5 2.5t47 6.5t29.5 9t16.5 10t4.5 10q0 16 -43 16zM1400 1074l145 123q22 0 34 3l-19 -126h-5l-3 97l-145 -97h-7z" />
    <glyph glyph-name="Idieresis" unicode="&#xcf;" horiz-adv-x="1064" 
d="M1446 925h-31q-70 -56 -154 -192q35 -13 53.5 -41.5t18.5 -63.5q0 -69 -61.5 -124.5t-168.5 -55.5h-6q-1 -2 -2.5 -4t-1.5 -3q-79 -130 -151.5 -222t-159 -166t-186.5 -111t-215 -37q-162 0 -245.5 79t-83.5 196q0 67 27.5 132.5t77.5 119t129 86.5t173 33
q124 0 189.5 -61t65.5 -150q0 -101 -79 -179.5t-212 -78.5q-80 0 -120.5 35t-40.5 89q0 62 48 111t122 49q29 0 50 -6l-1 -4q-27 5 -50 5q-71 0 -117.5 -48t-46.5 -107q0 -49 36.5 -82.5t108.5 -33.5q124 0 204 82.5t80 183.5q0 81 -61 135.5t-178 54.5q-91 0 -168.5 -32.5
t-127 -85t-77 -117t-27.5 -129.5q0 -115 83 -193t242 -78q78 0 153 26.5t139.5 71.5t132 115.5t125 146t124.5 175.5l3 5q-85 12 -132.5 66t-47.5 131q0 53 23.5 103.5t69 93t122.5 68t175 25.5q22 0 71 -3.5t74 -4.5q74 59 154 59q48 0 48 -21q-2 -43 -170 -43zM1270 933
q-97 0 -173 -25t-121.5 -67t-68.5 -91t-23 -102q0 -76 46 -128.5t132 -63.5q28 41 87.5 136t91.5 141q-13 4 -35 4q-53 0 -92.5 -26.5t-55.5 -61.5l-3 2q13 33 54.5 62t96.5 29q16 0 38 -4q90 129 164 187q-25 1 -73 4.5t-65 3.5zM1259 728q-28 -46 -81 -139.5t-77 -134.5h2
q95 0 156 58.5t61 125.5q0 68 -61 90zM1568 984q-77 0 -147 -54h26q37 0 66.5 2.5t47 6.5t29.5 9t16.5 10t4.5 10q0 16 -43 16zM1442 1156q22 0 22 -20q0 -15 -13 -30t-30 -15q-20 0 -20 20q0 16 12 30.5t29 14.5zM1598 1156q22 0 22 -20q0 -15 -13 -30t-30 -15
q-20 0 -20 20q0 16 12 30.5t29 14.5z" />
    <glyph glyph-name="Eth" unicode="&#xd0;" horiz-adv-x="1242" 
d="M757 323l1 5h130q17 26 65.5 104.5t74 117t69 95.5t83.5 97q-55 112 -166 178t-274 66q-135 0 -262.5 -62.5t-215.5 -156.5t-141 -203t-53 -203q0 -99 63.5 -159.5t187.5 -60.5q94 0 184 45t152 112.5t99.5 145.5t37.5 144t-36 106.5t-113 40.5q-98 0 -197 -88.5
t-137 -246.5h-5q37 161 138.5 250.5t200.5 89.5q80 0 117 -42t37 -111q0 -54 -23.5 -115.5t-68 -120.5t-102 -107.5t-132.5 -78t-152 -29.5q-134 0 -202.5 70t-68.5 183q0 63 22 132t62 136t102 128t136 107t169.5 73t198.5 27q165 0 277.5 -66.5t168.5 -180.5
q126 126 274 158l1 -5q-152 -32 -271 -162q47 -98 47 -221q0 -88 -24 -175t-72.5 -165t-115 -138t-157.5 -95t-194 -35q-78 0 -203 28q-128 -36 -290 -36q-76 0 -119.5 17.5t-43.5 40.5q0 18 29.5 30.5t83.5 12.5q32 0 64 -3t71 -10.5t61 -12.5t70.5 -16.5t63.5 -15.5
q95 29 173 86.5t130 121t117 164.5l6 9h-128zM1230 515q0 119 -46 217l-5 -6q-37 -42 -74 -103t-86 -151t-82 -144h103l-1 -5h-105q-12 -18 -17 -27q-86 -135 -187 -224.5t-253 -133.5q117 -26 194 -26q126 0 234 53.5t177.5 140t108.5 193t39 216.5zM179 -96q151 0 272 35
q-15 3 -62 14.5t-69 16.5t-59.5 12t-69 10t-62.5 3q-52 0 -80 -11t-28 -27q0 -21 42.5 -37t115.5 -16z" />
    <glyph glyph-name="Ntilde" unicode="&#xd1;" horiz-adv-x="1534" 
d="M2242 820l-3 3q24 34 24 69q0 33 -36 54.5t-88 21.5q-54 0 -102.5 -18t-89 -46.5t-91.5 -86t-93 -113.5t-110 -153q-62 -88 -215.5 -333.5t-191.5 -293.5l-4 3q27 46 50 115t34.5 119.5t32.5 155.5t30 148q29 135 64 243.5t93 201.5q-46 -58 -103 -143t-104 -162
t-107.5 -166t-117.5 -163t-131.5 -144.5t-151.5 -119t-175 -78t-204 -29.5q-196 0 -300.5 98.5t-104.5 239.5q0 76 31.5 148.5t88.5 131.5t148 95t200 36q142 0 213 -64.5t71 -161.5q0 -113 -85.5 -205.5t-213.5 -92.5q-83 0 -126.5 38t-43.5 93q0 59 47.5 104.5t125.5 45.5
q23 0 35 -2l-1 -5q-11 2 -32 2q-72 0 -117.5 -45t-45.5 -103q0 -52 40 -87.5t118 -35.5q84 0 153 44.5t105 111.5t36 138q0 94 -69.5 157t-209.5 63q-97 0 -181.5 -38.5t-140 -100t-87 -137.5t-31.5 -152q0 -63 22.5 -117.5t66.5 -98.5t117 -69.5t168 -25.5
q110 0 211.5 31.5t180.5 83.5t154.5 126t133.5 152.5t119.5 169.5t109.5 170.5t105 162.5t106 138l4 -4q-31 -40 -59.5 -127.5t-44 -160t-39.5 -196.5q-57 -304 -159 -490q33 49 178.5 280.5t198.5 308.5q48 69 77 110t69.5 93t68.5 81.5t64 62t67.5 48.5t69 26.5t76.5 10.5
q53 0 90.5 -26.5t37.5 -68.5q0 -38 -26 -72zM1711 1088l-4 4q43 61 90 61q25 0 75 -22.5t73 -22.5q30 0 58 46l4 -3q-40 -64 -92 -64q-24 0 -72 23t-71 23q-18 0 -31 -10.5t-30 -34.5z" />
    <glyph glyph-name="Ograve" unicode="&#xd2;" horiz-adv-x="875" 
d="M811 158l3 -4q-83 -57 -169 -69q-221 -180 -414 -180q-98 0 -143 52t-45 134q0 145 83.5 305.5t208.5 286t280 208t290 82.5q92 0 137 -39.5t45 -100.5q0 -81 -60 -150q-7 -128 -113.5 -296t-261.5 -296q82 14 159 67zM231 -90q186 0 403 173q-10 -1 -29 -1
q-74 0 -111.5 40t-37.5 112q0 30 5 53q-81 9 -81 90q0 60 44.5 137t114 144.5t166 114.5t189.5 47q70 0 102 -33.5t32 -87.5v-8q54 69 54 142q0 59 -43.5 97t-133.5 38q-108 0 -231 -64.5t-230 -167.5t-195.5 -222t-140 -238.5t-51.5 -206.5q0 -77 47 -118t127 -41zM605 87
q11 0 37 2q154 127 262.5 294t117.5 295q-60 -67 -141 -80l-1 5q80 10 143 83v11q0 118 -129 118q-82 0 -175.5 -49t-165 -118t-119 -145.5t-47.5 -130.5q0 -73 75 -80q23 113 107 208t175 95q43 0 43 -40q0 -32 -26 -78t-67 -88.5t-99.5 -72.5t-115.5 -30h-9q-7 -29 -7 -60
q0 -66 36 -102.5t106 -36.5zM745 590q-76 0 -161.5 -96t-112.5 -203h8q57 0 114.5 30t97.5 72t65.5 86.5t25.5 75.5q0 35 -37 35zM908 1074h-4l-35 143q12 -4 38 -4z" />
    <glyph glyph-name="Oacute" unicode="&#xd3;" horiz-adv-x="875" 
d="M811 158l3 -4q-83 -57 -169 -69q-221 -180 -414 -180q-98 0 -143 52t-45 134q0 145 83.5 305.5t208.5 286t280 208t290 82.5q92 0 137 -39.5t45 -100.5q0 -81 -60 -150q-7 -128 -113.5 -296t-261.5 -296q82 14 159 67zM231 -90q186 0 403 173q-10 -1 -29 -1
q-74 0 -111.5 40t-37.5 112q0 30 5 53q-81 9 -81 90q0 60 44.5 137t114 144.5t166 114.5t189.5 47q70 0 102 -33.5t32 -87.5v-8q54 69 54 142q0 59 -43.5 97t-133.5 38q-108 0 -231 -64.5t-230 -167.5t-195.5 -222t-140 -238.5t-51.5 -206.5q0 -77 47 -118t127 -41zM605 87
q11 0 37 2q154 127 262.5 294t117.5 295q-60 -67 -141 -80l-1 5q80 10 143 83v11q0 118 -129 118q-82 0 -175.5 -49t-165 -118t-119 -145.5t-47.5 -130.5q0 -73 75 -80q23 113 107 208t175 95q43 0 43 -40q0 -32 -26 -78t-67 -88.5t-99.5 -72.5t-115.5 -30h-9q-7 -29 -7 -60
q0 -66 36 -102.5t106 -36.5zM745 590q-76 0 -161.5 -96t-112.5 -203h8q57 0 114.5 30t97.5 72t65.5 86.5t25.5 75.5q0 35 -37 35zM949 1074h-6l86 116q35 0 54 4z" />
    <glyph glyph-name="Ocircumflex" unicode="&#xd4;" horiz-adv-x="875" 
d="M811 158l3 -4q-83 -57 -169 -69q-221 -180 -414 -180q-98 0 -143 52t-45 134q0 145 83.5 305.5t208.5 286t280 208t290 82.5q92 0 137 -39.5t45 -100.5q0 -81 -60 -150q-7 -128 -113.5 -296t-261.5 -296q82 14 159 67zM231 -90q186 0 403 173q-10 -1 -29 -1
q-74 0 -111.5 40t-37.5 112q0 30 5 53q-81 9 -81 90q0 60 44.5 137t114 144.5t166 114.5t189.5 47q70 0 102 -33.5t32 -87.5v-8q54 69 54 142q0 59 -43.5 97t-133.5 38q-108 0 -231 -64.5t-230 -167.5t-195.5 -222t-140 -238.5t-51.5 -206.5q0 -77 47 -118t127 -41zM605 87
q11 0 37 2q154 127 262.5 294t117.5 295q-60 -67 -141 -80l-1 5q80 10 143 83v11q0 118 -129 118q-82 0 -175.5 -49t-165 -118t-119 -145.5t-47.5 -130.5q0 -73 75 -80q23 113 107 208t175 95q43 0 43 -40q0 -32 -26 -78t-67 -88.5t-99.5 -72.5t-115.5 -30h-9q-7 -29 -7 -60
q0 -66 36 -102.5t106 -36.5zM745 590q-76 0 -161.5 -96t-112.5 -203h8q57 0 114.5 30t97.5 72t65.5 86.5t25.5 75.5q0 35 -37 35zM889 1074l145 123q22 0 34 3l-19 -126h-5l-3 97l-145 -97h-7z" />
    <glyph glyph-name="Otilde" unicode="&#xd5;" horiz-adv-x="875" 
d="M811 158l3 -4q-83 -57 -169 -69q-221 -180 -414 -180q-98 0 -143 52t-45 134q0 145 83.5 305.5t208.5 286t280 208t290 82.5q92 0 137 -39.5t45 -100.5q0 -81 -60 -150q-7 -128 -113.5 -296t-261.5 -296q82 14 159 67zM231 -90q186 0 403 173q-10 -1 -29 -1
q-74 0 -111.5 40t-37.5 112q0 30 5 53q-81 9 -81 90q0 60 44.5 137t114 144.5t166 114.5t189.5 47q70 0 102 -33.5t32 -87.5v-8q54 69 54 142q0 59 -43.5 97t-133.5 38q-108 0 -231 -64.5t-230 -167.5t-195.5 -222t-140 -238.5t-51.5 -206.5q0 -77 47 -118t127 -41zM605 87
q11 0 37 2q154 127 262.5 294t117.5 295q-60 -67 -141 -80l-1 5q80 10 143 83v11q0 118 -129 118q-82 0 -175.5 -49t-165 -118t-119 -145.5t-47.5 -130.5q0 -73 75 -80q23 113 107 208t175 95q43 0 43 -40q0 -32 -26 -78t-67 -88.5t-99.5 -72.5t-115.5 -30h-9q-7 -29 -7 -60
q0 -66 36 -102.5t106 -36.5zM745 590q-76 0 -161.5 -96t-112.5 -203h8q57 0 114.5 30t97.5 72t65.5 86.5t25.5 75.5q0 35 -37 35zM883 1088l-4 4q43 61 90 61q25 0 75 -22.5t73 -22.5q30 0 58 46l4 -3q-40 -64 -92 -64q-24 0 -72 23t-71 23q-18 0 -31 -10.5t-30 -34.5z" />
    <glyph glyph-name="Odieresis" unicode="&#xd6;" horiz-adv-x="875" 
d="M811 158l3 -4q-83 -57 -169 -69q-221 -180 -414 -180q-98 0 -143 52t-45 134q0 145 83.5 305.5t208.5 286t280 208t290 82.5q92 0 137 -39.5t45 -100.5q0 -81 -60 -150q-7 -128 -113.5 -296t-261.5 -296q82 14 159 67zM231 -90q186 0 403 173q-10 -1 -29 -1
q-74 0 -111.5 40t-37.5 112q0 30 5 53q-81 9 -81 90q0 60 44.5 137t114 144.5t166 114.5t189.5 47q70 0 102 -33.5t32 -87.5v-8q54 69 54 142q0 59 -43.5 97t-133.5 38q-108 0 -231 -64.5t-230 -167.5t-195.5 -222t-140 -238.5t-51.5 -206.5q0 -77 47 -118t127 -41zM605 87
q11 0 37 2q154 127 262.5 294t117.5 295q-60 -67 -141 -80l-1 5q80 10 143 83v11q0 118 -129 118q-82 0 -175.5 -49t-165 -118t-119 -145.5t-47.5 -130.5q0 -73 75 -80q23 113 107 208t175 95q43 0 43 -40q0 -32 -26 -78t-67 -88.5t-99.5 -72.5t-115.5 -30h-9q-7 -29 -7 -60
q0 -66 36 -102.5t106 -36.5zM745 590q-76 0 -161.5 -96t-112.5 -203h8q57 0 114.5 30t97.5 72t65.5 86.5t25.5 75.5q0 35 -37 35zM972 1156q22 0 22 -20q0 -15 -13 -30t-30 -15q-20 0 -20 20q0 16 12 30.5t29 14.5zM1128 1156q22 0 22 -20q0 -15 -13 -30t-30 -15
q-20 0 -20 20q0 16 12 30.5t29 14.5z" />
    <glyph glyph-name="multiply" unicode="&#xd7;" horiz-adv-x="402" 
d="M169 390l15 3l34 -159l185 154l8 -11l-190 -158l39 -178l-14 -4l-37 171l-200 -166l-8 11l204 170z" />
    <glyph glyph-name="Oslash" unicode="&#xd8;" horiz-adv-x="875" 
d="M811 158l3 -4q-83 -57 -169 -69q-221 -180 -414 -180q-61 0 -103 22l-83 -86q-5 0 -9 -1l87 90q-80 44 -80 161q0 145 83.5 305.5t208.5 286t280 208t290 82.5q123 0 165 -73l86 88q2 -1 7 -1l-90 -92q14 -30 14 -62q0 -81 -60 -150q-7 -128 -113.5 -296t-261.5 -296
q82 14 159 67zM57 69q0 -94 70 -135l331 339l3 14q-81 9 -81 90q0 60 44.5 137t114 144.5t166 114.5t189.5 47q47 0 80 -18l92 94q-39 72 -161 72q-108 0 -231 -64.5t-230 -167.5t-195.5 -222t-140 -238.5t-51.5 -206.5zM605 87q15 0 37 2q154 127 262.5 294t117.5 295
q-60 -67 -141 -80l-1 5q80 10 143 83v11q0 69 -47 98l-203 -208q14 -10 14 -32q0 -32 -26 -78t-67 -88.5t-99.5 -72.5t-115.5 -30l-12 -13q-4 -21 -4 -47q0 -66 36 -102.5t106 -36.5zM744 595q13 0 23 -5l204 209q-30 16 -77 16q-82 0 -175.5 -49t-165 -118t-119 -145.5
t-47.5 -130.5q0 -73 75 -80q23 113 107 208t175 95zM231 -90q186 0 403 173q-10 -1 -29 -1q-74 0 -111.5 40t-37.5 112q0 19 1 29l-324 -332q41 -21 98 -21zM782 555q0 19 -12 28l-286 -292q74 2 146 52t112 110.5t40 101.5zM745 590q-76 0 -161.5 -96t-112.5 -203h4
l289 296q-8 3 -19 3zM1082 833q0 32 -13 58l-89 -92q48 -31 48 -100v-8q54 69 54 142zM469 284l2 2h-1z" />
    <glyph glyph-name="Ugrave" unicode="&#xd9;" horiz-adv-x="1325" 
d="M941 -310q46 0 93 35t76 102l4 -2q-29 -68 -77.5 -104t-95.5 -36q-85 0 -85 103q0 57 22 123q-85 1 -85 72q0 61 52 154.5t146 225.5q-352 -458 -507 -458q-37 0 -52.5 21t-15.5 50q0 19 4 38.5t13.5 42t18.5 41.5t27 46.5t30.5 45.5t37 50.5t38.5 50t43.5 54.5t43.5 55
q120 151 177.5 248t57.5 171q0 25 -10.5 51t-34.5 53t-72.5 44t-114.5 17q-114 0 -221.5 -38.5t-186.5 -101t-139 -138t-91 -152.5t-31 -142q0 -72 42 -114.5t127 -42.5q84 0 173 51t154 124t107 153.5t42 139.5q0 42 -20.5 65t-71.5 23q-41 0 -94 -23.5t-108 -65.5
t-104.5 -112.5t-76.5 -153.5l-5 1q25 81 74 151.5t104.5 114.5t111 68.5t99.5 24.5q102 0 102 -106q0 -71 -41.5 -157t-108.5 -151q-157 -153 -336 -153q-88 0 -131.5 44t-43.5 119q0 66 31 144t92 154.5t141 139t187.5 101t222.5 38.5q124 0 183 -55t59 -135
q0 -171 -212 -423q-278 -331 -278 -416q0 -23 16 -36.5t41 -13.5q48 0 116.5 47t135.5 115t150.5 169.5t144.5 183t134 182.5l102 147q26 0 50 3q-22 -32 -171.5 -238t-246 -355t-96.5 -193q0 -53 77 -55q36 103 113 209.5t159.5 173.5t136.5 67q49 0 49 -52
q0 -40 -40 -106.5t-101.5 -131t-144.5 -112.5t-159 -52q-30 -73 -30 -124q0 -98 78 -98zM1289 361q-45 0 -123 -70.5t-154 -175t-117 -198.5q73 4 154.5 51.5t142.5 111t101 129t40 105.5q0 47 -44 47zM1121 918h-4l-35 143q12 -4 38 -4z" />
    <glyph glyph-name="Uacute" unicode="&#xda;" horiz-adv-x="1325" 
d="M941 -310q46 0 93 35t76 102l4 -2q-29 -68 -77.5 -104t-95.5 -36q-85 0 -85 103q0 57 22 123q-85 1 -85 72q0 61 52 154.5t146 225.5q-352 -458 -507 -458q-37 0 -52.5 21t-15.5 50q0 19 4 38.5t13.5 42t18.5 41.5t27 46.5t30.5 45.5t37 50.5t38.5 50t43.5 54.5t43.5 55
q120 151 177.5 248t57.5 171q0 25 -10.5 51t-34.5 53t-72.5 44t-114.5 17q-114 0 -221.5 -38.5t-186.5 -101t-139 -138t-91 -152.5t-31 -142q0 -72 42 -114.5t127 -42.5q84 0 173 51t154 124t107 153.5t42 139.5q0 42 -20.5 65t-71.5 23q-41 0 -94 -23.5t-108 -65.5
t-104.5 -112.5t-76.5 -153.5l-5 1q25 81 74 151.5t104.5 114.5t111 68.5t99.5 24.5q102 0 102 -106q0 -71 -41.5 -157t-108.5 -151q-157 -153 -336 -153q-88 0 -131.5 44t-43.5 119q0 66 31 144t92 154.5t141 139t187.5 101t222.5 38.5q124 0 183 -55t59 -135
q0 -171 -212 -423q-278 -331 -278 -416q0 -23 16 -36.5t41 -13.5q48 0 116.5 47t135.5 115t150.5 169.5t144.5 183t134 182.5l102 147q26 0 50 3q-22 -32 -171.5 -238t-246 -355t-96.5 -193q0 -53 77 -55q36 103 113 209.5t159.5 173.5t136.5 67q49 0 49 -52
q0 -40 -40 -106.5t-101.5 -131t-144.5 -112.5t-159 -52q-30 -73 -30 -124q0 -98 78 -98zM1289 361q-45 0 -123 -70.5t-154 -175t-117 -198.5q73 4 154.5 51.5t142.5 111t101 129t40 105.5q0 47 -44 47zM1158 909h-6l86 116q35 0 54 4z" />
    <glyph glyph-name="Ucircumflex" unicode="&#xdb;" horiz-adv-x="1325" 
d="M941 -310q46 0 93 35t76 102l4 -2q-29 -68 -77.5 -104t-95.5 -36q-85 0 -85 103q0 57 22 123q-85 1 -85 72q0 61 52 154.5t146 225.5q-352 -458 -507 -458q-37 0 -52.5 21t-15.5 50q0 19 4 38.5t13.5 42t18.5 41.5t27 46.5t30.5 45.5t37 50.5t38.5 50t43.5 54.5t43.5 55
q120 151 177.5 248t57.5 171q0 25 -10.5 51t-34.5 53t-72.5 44t-114.5 17q-114 0 -221.5 -38.5t-186.5 -101t-139 -138t-91 -152.5t-31 -142q0 -72 42 -114.5t127 -42.5q84 0 173 51t154 124t107 153.5t42 139.5q0 42 -20.5 65t-71.5 23q-41 0 -94 -23.5t-108 -65.5
t-104.5 -112.5t-76.5 -153.5l-5 1q25 81 74 151.5t104.5 114.5t111 68.5t99.5 24.5q102 0 102 -106q0 -71 -41.5 -157t-108.5 -151q-157 -153 -336 -153q-88 0 -131.5 44t-43.5 119q0 66 31 144t92 154.5t141 139t187.5 101t222.5 38.5q124 0 183 -55t59 -135
q0 -171 -212 -423q-278 -331 -278 -416q0 -23 16 -36.5t41 -13.5q48 0 116.5 47t135.5 115t150.5 169.5t144.5 183t134 182.5l102 147q26 0 50 3q-22 -32 -171.5 -238t-246 -355t-96.5 -193q0 -53 77 -55q36 103 113 209.5t159.5 173.5t136.5 67q49 0 49 -52
q0 -40 -40 -106.5t-101.5 -131t-144.5 -112.5t-159 -52q-30 -73 -30 -124q0 -98 78 -98zM1289 361q-45 0 -123 -70.5t-154 -175t-117 -198.5q73 4 154.5 51.5t142.5 111t101 129t40 105.5q0 47 -44 47zM1098 919l145 123q22 0 34 3l-19 -126h-5l-3 97l-145 -97h-7z" />
    <glyph glyph-name="Udieresis" unicode="&#xdc;" horiz-adv-x="1325" 
d="M941 -310q46 0 93 35t76 102l4 -2q-29 -68 -77.5 -104t-95.5 -36q-85 0 -85 103q0 57 22 123q-85 1 -85 72q0 61 52 154.5t146 225.5q-352 -458 -507 -458q-37 0 -52.5 21t-15.5 50q0 19 4 38.5t13.5 42t18.5 41.5t27 46.5t30.5 45.5t37 50.5t38.5 50t43.5 54.5t43.5 55
q120 151 177.5 248t57.5 171q0 25 -10.5 51t-34.5 53t-72.5 44t-114.5 17q-114 0 -221.5 -38.5t-186.5 -101t-139 -138t-91 -152.5t-31 -142q0 -72 42 -114.5t127 -42.5q84 0 173 51t154 124t107 153.5t42 139.5q0 42 -20.5 65t-71.5 23q-41 0 -94 -23.5t-108 -65.5
t-104.5 -112.5t-76.5 -153.5l-5 1q25 81 74 151.5t104.5 114.5t111 68.5t99.5 24.5q102 0 102 -106q0 -71 -41.5 -157t-108.5 -151q-157 -153 -336 -153q-88 0 -131.5 44t-43.5 119q0 66 31 144t92 154.5t141 139t187.5 101t222.5 38.5q124 0 183 -55t59 -135
q0 -171 -212 -423q-278 -331 -278 -416q0 -23 16 -36.5t41 -13.5q48 0 116.5 47t135.5 115t150.5 169.5t144.5 183t134 182.5l102 147q26 0 50 3q-22 -32 -171.5 -238t-246 -355t-96.5 -193q0 -53 77 -55q36 103 113 209.5t159.5 173.5t136.5 67q49 0 49 -52
q0 -40 -40 -106.5t-101.5 -131t-144.5 -112.5t-159 -52q-30 -73 -30 -124q0 -98 78 -98zM1289 361q-45 0 -123 -70.5t-154 -175t-117 -198.5q73 4 154.5 51.5t142.5 111t101 129t40 105.5q0 47 -44 47zM1127 1000q22 0 22 -20q0 -15 -13 -30t-30 -15q-20 0 -20 20
q0 16 12 30.5t29 14.5zM1283 1000q22 0 22 -20q0 -15 -13 -30t-30 -15q-20 0 -20 20q0 16 12 30.5t29 14.5z" />
    <glyph glyph-name="Yacute" unicode="&#xdd;" horiz-adv-x="906" 
d="M171 482h-5q0 56 31 119t78 114.5t109 85.5t119 34q91 0 91 -97q0 -93 -64 -198.5t-169.5 -179.5t-211.5 -74q-155 0 -155 175q0 86 44.5 180.5t120 175t190.5 133t242 52.5q126 0 186.5 -52t60.5 -130q0 -67 -44.5 -151t-132.5 -201q-26 -34 -74.5 -93.5t-74.5 -93.5
t-48.5 -73t-22.5 -63q0 -40 46 -40q81 0 219 126t293 335q90 148 119 191q18 0 44 2q-67 -105 -185.5 -295.5t-196.5 -314.5q-64 -102 -111 -169q62 -15 96.5 -48.5t34.5 -77.5q0 -59 -60 -113.5t-153 -54.5v5q91 0 149.5 53.5t58.5 109.5q0 42 -34.5 74.5t-95.5 46.5
q-152 -218 -282 -333.5t-248 -115.5q-33 0 -50.5 21t-17.5 58q0 41 20.5 90.5t64 101.5t103 95t145.5 70t182 27q30 0 44 -2l119 178q104 156 224 352q-139 -182 -269 -300t-213 -118q-58 0 -58 62q0 17 6 37t19.5 45t25 44.5t34 51t34.5 47t38.5 49.5t34.5 44
q100 130 151.5 217.5t51.5 150.5q0 19 -9.5 41.5t-32 48.5t-72.5 43t-119 17q-127 0 -241 -52.5t-189 -132.5t-118.5 -173.5t-43.5 -177.5q0 -169 147 -169q96 0 201.5 83t171 189.5t65.5 181.5q0 84 -82 84q-73 0 -151.5 -55t-129 -137t-50.5 -156zM582 -16q-96 0 -181 -27
t-143.5 -69.5t-101.5 -93.5t-63.5 -100t-20.5 -89q0 -35 16 -54.5t47 -19.5q101 0 218 115t270 336q-26 2 -41 2zM1053 925h-6l86 116q35 0 54 4z" />
    <glyph glyph-name="Thorn" unicode="&#xde;" horiz-adv-x="1407" 
d="M1010 755q167 0 279 -71q96 124 199 197t255 114l1 -5q-149 -41 -244.5 -110t-190.5 -209q120 -89 120 -223q0 -108 -67 -193t-166 -85q-32 0 -48 15t-16 39q0 59 50.5 112t115.5 74l1 -5q-71 -24 -116.5 -77t-45.5 -104q0 -21 14 -34t42 -13q50 0 101 48t82.5 120
t31.5 141q0 105 -102 180q-35 -52 -78 -125q-29 -50 -67 -111t-46 -74q-43 -70 -87.5 -126.5t-105.5 -113t-140.5 -99.5t-173.5 -70q116 -29 196 -29q205 0 366 133l6 -3q-162 -135 -372 -135q-96 0 -215 28q-138 -36 -307 -36q-77 0 -140.5 5t-106 13.5t-71.5 20t-42 23.5
t-13 25q0 28 55 47t133 19q74 0 149.5 -14.5t195 -49.5t147.5 -42q89 26 164 70t137 107t108 124.5t102 149.5q115 184 186 277q-111 70 -276 70q-118 0 -220.5 -30.5t-172.5 -79.5t-121 -110t-74.5 -122t-23.5 -117q0 -68 41.5 -110t128.5 -42q64 0 135 38.5t124.5 93
t88.5 115.5t35 105q0 72 -80 72q-43 0 -96 -23.5t-110.5 -81.5t-89.5 -139l-4 2q30 79 86 137t111.5 84t103.5 26q86 0 86 -80q0 -59 -32.5 -122t-85 -114.5t-125.5 -85t-147 -33.5q-88 0 -131.5 43.5t-43.5 114.5q0 57 24 119t75.5 123.5t122.5 111t174 80t221 30.5z
M282 -89q156 0 288 35q-38 10 -143.5 43t-179.5 48.5t-150 15.5q-79 0 -131 -18t-52 -43q0 -12 12.5 -23t41 -21.5t70 -18.5t104.5 -13t140 -5z" />
    <glyph glyph-name="germandbls" unicode="&#xdf;" horiz-adv-x="372" 
d="M133 333q167 270 298 270q30 0 51.5 -17t21.5 -46q0 -74 -135 -147q-70 -38 -100.5 -65.5t-30.5 -71.5q0 -23 1 -65.5t1 -60.5q0 -81 -55 -120q70 36 189 185q2 2 4 0.5t0 -3.5q-130 -164 -206 -193q-19 -7 -37 -7q-35 0 -51 18.5t-16 38.5t8.5 29.5t19.5 9.5
q19 0 19 -19q0 -11 -10.5 -20t-30.5 -9q9 -43 61 -43q32 0 52 26.5t20 77.5q0 20 -1 54.5t-1 39.5q0 35 9 63t19.5 45.5t37 37t42 28.5t54.5 29q132 70 132 143q0 25 -19 40.5t-48 15.5q-31 0 -65.5 -22.5t-62.5 -51.5t-67 -85t-62.5 -94t-64.5 -107
q-109 -182 -193.5 -308.5t-142 -199.5t-106.5 -112.5t-80.5 -51t-68.5 -11.5q-35 0 -64 19l3 4q29 -18 58 -18q32 0 57.5 9t60.5 39.5t70 73t93 127.5t121 183.5t162 258.5q30 49 46 72q-78 -4 -121 -18l-1 5q47 15 125 18z" />
    <glyph glyph-name="agrave" unicode="&#xe0;" horiz-adv-x="358" 
d="M213 342q33 0 33 -33q0 -12 -4 -23l30 47q25 0 39 2l-129 -203q-11 -17 -24 -36.5t-20.5 -30.5t-14 -22t-9.5 -18.5t-3 -13.5q0 -14 15 -14q76 0 234 198q2 2 4 0.5t0 -3.5q-158 -200 -239 -200q-28 0 -28 30q0 34 48 110l4 6q-116 -146 -184 -146q-30 0 -30 36
q0 33 19 80t45 83q31 44 102 97.5t112 53.5zM-35 -3q44 0 104 58.5t108 126.5l53 85q11 26 11 42q0 28 -29 28q-41 0 -106 -69t-112 -147t-47 -108q0 -16 18 -16zM227 449l-4 1l-1 122q9 -5 31 -10z" />
    <glyph glyph-name="aacute" unicode="&#xe1;" horiz-adv-x="358" 
d="M213 342q33 0 33 -33q0 -12 -4 -23l30 47q25 0 39 2l-129 -203q-11 -17 -24 -36.5t-20.5 -30.5t-14 -22t-9.5 -18.5t-3 -13.5q0 -14 15 -14q76 0 234 198q2 2 4 0.5t0 -3.5q-158 -200 -239 -200q-28 0 -28 30q0 34 48 110l4 6q-116 -146 -184 -146q-30 0 -30 36
q0 33 19 80t45 83q31 44 102 97.5t112 53.5zM-35 -3q44 0 104 58.5t108 126.5l53 85q11 26 11 42q0 28 -29 28q-41 0 -106 -69t-112 -147t-47 -108q0 -16 18 -16zM298 454h-5l72 97q29 0 45 3z" />
    <glyph glyph-name="acircumflex" unicode="&#xe2;" horiz-adv-x="358" 
d="M213 342q33 0 33 -33q0 -12 -4 -23l30 47q25 0 39 2l-129 -203q-11 -17 -24 -36.5t-20.5 -30.5t-14 -22t-9.5 -18.5t-3 -13.5q0 -14 15 -14q76 0 234 198q2 2 4 0.5t0 -3.5q-158 -200 -239 -200q-28 0 -28 30q0 34 48 110l4 6q-116 -146 -184 -146q-30 0 -30 36
q0 33 19 80t45 83q31 44 102 97.5t112 53.5zM-35 -3q44 0 104 58.5t108 126.5l53 85q11 26 11 42q0 28 -29 28q-41 0 -106 -69t-112 -147t-47 -108q0 -16 18 -16zM223 454l138 117q21 0 32 3l-18 -120h-5l-3 92l-137 -92h-7z" />
    <glyph glyph-name="atilde" unicode="&#xe3;" horiz-adv-x="358" 
d="M213 342q33 0 33 -33q0 -12 -4 -23l30 47q25 0 39 2l-129 -203q-11 -17 -24 -36.5t-20.5 -30.5t-14 -22t-9.5 -18.5t-3 -13.5q0 -14 15 -14q76 0 234 198q2 2 4 0.5t0 -3.5q-158 -200 -239 -200q-28 0 -28 30q0 34 48 110l4 6q-116 -146 -184 -146q-30 0 -30 36
q0 33 19 80t45 83q31 44 102 97.5t112 53.5zM-35 -3q44 0 104 58.5t108 126.5l53 85q11 26 11 42q0 28 -29 28q-41 0 -106 -69t-112 -147t-47 -108q0 -16 18 -16zM201 462l-4 3q34 48 71 48q21 0 59.5 -18t55.5 -18q22 0 48 37l4 -3q-32 -50 -73 -50q-19 0 -57.5 18.5
t-56.5 18.5q-22 0 -47 -36z" />
    <glyph glyph-name="adieresis" unicode="&#xe4;" horiz-adv-x="358" 
d="M213 342q33 0 33 -33q0 -12 -4 -23l30 47q25 0 39 2l-129 -203q-11 -17 -24 -36.5t-20.5 -30.5t-14 -22t-9.5 -18.5t-3 -13.5q0 -14 15 -14q76 0 234 198q2 2 4 0.5t0 -3.5q-158 -200 -239 -200q-28 0 -28 30q0 34 48 110l4 6q-116 -146 -184 -146q-30 0 -30 36
q0 33 19 80t45 83q31 44 102 97.5t112 53.5zM-35 -3q44 0 104 58.5t108 126.5l53 85q11 26 11 42q0 28 -29 28q-41 0 -106 -69t-112 -147t-47 -108q0 -16 18 -16zM272 510q18 0 18 -17q0 -13 -10.5 -25t-24.5 -12q-17 0 -17 17q0 12 10 24.5t24 12.5zM377 510q18 0 18 -17
q0 -13 -10.5 -25t-24.5 -12q-17 0 -17 17q0 12 10 24.5t24 12.5z" />
    <glyph glyph-name="aring" unicode="&#xe5;" horiz-adv-x="358" 
d="M213 342q33 0 33 -33q0 -12 -4 -23l30 47q25 0 39 2l-129 -203q-11 -17 -24 -36.5t-20.5 -30.5t-14 -22t-9.5 -18.5t-3 -13.5q0 -14 15 -14q76 0 234 198q2 2 4 0.5t0 -3.5q-158 -200 -239 -200q-28 0 -28 30q0 34 48 110l4 6q-116 -146 -184 -146q-30 0 -30 36
q0 33 19 80t45 83q31 44 102 97.5t112 53.5zM-35 -3q44 0 104 58.5t108 126.5l53 85q11 26 11 42q0 28 -29 28q-41 0 -106 -69t-112 -147t-47 -108q0 -16 18 -16zM279 495q0 22 17 39t42 17q19 0 31.5 -12t12.5 -29q0 -24 -17 -40t-41 -16q-20 0 -32.5 11.5t-12.5 29.5z
M287 496q0 -16 10.5 -25.5t27.5 -9.5q20 0 34.5 14.5t14.5 33.5q0 16 -10 25.5t-27 9.5q-21 0 -35.5 -14.5t-14.5 -33.5z" />
    <glyph glyph-name="ae" unicode="&#xe6;" horiz-adv-x="439" 
d="M178 -8q-52 0 -52 52q0 43 31 103q-122 -155 -192 -155q-30 0 -30 36q0 33 19 80t45 83q31 44 102 97.5t111 53.5q34 0 34 -35q0 -9 -4 -21l30 47q28 0 42 2l-40 -55q78 62 122 62q22 0 22 -17q0 -34 -71 -89.5t-151 -82.5q-54 -83 -54 -124q0 -32 35 -32q109 0 264 198
q2 2 4 0.5t-1 -4.5q-155 -199 -266 -199zM-35 -3q44 0 104 58.5t108 126.5l53 85q11 26 11 42q0 28 -29 28q-41 0 -106 -69t-112 -147t-47 -108q0 -16 18 -16zM398 337q-36 0 -93 -53.5t-104 -123.5q80 28 146 81.5t66 83.5q0 12 -15 12z" />
    <glyph glyph-name="ccedilla" unicode="&#xe7;" horiz-adv-x="268" 
d="M-69 -54l43 49q-30 8 -30 47q0 61 37 121.5t96 106.5q94 72 143 72q30 0 30 -32q0 -17 -9.5 -31.5t-24.5 -14.5t-15 14q0 15 22 24.5t22 10.5q-2 24 -25 24q-41 0 -105.5 -63.5t-110.5 -138t-46 -108.5q0 -30 37 -30q58 0 131.5 54t143.5 144q2 2 4 0.5t-1 -4.5
q-64 -83 -140 -141t-138 -58q-11 0 -15 1l-37 -42q26 -4 39 -17.5t13 -32.5q0 -25 -22 -45t-57 -20q-31 0 -56 14l1 3q22 -11 48 -11q27 0 45.5 18t18.5 40q0 36 -42 46z" />
    <glyph glyph-name="egrave" unicode="&#xe8;" horiz-adv-x="256" 
d="M-57 40q0 60 35 119t81.5 97.5t89.5 62t64 23.5q22 0 22 -17q0 -34 -70 -89t-149 -82q-57 -88 -57 -129q0 -28 35 -28q109 0 264 198q2 2 4 0.5t-1 -4.5q-155 -199 -266 -199q-52 0 -52 48zM215 337q-35 0 -91 -53t-103 -123q79 28 144 81.5t65 82.5q0 12 -15 12z
M203 449l-4 1l-1 122q9 -5 31 -10z" />
    <glyph glyph-name="eacute" unicode="&#xe9;" horiz-adv-x="256" 
d="M-57 40q0 60 35 119t81.5 97.5t89.5 62t64 23.5q22 0 22 -17q0 -34 -70 -89t-149 -82q-57 -88 -57 -129q0 -28 35 -28q109 0 264 198q2 2 4 0.5t-1 -4.5q-155 -199 -266 -199q-52 0 -52 48zM215 337q-35 0 -91 -53t-103 -123q79 28 144 81.5t65 82.5q0 12 -15 12z
M240 454h-5l72 97q29 0 45 3z" />
    <glyph glyph-name="ecircumflex" unicode="&#xea;" horiz-adv-x="256" 
d="M-57 40q0 60 35 119t81.5 97.5t89.5 62t64 23.5q22 0 22 -17q0 -34 -70 -89t-149 -82q-57 -88 -57 -129q0 -28 35 -28q109 0 264 198q2 2 4 0.5t-1 -4.5q-155 -199 -266 -199q-52 0 -52 48zM215 337q-35 0 -91 -53t-103 -123q79 28 144 81.5t65 82.5q0 12 -15 12z
M159 454l138 117q21 0 32 3l-18 -120h-5l-3 92l-137 -92h-7z" />
    <glyph glyph-name="edieresis" unicode="&#xeb;" horiz-adv-x="256" 
d="M-57 40q0 60 35 119t81.5 97.5t89.5 62t64 23.5q22 0 22 -17q0 -34 -70 -89t-149 -82q-57 -88 -57 -129q0 -28 35 -28q109 0 264 198q2 2 4 0.5t-1 -4.5q-155 -199 -266 -199q-52 0 -52 48zM215 337q-35 0 -91 -53t-103 -123q79 28 144 81.5t65 82.5q0 12 -15 12z
M218 510q18 0 18 -17q0 -13 -10.5 -25t-24.5 -12q-17 0 -17 17q0 12 10 24.5t24 12.5zM323 510q18 0 18 -17q0 -13 -10.5 -25t-24.5 -12q-17 0 -17 17q0 12 10 24.5t24 12.5z" />
    <glyph glyph-name="igrave" unicode="&#xec;" horiz-adv-x="187" 
d="M142 449l-4 1l-1 122q9 -5 31 -10zM-46 -8q-28 0 -28 30q0 34 48 110l61 97q-13 -18 -37 -47q-2 -2 -4 -1t0 4q54 68 91 122l16 26q25 0 39 2l-143 -225q-5 -8 -15 -23t-16 -24.5t-13 -20.5t-10 -18.5t-3 -12.5q0 -14 15 -14q76 0 234 198q1 2 3 0.5t1 -3.5
q-158 -200 -239 -200z" />
    <glyph glyph-name="iacute" unicode="&#xed;" horiz-adv-x="187" 
d="M170 454h-5l72 97q29 0 45 3zM-46 -8q-28 0 -28 30q0 34 48 110l61 97q-13 -18 -37 -47q-2 -2 -4 -1t0 4q54 68 91 122l16 26q25 0 39 2l-143 -225q-5 -8 -15 -23t-16 -24.5t-13 -20.5t-10 -18.5t-3 -12.5q0 -14 15 -14q76 0 234 198q1 2 3 0.5t1 -3.5
q-158 -200 -239 -200z" />
    <glyph glyph-name="icircumflex" unicode="&#xee;" horiz-adv-x="187" 
d="M94 454l138 117q21 0 32 3l-18 -120h-5l-3 92l-137 -92h-7zM-46 -8q-28 0 -28 30q0 34 48 110l61 97q-13 -18 -37 -47q-2 -2 -4 -1t0 4q54 68 91 122l16 26q25 0 39 2l-143 -225q-5 -8 -15 -23t-16 -24.5t-13 -20.5t-10 -18.5t-3 -12.5q0 -14 15 -14q76 0 234 198
q1 2 3 0.5t1 -3.5q-158 -200 -239 -200z" />
    <glyph glyph-name="idieresis" unicode="&#xef;" horiz-adv-x="187" 
d="M145 510q18 0 18 -17q0 -13 -10.5 -25t-24.5 -12q-17 0 -17 17q0 12 10 24.5t24 12.5zM250 510q18 0 18 -17q0 -13 -10.5 -25t-24.5 -12q-17 0 -17 17q0 12 10 24.5t24 12.5zM-46 -8q-28 0 -28 30q0 34 48 110l61 97q-13 -18 -37 -47q-2 -2 -4 -1t0 4q54 68 91 122l16 26
q25 0 39 2l-143 -225q-5 -8 -15 -23t-16 -24.5t-13 -20.5t-10 -18.5t-3 -12.5q0 -14 15 -14q76 0 234 198q1 2 3 0.5t1 -3.5q-158 -200 -239 -200z" />
    <glyph glyph-name="eth" unicode="&#xf0;" horiz-adv-x="317" 
d="M246 494l-1 7l113 61q8 50 8 92q0 50 -15 87l5 2q20 -50 20 -121q0 -25 -3 -52l100 54l1 -7l-101 -55q-12 -124 -68 -251t-137 -215t-161 -102q-14 -2 -19 -2q-46 0 -46 44q0 81 56 155q37 49 105.5 100t103.5 51t35 -37q0 -43 -36 -110q117 179 150 358zM207 337
q-35 0 -96.5 -63t-108 -139t-46.5 -113q0 -25 33 -25q42 0 102 57t103 131t43 120q0 32 -30 32z" />
    <glyph glyph-name="ntilde" unicode="&#xf1;" horiz-adv-x="444" 
d="M136 209l-31 -48q145 181 221 181q34 0 34 -35q0 -43 -75 -151q-4 -6 -22.5 -32t-26 -37t-19 -29.5t-16.5 -29.5t-5 -18q0 -13 16 -13q76 0 234 198q2 2 4 0.5t0 -3.5q-158 -200 -238 -200q-13 0 -22.5 8t-9.5 24q0 43 80 159q9 13 24 34.5t24 34.5t18.5 28t14 25t4.5 17
q0 15 -20 15q-83 0 -248 -221l-73 -115q-12 0 -38 -2l136 215q5 8 16 25t17.5 27t14 23t11 22t3.5 14q0 12 -15 12q-8 0 -15 -2.5t-16 -10t-16.5 -14.5t-20 -22.5t-22 -28t-28 -36t-33.5 -41.5q-2 -2 -4 -1t0 4q81 104 106.5 130.5t50.5 26.5q27 0 27 -29q0 -38 -42 -104z
M242 462l-4 3q34 48 71 48q21 0 59.5 -18t55.5 -18q22 0 48 37l4 -3q-32 -50 -73 -50q-19 0 -57.5 18.5t-56.5 18.5q-22 0 -47 -36z" />
    <glyph glyph-name="ograve" unicode="&#xf2;" horiz-adv-x="255" 
d="M-2 191q28 40 98 95.5t110 55.5q36 0 36 -37q0 -47 -40.5 -121.5t-102 -133t-111.5 -58.5q-46 0 -46 54q0 67 56 145zM207 337q-35 0 -96 -62.5t-107 -138.5t-46 -113q0 -26 31 -26q62 0 139 91t101 175q-19 9 -19 30q0 24 23 30q-6 14 -26 14zM219 449l-4 1l-1 122
q9 -5 31 -10z" />
    <glyph glyph-name="oacute" unicode="&#xf3;" horiz-adv-x="255" 
d="M-2 191q28 40 98 95.5t110 55.5q36 0 36 -37q0 -47 -40.5 -121.5t-102 -133t-111.5 -58.5q-46 0 -46 54q0 67 56 145zM207 337q-35 0 -96 -62.5t-107 -138.5t-46 -113q0 -26 31 -26q62 0 139 91t101 175q-19 9 -19 30q0 24 23 30q-6 14 -26 14zM252 454h-5l72 97
q29 0 45 3z" />
    <glyph glyph-name="ocircumflex" unicode="&#xf4;" horiz-adv-x="255" 
d="M-2 191q28 40 98 95.5t110 55.5q36 0 36 -37q0 -47 -40.5 -121.5t-102 -133t-111.5 -58.5q-46 0 -46 54q0 67 56 145zM207 337q-35 0 -96 -62.5t-107 -138.5t-46 -113q0 -26 31 -26q62 0 139 91t101 175q-19 9 -19 30q0 24 23 30q-6 14 -26 14zM179 454l138 117
q21 0 32 3l-18 -120h-5l-3 92l-137 -92h-7z" />
    <glyph glyph-name="otilde" unicode="&#xf5;" horiz-adv-x="255" 
d="M-2 191q28 40 98 95.5t110 55.5q36 0 36 -37q0 -47 -40.5 -121.5t-102 -133t-111.5 -58.5q-46 0 -46 54q0 67 56 145zM207 337q-35 0 -96 -62.5t-107 -138.5t-46 -113q0 -26 31 -26q62 0 139 91t101 175q-19 9 -19 30q0 24 23 30q-6 14 -26 14zM173 462l-4 3q34 48 71 48
q21 0 59.5 -18t55.5 -18q22 0 48 37l4 -3q-32 -50 -73 -50q-19 0 -57.5 18.5t-56.5 18.5q-22 0 -47 -36z" />
    <glyph glyph-name="odieresis" unicode="&#xf6;" horiz-adv-x="255" 
d="M-2 191q28 40 98 95.5t110 55.5q36 0 36 -37q0 -47 -40.5 -121.5t-102 -133t-111.5 -58.5q-46 0 -46 54q0 67 56 145zM207 337q-35 0 -96 -62.5t-107 -138.5t-46 -113q0 -26 31 -26q62 0 139 91t101 175q-19 9 -19 30q0 24 23 30q-6 14 -26 14zM214 510q18 0 18 -17
q0 -13 -10.5 -25t-24.5 -12q-17 0 -17 17q0 12 10 24.5t24 12.5zM319 510q18 0 18 -17q0 -13 -10.5 -25t-24.5 -12q-17 0 -17 17q0 12 10 24.5t24 12.5z" />
    <glyph glyph-name="divide" unicode="&#xf7;" horiz-adv-x="402" 
d="M266 346q0 12 9 23t22 11q21 0 21 -22q0 -15 -10 -25t-21 -10q-21 0 -21 23zM41 207l4 14h320l-5 -14h-319zM93 72q0 12 9 23t22 11q21 0 21 -22q0 -15 -10 -25t-21 -10q-21 0 -21 23z" />
    <glyph glyph-name="oslash" unicode="&#xf8;" horiz-adv-x="255" 
d="M-2 191q28 40 98 95.5t110 55.5q36 0 36 -37v-3l59 56l4 -5l-64 -61q-6 -50 -46.5 -120.5t-99.5 -125t-107 -54.5q-28 0 -39 21l-51 -48l-4 5l52 49q-4 16 -4 27q0 67 56 145zM229 263q-7 3 -11 7l-260 -248q1 -25 31 -25q62 0 139 91t101 175zM207 337
q-52 0 -145 -119.5t-103 -185.5l255 243q-4 8 -4 18q0 24 23 30q-6 14 -26 14z" />
    <glyph glyph-name="ugrave" unicode="&#xf9;" horiz-adv-x="368" 
d="M88 312l13 21q19 0 39 2l-60 -94q-19 -31 -57.5 -89t-57.5 -91t-19 -47q0 -17 25 -17q27 0 59.5 21t69 62.5t57 68t53.5 71.5l72 113q25 0 39 2l-143 -225q-5 -8 -15 -23t-16 -24.5t-13 -20.5t-10 -18.5t-3 -12.5q0 -14 15 -14q76 0 234 198q2 2 4 0.5t0 -3.5
q-158 -200 -239 -200q-28 0 -28 30q0 34 48 110l23 37q-61 -80 -112.5 -128.5t-96.5 -48.5q-39 0 -39 34q0 20 11.5 47.5t25 49t37 56.5t33.5 52l-39 -49q-2 -2 -4 -1t0 4q59 75 94 127zM227 449l-4 1l-1 122q9 -5 31 -10z" />
    <glyph glyph-name="uacute" unicode="&#xfa;" horiz-adv-x="368" 
d="M88 312l13 21q19 0 39 2l-60 -94q-19 -31 -57.5 -89t-57.5 -91t-19 -47q0 -17 25 -17q27 0 59.5 21t69 62.5t57 68t53.5 71.5l72 113q25 0 39 2l-143 -225q-5 -8 -15 -23t-16 -24.5t-13 -20.5t-10 -18.5t-3 -12.5q0 -14 15 -14q76 0 234 198q2 2 4 0.5t0 -3.5
q-158 -200 -239 -200q-28 0 -28 30q0 34 48 110l23 37q-61 -80 -112.5 -128.5t-96.5 -48.5q-39 0 -39 34q0 20 11.5 47.5t25 49t37 56.5t33.5 52l-39 -49q-2 -2 -4 -1t0 4q59 75 94 127zM253 454h-5l72 97q29 0 45 3z" />
    <glyph glyph-name="ucircumflex" unicode="&#xfb;" horiz-adv-x="368" 
d="M88 312l13 21q19 0 39 2l-60 -94q-19 -31 -57.5 -89t-57.5 -91t-19 -47q0 -17 25 -17q27 0 59.5 21t69 62.5t57 68t53.5 71.5l72 113q25 0 39 2l-143 -225q-5 -8 -15 -23t-16 -24.5t-13 -20.5t-10 -18.5t-3 -12.5q0 -14 15 -14q76 0 234 198q2 2 4 0.5t0 -3.5
q-158 -200 -239 -200q-28 0 -28 30q0 34 48 110l23 37q-61 -80 -112.5 -128.5t-96.5 -48.5q-39 0 -39 34q0 20 11.5 47.5t25 49t37 56.5t33.5 52l-39 -49q-2 -2 -4 -1t0 4q59 75 94 127zM186 454l138 117q21 0 32 3l-18 -120h-5l-3 92l-137 -92h-7z" />
    <glyph glyph-name="udieresis" unicode="&#xfc;" horiz-adv-x="368" 
d="M88 312l13 21q19 0 39 2l-60 -94q-19 -31 -57.5 -89t-57.5 -91t-19 -47q0 -17 25 -17q27 0 59.5 21t69 62.5t57 68t53.5 71.5l72 113q25 0 39 2l-143 -225q-5 -8 -15 -23t-16 -24.5t-13 -20.5t-10 -18.5t-3 -12.5q0 -14 15 -14q76 0 234 198q2 2 4 0.5t0 -3.5
q-158 -200 -239 -200q-28 0 -28 30q0 34 48 110l23 37q-61 -80 -112.5 -128.5t-96.5 -48.5q-39 0 -39 34q0 20 11.5 47.5t25 49t37 56.5t33.5 52l-39 -49q-2 -2 -4 -1t0 4q59 75 94 127zM227 510q18 0 18 -17q0 -13 -10.5 -25t-24.5 -12q-17 0 -17 17q0 12 10 24.5t24 12.5z
M332 510q18 0 18 -17q0 -13 -10.5 -25t-24.5 -12q-17 0 -17 17q0 12 10 24.5t24 12.5z" />
    <glyph glyph-name="yacute" unicode="&#xfd;" horiz-adv-x="445" 
d="M451 192q-35 -43 -49 -59q-53 -61 -110.5 -108.5t-152.5 -114.5q-125 -196 -229.5 -315t-161.5 -119q-30 0 -30 29q0 90 355 361q56 88 96 153t65 106.5t34 56.5q-149 -190 -229 -190q-34 0 -34 33q0 35 41.5 100t83 122.5t41.5 74.5q0 15 -15 15q-24 0 -48 -24t-79 -92
q-6 -8 -10 -12.5t-10 -12t-11 -14.5q-2 -2 -4 -1t0 4q43 55 59.5 74.5t39.5 44.5t35.5 31.5t27.5 6.5q14 0 21.5 -8.5t7.5 -21.5q0 -31 -26 -79t-56.5 -88.5t-56.5 -79t-26 -54.5q0 -14 19 -14q83 0 257 229l68 107q23 0 39 2q-147 -232 -191 -307q-15 -26 -67 -108
q64 46 94.5 69t75.5 63t83 84q15 17 49 59q1 2 3 0.5t1 -3.5zM-253 -519q78 0 319 374q-343 -261 -343 -350q0 -24 24 -24zM324 454h-5l72 97q29 0 45 3z" />
    <glyph glyph-name="thorn" unicode="&#xfe;" horiz-adv-x="376" 
d="M144 -3q76 0 234 198q2 2 4 0.5t0 -3.5q-158 -200 -238 -200q-13 0 -22.5 8t-9.5 24q0 43 80 159q9 13 24 34.5t24 34.5t18.5 28t14 25t4.5 17q0 15 -20 15q-80 0 -244 -215l-361 -568q-24 0 -40 -3l467 733l-80 -101q-2 -4 -6 -2q-1 1 1 4q91 112 134 177l241 377
q22 0 38 2l-368 -578q141 179 219 179q34 0 34 -35q0 -43 -75 -151q-4 -6 -22.5 -32t-26 -37t-19 -29.5t-16.5 -29.5t-5 -18q0 -13 16 -13z" />
    <glyph glyph-name="ydieresis" unicode="&#xff;" horiz-adv-x="445" 
d="M451 192q-35 -43 -49 -59q-53 -61 -110.5 -108.5t-152.5 -114.5q-125 -196 -229.5 -315t-161.5 -119q-30 0 -30 29q0 90 355 361q56 88 96 153t65 106.5t34 56.5q-149 -190 -229 -190q-34 0 -34 33q0 35 41.5 100t83 122.5t41.5 74.5q0 15 -15 15q-24 0 -48 -24t-79 -92
q-6 -8 -10 -12.5t-10 -12t-11 -14.5q-2 -2 -4 -1t0 4q43 55 59.5 74.5t39.5 44.5t35.5 31.5t27.5 6.5q14 0 21.5 -8.5t7.5 -21.5q0 -31 -26 -79t-56.5 -88.5t-56.5 -79t-26 -54.5q0 -14 19 -14q83 0 257 229l68 107q23 0 39 2q-147 -232 -191 -307q-15 -26 -67 -108
q64 46 94.5 69t75.5 63t83 84q15 17 49 59q1 2 3 0.5t1 -3.5zM-253 -519q78 0 319 374q-343 -261 -343 -350q0 -24 24 -24zM286 510q18 0 18 -17q0 -13 -10.5 -25t-24.5 -12q-17 0 -17 17q0 12 10 24.5t24 12.5zM391 510q18 0 18 -17q0 -13 -10.5 -25t-24.5 -12
q-17 0 -17 17q0 12 10 24.5t24 12.5z" />
    <glyph glyph-name="dotlessi" unicode="&#x131;" horiz-adv-x="187" 
d="M-46 -8q-28 0 -28 30q0 34 48 110l61 97q-13 -18 -37 -47q-2 -2 -4 -1t0 4q54 68 91 122l16 26q25 0 39 2l-143 -225q-5 -8 -15 -23t-16 -24.5t-13 -20.5t-10 -18.5t-3 -12.5q0 -14 15 -14q76 0 234 198q1 2 3 0.5t1 -3.5q-158 -200 -239 -200z" />
    <glyph glyph-name="Lslash" unicode="&#x141;" horiz-adv-x="1374" 
d="M877 986q-166 0 -266.5 -95.5t-100.5 -221.5q0 -115 103 -190t301 -75q42 0 75 4l37 59q46 75 74.5 119t73.5 108.5t81 102.5t81 76.5t90.5 56t92.5 17.5q45 0 65.5 -23t20.5 -55q0 -52 -44.5 -121.5t-118 -137t-182 -123.5t-223.5 -77q-41 -65 -75 -112l251 82v-5
l-255 -83q-84 -116 -179 -198t-220 -129q69 -19 106.5 -28t93.5 -18t104 -9q107 0 199.5 33.5t149 82.5t88 99.5t31.5 90.5q0 57 -65 57q-77 0 -171.5 -95t-132.5 -193l-6 1q48 119 133.5 205.5t177.5 86.5q69 0 69 -62q0 -33 -20 -73.5t-61 -82.5t-95.5 -76.5t-132.5 -56.5
t-164 -22q-144 0 -336 48q-147 -48 -329 -48q-143 0 -224.5 27.5t-81.5 63.5q0 24 38 39.5t106 15.5q98 0 200 -14.5t158 -28t153 -40.5q104 41 187 115.5t165 189.5l-196 -64v5l200 65q36 50 83 124q-32 -4 -73 -4q-210 0 -317.5 82.5t-107.5 201.5q0 58 26.5 112.5
t74 98.5t122.5 70.5t165 26.5q103 0 155.5 -42.5t52.5 -105.5q0 -74 -64.5 -136.5t-165.5 -64.5v5q98 2 161.5 63t63.5 133q0 60 -51 101.5t-151 41.5zM1066 457q-2 -4 -11.5 -18.5t-14.5 -22.5q113 21 219.5 76t179.5 121.5t117 135.5t44 120q0 28 -17.5 50.5t-63.5 22.5
q-35 0 -68.5 -12t-61.5 -30t-59 -50.5t-54 -61.5t-53.5 -75.5t-51 -80.5t-52.5 -87.5t-53 -87.5zM198 -90q182 0 317 46q-17 5 -88 24.5t-100 26t-86 18.5t-105.5 16.5t-99.5 4.5q-66 0 -102.5 -14.5t-36.5 -35.5q0 -15 18 -29.5t52.5 -27.5t94.5 -21t136 -8z" />
    <glyph glyph-name="lslash" unicode="&#x142;" horiz-adv-x="187" 
d="M-2 283l-1 7l117 63l245 386q22 0 38 2l-227 -357l106 57l1 -7l-114 -62l-166 -262q-6 -9 -15 -23t-15.5 -24t-13 -20.5t-10 -18.5t-3.5 -13q0 -14 14 -14q77 0 235 198q1 2 3 0.5t1 -3.5q-158 -200 -240 -200q-27 0 -27 30q0 34 48 110l62 99l-38 -49q-2 -2 -4 -1t0 4
q47 60 93 125l20 32z" />
    <glyph glyph-name="OE" unicode="&#x152;" horiz-adv-x="1447" 
d="M1288 418q59 0 88 -29.5t29 -78.5q0 -45 -22.5 -100t-66 -109t-101 -99t-134.5 -73t-159 -28q-109 0 -158.5 53t-49.5 138q0 28 4 52q-101 -112 -232.5 -175.5t-254.5 -63.5q-98 0 -143 52t-45 134q0 98 39 205.5t104 203.5t152.5 183.5t182 151t195 101t189.5 37.5
q92 0 137 -39.5t45 -100.5q0 -69 -50 -137q-1 -84 -48 -170q74 47 154 66q-6 21 -6 46q0 55 30.5 117t83.5 117t136 91t176 36q88 0 128 -37.5t40 -95.5q0 -102 -82 -194.5t-184 -92.5q-42 0 -65 21.5t-23 53.5q0 73 64.5 121t149.5 48h14v-4q-74 0 -147.5 -51.5
t-73.5 -114.5q0 -32 21 -50.5t60 -18.5q100 0 180.5 91t80.5 191q0 50 -34 85.5t-107 35.5q-82 0 -164.5 -39t-141 -96t-95.5 -120.5t-37 -112.5q0 -18 2 -26q37 7 63 7q35 0 54 -12.5t19 -29.5q0 -14 -14 -23.5t-38 -9.5q-65 0 -87 58q-97 -28 -193 -119.5t-154.5 -203.5
t-58.5 -202q0 -67 45.5 -109.5t136.5 -42.5q100 0 192 42t153 104.5t97 131.5t36 126q0 47 -27.5 74.5t-83.5 27.5q-89 0 -194 -89t-142 -203l-6 2q36 129 132.5 212.5t208.5 83.5zM525 105l-2 -4q-67 36 -67 133q0 30 5 53q-81 9 -81 90q0 60 44.5 137t114 144.5t166 114.5
t189.5 47q70 0 105.5 -33t37.5 -83q45 63 45 129q0 59 -43.5 97t-133.5 38q-108 0 -231 -64.5t-230 -167.5t-195.5 -222t-140 -238.5t-51.5 -206.5q0 -77 47 -118t127 -41q122 0 254.5 63t234.5 179q20 112 90 208t172 162q47 84 50 167q-61 -76 -151 -91l-1 5q90 12 152 94
v1q0 51 -33.5 84t-104.5 33q-82 0 -175.5 -49t-165 -118t-119 -145.5t-47.5 -130.5q0 -73 75 -80q23 113 107 208t175 95q43 0 43 -40q0 -32 -26 -78t-67 -88.5t-99.5 -72.5t-115.5 -30h-10q-7 -29 -7 -60q0 -87 63 -121zM745 590q-76 -1 -161.5 -96t-113.5 -203h9
q57 0 114.5 30t97.5 72t65.5 86.5t25.5 75.5q0 35 -37 35zM1216 594q-26 0 -64 -9q17 -55 81 -55q22 0 34.5 8.5t12.5 19.5q0 14 -17 25t-47 11z" />
    <glyph glyph-name="oe" unicode="&#x153;" horiz-adv-x="456" 
d="M-2 191q28 40 98 95.5t110 55.5q36 0 36 -37q0 -43 -31 -100q37 44 100.5 90.5t101.5 46.5q22 0 22 -17q0 -34 -70 -89t-149 -82q-57 -86 -57 -129q0 -28 35 -28q109 0 264 198q2 2 4 0.5t-1 -4.5q-155 -199 -266 -199q-29 0 -41.5 15t-12.5 33q0 39 20 83
q-41 -57 -87.5 -94t-85.5 -37q-46 0 -46 54q0 67 56 145zM207 337q-35 0 -96 -62.5t-107 -138.5t-46 -113q0 -26 31 -26q41 0 91 43.5t92 107.5q-37 0 -37 34q0 26 26 48t67 28q9 32 9 47q0 32 -30 32zM415 337q-35 0 -91 -53t-103 -123q79 28 144 81.5t65 82.5q0 12 -15 12
zM176 153q34 53 50 100q-28 -4 -54 -26t-26 -49q0 -25 30 -25z" />
    <glyph glyph-name="Scaron" unicode="&#x160;" horiz-adv-x="1147" 
d="M1180 1016v-5q-22 2 -46 2q-120 0 -195 -72t-75 -166q0 -92 84.5 -159.5t235.5 -67.5h17q50 90 85 148t78 119t79 94.5t78 55t86 21.5q82 0 82 -73q0 -47 -32.5 -105t-88 -113t-142 -97t-183.5 -52q-32 -61 -56 -105.5t-58.5 -102t-65 -99.5t-71.5 -90t-81 -81.5
t-90.5 -66t-103.5 -52.5t-116.5 -32t-132.5 -12q-108 0 -191 27t-131.5 73.5t-72.5 103t-24 121.5q0 92 47.5 176t140 139t208.5 55q150 0 226 -69t76 -169q0 -103 -79 -183t-203 -80q-97 0 -147 47t-50 110q0 64 47 113t122 49v-5q-73 0 -118.5 -48t-45.5 -109t48.5 -105.5
t138.5 -44.5q111 0 187 85.5t76 188.5q0 92 -69 153.5t-209 61.5q-87 0 -162.5 -32t-124.5 -84.5t-76.5 -117t-27.5 -131.5q0 -64 23.5 -119.5t71 -101t129 -72t188.5 -26.5q96 0 182.5 30t154 78.5t134 124.5t117 153t107.5 179l37 67h-14q-161 0 -247.5 71t-86.5 170
q0 95 77 164.5t208 69.5q23 0 45 -2zM1611 981q-30 0 -59 -11.5t-52.5 -27.5t-51 -49t-46 -59t-46.5 -75.5t-43.5 -79.5l-46.5 -90q-3 -6 -20 -38q95 11 180 53t139.5 96t86.5 110.5t32 100.5q0 70 -73 70zM1827 1197l-145 -123q-22 0 -34 -3l19 126h5l3 -97l145 97h7z" />
    <glyph glyph-name="scaron" unicode="&#x161;" horiz-adv-x="251" 
d="M-41 -8q-25 0 -34 1q-27 3 -44.5 19.5t-17.5 44.5q0 21 9.5 31.5t21.5 10.5t12 -10q0 -13 -36 -44q2 -19 18.5 -33t44.5 -14q36 0 88 54q46 46 78.5 110t32.5 117q0 33 -12 59q-18 -24 -121 -155q-3 -4 -5 -2t0 4q48 59 124 158q-6 13 -6 28q0 12 7.5 22.5t18.5 10.5
q14 0 14 -13q0 -16 -29 -49q20 -44 20 -99q0 -86 -47 -157t-122 -89q116 9 215 122q32 36 64 76q1 2 3 0.5t1 -3.5q-45 -55 -65 -77q-109 -123 -233 -123zM309 571l-138 -117q-21 0 -32 -3l18 120h5l3 -92l137 92h7z" />
    <glyph glyph-name="Ydieresis" unicode="&#x178;" horiz-adv-x="906" 
d="M171 482h-5q0 56 31 119t78 114.5t109 85.5t119 34q91 0 91 -97q0 -93 -64 -198.5t-169.5 -179.5t-211.5 -74q-155 0 -155 175q0 86 44.5 180.5t120 175t190.5 133t242 52.5q126 0 186.5 -52t60.5 -130q0 -67 -44.5 -151t-132.5 -201q-26 -34 -74.5 -93.5t-74.5 -93.5
t-48.5 -73t-22.5 -63q0 -40 46 -40q81 0 219 126t293 335q90 148 119 191q18 0 44 2q-67 -105 -185.5 -295.5t-196.5 -314.5q-64 -102 -111 -169q62 -15 96.5 -48.5t34.5 -77.5q0 -59 -60 -113.5t-153 -54.5v5q91 0 149.5 53.5t58.5 109.5q0 42 -34.5 74.5t-95.5 46.5
q-152 -218 -282 -333.5t-248 -115.5q-33 0 -50.5 21t-17.5 58q0 41 20.5 90.5t64 101.5t103 95t145.5 70t182 27q30 0 44 -2l119 178q104 156 224 352q-139 -182 -269 -300t-213 -118q-58 0 -58 62q0 17 6 37t19.5 45t25 44.5t34 51t34.5 47t38.5 49.5t34.5 44
q100 130 151.5 217.5t51.5 150.5q0 19 -9.5 41.5t-32 48.5t-72.5 43t-119 17q-127 0 -241 -52.5t-189 -132.5t-118.5 -173.5t-43.5 -177.5q0 -169 147 -169q96 0 201.5 83t171 189.5t65.5 181.5q0 84 -82 84q-73 0 -151.5 -55t-129 -137t-50.5 -156zM582 -16q-96 0 -181 -27
t-143.5 -69.5t-101.5 -93.5t-63.5 -100t-20.5 -89q0 -35 16 -54.5t47 -19.5q101 0 218 115t270 336q-26 2 -41 2zM1010 998q22 0 22 -20q0 -15 -13 -30t-30 -15q-20 0 -20 20q0 16 12 30.5t29 14.5zM1166 998q22 0 22 -20q0 -15 -13 -30t-30 -15q-20 0 -20 20q0 16 12 30.5
t29 14.5z" />
    <glyph glyph-name="Zcaron" unicode="&#x17d;" horiz-adv-x="1378" 
d="M589 358l1 5h213q57 67 153.5 191t101.5 130h-14q-105 0 -105 75q0 27 10.5 73t10.5 78q0 76 -161 76q-95 0 -182.5 -31t-151 -80.5t-111 -110.5t-71 -122.5t-23.5 -114.5q0 -60 32 -95t95 -35q79 0 157.5 38t134 93.5t90 117t34.5 108.5q0 37 -22 59t-67 22
q-101 0 -190 -86.5t-114 -178.5l-4 1q9 37 36 82t66.5 87.5t94.5 71t112 28.5q51 0 76.5 -27.5t25.5 -73.5q0 -48 -31.5 -107t-85 -113.5t-137 -91t-176.5 -36.5q-65 0 -98.5 37t-33.5 99q0 54 24 116.5t72 124t112 111.5t152.5 81t184.5 31q194 0 194 -109q0 -22 -12 -69.5
t-12 -68.5q0 -55 77 -55h15q79 99 136.5 150t104.5 51q33 0 33 -26t-37 -65.5t-103 -74.5t-133 -40q-6 -7 -101.5 -130.5t-152.5 -190.5h167l-1 -5h-170q-214 -253 -409 -358q11 -5 67.5 -32t76 -35t63 -24t77 -21.5t68.5 -5.5q106 0 200.5 27.5t160.5 70.5t114.5 95.5
t71.5 103t23 92.5q0 44 -25.5 70.5t-73.5 26.5q-56 0 -118 -33t-113 -83.5t-91.5 -107t-62.5 -107.5l-4 2q21 54 56 108.5t83.5 107.5t114 86t135.5 33q50 0 77 -28.5t27 -74.5q0 -57 -40.5 -124t-110.5 -128t-183 -102t-241 -41q-127 0 -219.5 27t-178.5 74
q-138 -64 -277 -64q-79 0 -119 20.5t-40 53.5q0 36 47 66.5t130 30.5q122 0 299 -82q194 104 408 356h-209zM73 -82q137 0 271 62q-13 7 -51 28t-54 28.5t-45.5 20t-54.5 17t-52 4.5q-78 0 -123 -28.5t-45 -62.5q0 -30 39 -49.5t115 -19.5zM1303 885q-46 0 -101.5 -49
t-133.5 -146q52 4 103 26t84.5 50t54.5 55t21 43q0 21 -28 21zM1120 1197l-145 -123q-22 0 -34 -3l19 126h5l3 -97l145 97h7z" />
    <glyph glyph-name="zcaron" unicode="&#x17e;" horiz-adv-x="351" 
d="M-2 182q-2 -4 -4 -1.5t0 4.5q37 46 81 114q-5 7 -5 21q0 22 14.5 42t35.5 20q15 0 15 -15t-23.5 -36t-27.5 -29q2 -9 17 -9q14 0 64 18.5t77 18.5q42 0 42 -35q0 -39 -42.5 -75t-91 -56.5t-101.5 -34.5q31 -9 47.5 -28t16.5 -57q0 -35 -13 -79q76 49 128.5 94.5
t124.5 135.5q2 2 4 0.5t0 -3.5q-49 -64 -95.5 -109.5t-76 -66.5t-88.5 -60q-35 -105 -133 -218.5t-213.5 -187.5t-198.5 -74q-38 0 -38 31q0 34 49 91t139 118q62 43 186 117.5t173 106.5q42 78 42 118q0 30 -16 45t-45 24v4q80 28 154.5 85.5t74.5 88.5q0 19 -29 19
q-27 0 -77.5 -18t-64.5 -18q-13 0 -21 8q-49 -79 -81 -114zM-447 -518q58 0 132 44t143 112t128.5 144.5t98.5 146.5q-32 -21 -156 -95.5t-194 -122.5q-83 -55 -134 -113.5t-51 -90.5q0 -25 33 -25zM410 571l-138 -117q-21 0 -32 -3l18 120h5l3 -92l137 92h7z" />
    <glyph glyph-name="florin" unicode="&#x192;" horiz-adv-x="362" 
d="M64 228l1 5h106q72 125 122 173t119 48q30 0 48.5 -13.5t18.5 -33.5q0 -13 -7 -22.5t-18 -9.5q-17 0 -17 16q0 9 4.5 21t4.5 19q0 18 -35 18q-50 0 -88 -42t-114 -174h108l-1 -5h-110l-64 -116q-89 -157 -157.5 -218t-138.5 -61q-32 0 -49.5 14.5t-17.5 33.5q0 29 21 29
q18 0 18 -19q0 -8 -4.5 -20t-4.5 -17q0 -7 11 -11.5t26 -4.5q62 0 114.5 60t138.5 209q10 18 19 34t15.5 26.5t11.5 20t8.5 15t6 10.5t4 7t2.5 4t1 2.5t1 1.5h-104z" />
    <glyph glyph-name="circumflex" unicode="&#x2c6;" horiz-adv-x="457" 
d="M247 454l138 117q21 0 32 3l-18 -120h-5l-3 92l-137 -92h-7z" />
    <glyph glyph-name="caron" unicode="&#x2c7;" horiz-adv-x="457" 
d="M445 571l-138 -117q-21 0 -32 -3l18 120h5l3 -92l137 92h7z" />
    <glyph glyph-name="breve" unicode="&#x2d8;" horiz-adv-x="457" 
d="M321 551h4q-8 -22 -8 -41q0 -35 31 -35q30 0 61 24t53 53l4 -1q-64 -99 -122 -99q-37 0 -37 42q0 27 14 57z" />
    <glyph glyph-name="dotaccent" unicode="&#x2d9;" horiz-adv-x="457" 
d="M346 512q19 0 19 -18q0 -14 -11 -27t-27 -13q-18 0 -18 18q0 14 10.5 27t26.5 13z" />
    <glyph glyph-name="ring" unicode="&#x2da;" horiz-adv-x="457" 
d="M308 495q0 22 17 39t42 17q19 0 31.5 -12t12.5 -29q0 -24 -17 -40t-41 -16q-20 0 -32.5 11.5t-12.5 29.5zM316 496q0 -16 10.5 -25.5t27.5 -9.5q20 0 34.5 14.5t14.5 33.5q0 16 -10 25.5t-27 9.5q-21 0 -35.5 -14.5t-14.5 -33.5z" />
    <glyph glyph-name="ogonek" unicode="&#x2db;" horiz-adv-x="457" 
d="M151 73l3 -3q-52 -50 -94 -112t-42 -94q0 -25 27 -25q42 0 86 60l3 -3q-43 -62 -89 -62q-22 0 -33 11.5t-11 27.5q0 19 7.5 38t26 41.5t32 37t43 42.5t41.5 41z" />
    <glyph glyph-name="tilde" unicode="&#x2dc;" horiz-adv-x="457" 
d="M257 462l-4 3q34 48 71 48q21 0 59.5 -18t55.5 -18q22 0 48 37l4 -3q-32 -50 -73 -50q-19 0 -57.5 18.5t-56.5 18.5q-22 0 -47 -36z" />
    <glyph glyph-name="hungarumlaut" unicode="&#x2dd;" horiz-adv-x="457" 
d="M286 454h-5l73 97q22 0 38 3zM364 454h-5l73 97q22 0 38 3z" />
    <glyph glyph-name="gravecomb" unicode="&#x300;" 
d="M-93 449l-4 1l-1 122q9 -5 31 -10z" />
    <glyph glyph-name="acutecomb" unicode="&#x301;" 
d="M-53 454h-5l72 97q29 0 45 3z" />
    <glyph glyph-name="uni0302" unicode="&#x302;" 
d="M-238 454l138 117q21 0 32 3l-18 -120h-5l-3 92l-137 -92h-7z" />
    <glyph glyph-name="tildecomb" unicode="&#x303;" 
d="M-257 462l-4 3q34 48 71 48q21 0 59.5 -18t55.5 -18q22 0 48 37l4 -3q-32 -50 -73 -50q-19 0 -57.5 18.5t-56.5 18.5q-22 0 -47 -36z" />
    <glyph glyph-name="uni0304" unicode="&#x304;" 
d="M-334 487l3 12h232l-3 -12h-232z" />
    <glyph glyph-name="uni0306" unicode="&#x306;" 
d="M-193 551h4q-8 -22 -8 -41q0 -35 31 -35q30 0 61 24t53 53l4 -1q-64 -99 -122 -99q-37 0 -37 42q0 27 14 57z" />
    <glyph glyph-name="uni0307" unicode="&#x307;" 
d="M-98 512q19 0 19 -18q0 -14 -11 -27t-27 -13q-18 0 -18 18q0 14 10.5 27t26.5 13z" />
    <glyph glyph-name="uni0308" unicode="&#x308;" 
d="M-196 510q18 0 18 -17q0 -13 -10.5 -25t-24.5 -12q-17 0 -17 17q0 12 10 24.5t24 12.5zM-91 510q18 0 18 -17q0 -13 -10.5 -25t-24.5 -12q-17 0 -17 17q0 12 10 24.5t24 12.5z" />
    <glyph glyph-name="uni030A" unicode="&#x30a;" 
d="M-168 495q0 22 17 39t42 17q19 0 31.5 -12t12.5 -29q0 -24 -17 -40t-41 -16q-20 0 -32.5 11.5t-12.5 29.5zM-160 496q0 -16 10.5 -25.5t27.5 -9.5q20 0 34.5 14.5t14.5 33.5q0 16 -10 25.5t-27 9.5q-21 0 -35.5 -14.5t-14.5 -33.5z" />
    <glyph glyph-name="uni030B" unicode="&#x30b;" 
d="M-216 454h-5l73 97q22 0 38 3zM-138 454h-5l73 97q22 0 38 3z" />
    <glyph glyph-name="uni030C" unicode="&#x30c;" 
d="M-23 571l-138 -117q-21 0 -32 -3l18 120h5l3 -92l137 92h7z" />
    <glyph glyph-name="uni0327" unicode="&#x327;" 
d="M-259 -54l45 51h7l-40 -46q52 -9 52 -50q0 -25 -22 -45t-57 -20q-31 0 -56 14l1 3q22 -11 48 -11q27 0 45.5 18t18.5 40q0 36 -42 46z" />
    <glyph glyph-name="uni0328" unicode="&#x328;" 
d="M-156 73l3 -3q-52 -50 -94 -112t-42 -94q0 -25 27 -25q42 0 86 60l3 -3q-43 -62 -89 -62q-22 0 -33 11.5t-11 27.5q0 19 7.5 38t26 41.5t32 37t43 42.5t41.5 41z" />
    <glyph glyph-name="uni0394" unicode="&#x394;" horiz-adv-x="685" 
d="M-21 5h505q14 72 74 303t116 406q-148 -170 -353.5 -380t-341.5 -329zM708 765h16q-57 -177 -125.5 -439.5t-80.5 -325.5h-546v6q140 123 372.5 361t363.5 398z" />
    <glyph glyph-name="uni03A9" unicode="&#x3a9;" horiz-adv-x="833" 
d="M136 151q-21 -105 -21 -109q0 -6 5 -6h98q40 75 40 101t-18 57.5t-36.5 71t-18.5 83.5q0 67 30 137q50 116 160 199.5t248 83.5q85 0 142.5 -45.5t57.5 -131.5q0 -77 -39 -153t-99 -129q-36 -32 -144 -102t-152 -125q-20 -27 -33 -51h86q15 0 27 9q3 2 18.5 18t41.5 43
t48 49h9l-56 -95q-18 -30 -28 -56l-6 -4q-35 4 -80 4h-87q10 17 36 60q24 41 73.5 84t100.5 81.5t101.5 85t90 113.5t53.5 148q4 24 4 54q0 70 -47.5 104t-120.5 34q-77 0 -151.5 -42t-127.5 -106.5t-86 -144t-33 -153.5q0 -53 21 -105.5t21 -74.5q0 -10 -2.5 -21.5
t-10.5 -29t-12 -26t-17 -32.5t-16 -29h-74q-52 0 -86 -4l-2 7q25 40 45 74l39 74h8z" />
    <glyph glyph-name="uni03BC" unicode="&#x3bc;" horiz-adv-x="423" 
d="M-192 -213q347 544 348 546q19 0 39 2q-44 -70 -141 -220q-53 -83 -53 -100q0 -18 24 -18q26 0 56.5 19t65 57t54.5 63.5t53 69.5l26 37l57 90q25 0 39 2l-143 -225q-5 -8 -15 -23t-16 -24.5t-13 -20.5t-10 -18.5t-3 -12.5q0 -14 15 -14q76 0 234 198q1 2 3 0.5t1 -3.5
q-158 -200 -239 -200q-28 0 -28 30q0 34 48 110l23 37q-61 -80 -112.5 -128.5t-96.5 -48.5q-34 0 -34 21l-137 -216q-26 0 -45 -10z" />
    <glyph glyph-name="pi" unicode="&#x3c0;" horiz-adv-x="562" 
d="M432 330h-103q-14 -1 -45 -46q-37 -53 -58 -81.5t-58 -75t-64 -71.5t-60.5 -44.5t-61.5 -19.5q-41 0 -41 33q0 15 9.5 24.5t18.5 9.5q15 0 15 -12q0 -13 -18.5 -15t-18.5 -8q0 -26 33 -26q11 0 24.5 6t28.5 18.5t29 25.5t32 35t31 38t32.5 42.5t30.5 42t30 42.5t27 38
q25 35 25 44h-11q-26 0 -41.5 -7t-34.5 -27l-47 -51h-6l28 59q9 20 12 31l3 3q18 -3 42 -3h295q21 0 51 3l2 -5q-10 -17 -25 -45l-22 -43h-5q7 40 7 68q0 17 -33 17q-7 -1 -33 -40l-150 -232q-24 -36 -24 -42q0 -11 40 -11h24l-1 -5h-177l1 5h10q34 1 53 14.5t44 51.5
l143 221q17 27 17 38z" />
    <glyph glyph-name="endash" unicode="&#x2013;" horiz-adv-x="448" 
d="M100 207l1 10h266l-1 -10h-266z" />
    <glyph glyph-name="emdash" unicode="&#x2014;" horiz-adv-x="637" 
d="M100 207l1 10h455l-1 -10h-455z" />
    <glyph glyph-name="quoteleft" unicode="&#x2018;" horiz-adv-x="186" 
d="M212 525q0 39 43.5 86.5t109.5 84.5l2 -4q-115 -69 -141 -141q9 12 21 12q17 0 17 -18q0 -14 -9.5 -26.5t-23.5 -12.5q-19 0 -19 19z" />
    <glyph glyph-name="quoteright" unicode="&#x2019;" horiz-adv-x="190" 
d="M332 665q0 -39 -43.5 -86.5t-109.5 -84.5l-2 4q115 69 141 141q-9 -12 -21 -12q-17 0 -17 18q0 14 9.5 26.5t23.5 12.5q19 0 19 -19z" />
    <glyph glyph-name="quotesinglbase" unicode="&#x201a;" horiz-adv-x="190" 
d="M16 34q0 -39 -43.5 -86.5t-109.5 -84.5l-2 4q115 69 141 141q-9 -12 -21 -12q-17 0 -17 18q0 14 9.5 26.5t23.5 12.5q19 0 19 -19z" />
    <glyph glyph-name="quotedblleft" unicode="&#x201c;" horiz-adv-x="288" 
d="M314 525q0 39 43.5 86.5t109.5 84.5l2 -4q-115 -69 -141 -141q9 12 21 12q17 0 17 -18q0 -14 -9.5 -26.5t-23.5 -12.5q-19 0 -19 19zM212 525q0 34 35 85t98 86l2 -4q-93 -53 -121 -141q9 12 21 12q17 0 17 -18q0 -14 -10 -26.5t-24 -12.5q-18 0 -18 19z" />
    <glyph glyph-name="quotedblright" unicode="&#x201d;" horiz-adv-x="292" 
d="M332 665q0 -39 -43.5 -86.5t-109.5 -84.5l-2 4q115 69 141 141q-9 -12 -21 -12q-17 0 -17 18q0 14 9.5 26.5t23.5 12.5q19 0 19 -19zM434 665q0 -34 -35 -85t-98 -86l-2 4q93 53 121 141q-9 -12 -21 -12q-17 0 -17 18q0 14 10 26.5t24 12.5q18 0 18 -19z" />
    <glyph glyph-name="quotedblbase" unicode="&#x201e;" horiz-adv-x="295" 
d="M19 34q0 -39 -43.5 -86.5t-109.5 -84.5l-2 4q115 69 141 141q-9 -12 -21 -12q-17 0 -17 18q0 14 9.5 26.5t23.5 12.5q19 0 19 -19zM121 34q0 -34 -35 -85t-98 -86l-2 4q93 53 121 141q-9 -12 -21 -12q-17 0 -17 18q0 14 10 26.5t24 12.5q18 0 18 -19z" />
    <glyph glyph-name="dagger" unicode="&#x2020;" horiz-adv-x="968" 
d="M924 605q-9 0 -15 -22.5t-20 -22.5t-14 16q0 12 13.5 23t35.5 11q33 0 52.5 -19.5t19.5 -48.5q0 -48 -47 -85t-139 -37q-95 0 -204.5 34t-201 67.5t-142.5 33.5t-71 -25t-20 -58q0 -20 8 -36l-4 -2q-9 9 -9 38q0 38 27 67t95 29q57 0 132.5 -21t137.5 -46.5t140.5 -46.5
t140.5 -21q72 0 112 33.5t40 75.5q0 27 -18 45t-49 18zM-102 -531l521 873q11 12 32 32.5t39 40t35 39.5q-18 -40 -48 -126zM823 871l-251 -341l195 363q30 13 63 40q-7 -25 -7 -62z" />
    <glyph glyph-name="daggerdbl" unicode="&#x2021;" horiz-adv-x="964" 
d="M-63 -469l251 341l-195 -363q-30 -13 -63 -40q7 25 7 62zM377 213q50 63 182 241q-101 -172 -137 -257q-22 -27 -93 -124t-94 -125q20 38 50 92t52 94.5t40 78.5zM857 871l-251 -341l195 363q30 13 63 40q-7 -25 -7 -62zM939 610q-9 0 -15 -22.5t-20 -22.5t-14 16
q0 12 13.5 23t35.5 11q33 0 52.5 -19.5t19.5 -48.5q0 -48 -47 -85t-139 -37q-75 0 -158 20.5t-142 44.5t-123 44.5t-106 20.5q-51 0 -71 -25t-20 -58q0 -20 8 -36l-4 -2q-9 9 -9 38q0 39 27 68t93 29q53 0 123.5 -20.5t129 -45t136.5 -45t145 -20.5q72 0 112 33.5t40 75.5
q0 27 -18 45t-49 18zM587 16q-9 0 -15 -22.5t-20 -22.5t-14 16q0 12 13.5 23t35.5 11q33 0 52.5 -19.5t19.5 -48.5q0 -48 -47 -85t-139 -37q-75 0 -158 22t-142 48t-123 48t-106 22q-51 0 -71 -25t-20 -58q0 -20 8 -36l-4 -2q-9 9 -9 38q0 39 27 68t93 29q53 0 123.5 -22
t129 -48.5t136.5 -48.5t145 -22q72 0 112 33.5t40 75.5q0 27 -18 45t-49 18z" />
    <glyph glyph-name="bullet" unicode="&#x2022;" horiz-adv-x="463" 
d="M305 567q67 0 101.5 -37.5t34.5 -94.5q0 -77 -56 -141t-144 -64q-70 0 -105.5 37.5t-35.5 94.5q0 76 57.5 140.5t147.5 64.5z" />
    <glyph glyph-name="ellipsis" unicode="&#x2026;" horiz-adv-x="334" 
d="M-6 32q0 -14 -10 -25t-23 -11q-15 0 -15 13q0 17 11 28t21 11q16 0 16 -16zM99 32q0 -14 -10 -25t-23 -11q-15 0 -15 13q0 17 11 28t21 11q16 0 16 -16zM204 32q0 -14 -10 -25t-23 -11q-15 0 -15 13q0 17 11 28t21 11q16 0 16 -16z" />
    <glyph glyph-name="perthousand" unicode="&#x2030;" horiz-adv-x="538" 
d="M248 420q0 -31 -23.5 -55t-60.5 -24q-29 0 -46.5 16.5t-17.5 42.5q0 33 24.5 56t56.5 23t49.5 -16.5t17.5 -42.5zM238 419q0 24 -15 37.5t-41 13.5q-29 0 -50.5 -20.5t-21.5 -48.5q0 -24 15 -37.5t40 -13.5q31 0 52 20.5t21 48.5zM491 520l3 -5l-515 -561l-4 4zM372 71
q0 -31 -23.5 -55t-60.5 -24q-29 0 -46.5 16.5t-17.5 42.5q0 33 24.5 56t56.5 23t49.5 -16.5t17.5 -42.5zM362 70q0 24 -15 37.5t-41 13.5q-29 0 -50.5 -20.5t-21.5 -48.5q0 -24 15 -37.5t40 -13.5q31 0 52 20.5t21 48.5zM551 71q0 -31 -23.5 -55t-60.5 -24q-29 0 -46.5 16.5
t-17.5 42.5q0 33 24.5 56t56.5 23t49.5 -16.5t17.5 -42.5zM541 70q0 24 -15 37.5t-41 13.5q-29 0 -50.5 -20.5t-21.5 -48.5q0 -24 15 -37.5t40 -13.5q31 0 52 20.5t21 48.5z" />
    <glyph glyph-name="guilsinglleft" unicode="&#x2039;" horiz-adv-x="366" 
d="M300 300l2 -4l-199 -109l125 -136l-3 -4q-4 3 -60.5 52.5t-82.5 68.5q2 11 1 18z" />
    <glyph glyph-name="guilsinglright" unicode="&#x203a;" horiz-adv-x="366" 
d="M43 47l-2 4l199 109l-125 136l3 4q4 -3 60.5 -52.5t82.5 -68.5q-2 -11 -1 -18z" />
    <glyph glyph-name="fraction" unicode="&#x2044;" horiz-adv-x="141" 
d="M293 519l4 -4l-484 -561q-2 2 -5 3z" />
    <glyph glyph-name="Euro" unicode="&#x20ac;" horiz-adv-x="361" 
d="M37 204l1 5h72q47 59 106.5 102t106.5 43q20 0 32 -11t12 -29q0 -15 -8.5 -29t-22.5 -14q-15 0 -15 16q0 22 28 29q13 3 11 12q-7 21 -37 21q-34 0 -82 -40t-96 -100h130l-1 -5h-133q-3 -5 -9.5 -13.5t-11.5 -15.5t-9 -13h134l-1 -5h-136q-51 -77 -51 -116q0 -44 50 -44
q47 0 103.5 36t100.5 93l4 -3q-48 -60 -104 -95.5t-106 -35.5q-61 0 -61 63q0 51 30 102h-67l1 5h69q14 23 29 42h-69z" />
    <glyph glyph-name="trademark" unicode="&#x2122;" horiz-adv-x="877" 
d="M826 668l-186 -181q-2 0 -4 -0.5t-4 -0.5l-1 -1l-14 163l-50 -98q-34 -66 -34 -84q0 -13 33 -13h5l-2 -5h-113l2 5h8q13 0 22.5 3t25.5 19.5t32 47.5l70 136q-2 12 -8.5 16.5t-22.5 4.5h-16l2 5h20q38 0 45 -4q4 -8 6 -30l13 -141l177 172q14 3 38 3h30l-1 -5h-9
q-20 0 -27.5 -5.5t-19.5 -28.5l-66 -134q-22 -44 -22 -50q0 -9 25 -9h6l-1 -5h-109l1 5h6q21 1 31.5 7t18.5 23zM306 685h187q22 0 36 2l1 -3l-18 -32l-15 -29h-3q5 30 5 47q0 10 -31 10h-30q-24 0 -31 -15l-80 -160q-19 -38 -19 -42q0 -10 28 -10h13l-2 -5h-126l2 5h12
q36 0 54 35l78 153q15 30 15 34q0 5 -13 5h-36q-17 0 -24.5 -3t-17.5 -13q-35 -35 -40 -41h-4l19 41q8 17 9 21l2 2q16 -2 29 -2z" />
    <glyph glyph-name="Omega" unicode="&#x2126;" horiz-adv-x="833" 
d="M136 151q-21 -105 -21 -109q0 -6 5 -6h98q40 75 40 101t-18 57.5t-36.5 71t-18.5 83.5q0 67 30 137q50 116 160 199.5t248 83.5q85 0 142.5 -45.5t57.5 -131.5q0 -77 -39 -153t-99 -129q-36 -32 -144 -102t-152 -125q-20 -27 -33 -51h86q15 0 27 9q3 2 18.5 18t41.5 43
t48 49h9l-56 -95q-18 -30 -28 -56l-6 -4q-35 4 -80 4h-87q10 17 36 60q24 41 73.5 84t100.5 81.5t101.5 85t90 113.5t53.5 148q4 24 4 54q0 70 -47.5 104t-120.5 34q-77 0 -151.5 -42t-127.5 -106.5t-86 -144t-33 -153.5q0 -53 21 -105.5t21 -74.5q0 -10 -2.5 -21.5
t-10.5 -29t-12 -26t-17 -32.5t-16 -29h-74q-52 0 -86 -4l-2 7q25 40 45 74l39 74h8z" />
    <glyph glyph-name="partialdiff" unicode="&#x2202;" horiz-adv-x="453" 
d="M385 805q-30 0 -48 -14.5t-18 -28.5q0 -1 14.5 -8.5t14.5 -24.5q0 -9 -6.5 -16t-16.5 -7q-27 0 -27 31q0 27 23.5 50t64.5 23q62 0 95.5 -49.5t33.5 -134.5q0 -156 -101 -352q-23 -45 -58.5 -91.5t-80.5 -90.5t-100 -72t-106 -28q-49 0 -49 62q0 80 72 169q58 72 135 118
t139 46q38 0 38 -34q0 -10 -2 -17q91 187 91 325q0 67 -26.5 105.5t-81.5 38.5zM70 -3q78 0 165 90t156 225q9 25 9 40q0 30 -34 30q-44 0 -103.5 -41.5t-108.5 -98.5t-84 -116.5t-35 -94.5q0 -34 35 -34z" />
    <glyph glyph-name="Delta" unicode="&#x2206;" horiz-adv-x="685" 
d="M-21 5h505q14 72 74 303t116 406q-148 -170 -353.5 -380t-341.5 -329zM708 765h16q-57 -177 -125.5 -439.5t-80.5 -325.5h-546v6q140 123 372.5 361t363.5 398z" />
    <glyph glyph-name="product" unicode="&#x220f;" horiz-adv-x="802" 
d="M539 910h588q22 0 52 3l1 -5q-15 -19 -31 -45l-56 -90h-5q25 82 29 111q1 4 1 9q0 12 -26 12h-22q-21 0 -33 -18l-594 -929q-24 -36 -24 -42q0 -11 39 -11h32l-1 -5h-194l1 5h19q34 1 50.5 10t32.5 35l595 925q10 15 10 22q0 8 -15 8h-266q-22 0 -38 -2t-25 -16
l-594 -929q-24 -36 -24 -42q0 -11 39 -11h24l-1 -5h-201l1 5h34q34 1 50.5 10t32.5 35l595 925q12 19 12 23q0 7 -23 7h-23q-28 0 -64 -34q-33 -31 -100 -98h-6l60 94q13 20 23 43l3 3q18 -3 42 -3z" />
    <glyph glyph-name="summation" unicode="&#x2211;" horiz-adv-x="796" 
d="M396 -100h-485l-2 11l632 499l52 495l5 5h393q22 0 52 3l1 -5q-17 -23 -31 -45l-56 -90h-5q30 93 30 119q0 13 -28 13h-330l-50 -482q-29 -18 -50 -34l-578 -457h450q26 0 38.5 5.5t37.5 27.5q56 51 92 86h7l-61 -95q-22 -36 -29 -57l-4 -3q-35 4 -81 4z" />
    <glyph glyph-name="minus" unicode="&#x2212;" horiz-adv-x="402" 
d="M43 207l4 14h320l-5 -14h-319z" />
    <glyph glyph-name="radical" unicode="&#x221a;" horiz-adv-x="584" 
d="M-7 321l1 5l127 3q33 0 50 3l-131 -443l943 1020h8l-951 -1028q-15 5 -35 5l129 438z" />
    <glyph glyph-name="infinity" unicode="&#x221e;" horiz-adv-x="635" 
d="M428 72q-68 0 -115 84q-38 -27 -62 -42t-59 -29t-65 -14q-36 0 -54.5 19.5t-18.5 49.5q0 47 37.5 89t93.5 42q73 0 119 -85q38 28 61.5 43t57.5 29t63 14q38 0 57 -19t19 -49q0 -51 -38.5 -91.5t-95.5 -40.5zM112 89q28 0 62 15t58 30.5t67 47.5q-41 64 -119 64
q-56 0 -88.5 -33.5t-32.5 -73.5q0 -21 13 -35.5t40 -14.5zM503 254q-39 0 -82 -24t-103 -70q44 -63 119 -63q48 0 84 30t36 79q0 20 -14 34t-40 14z" />
    <glyph glyph-name="integral" unicode="&#x222b;" horiz-adv-x="384" 
d="M-60 -105q17 0 35 10t39 33.5t38.5 46t41.5 66t40.5 73.5t44.5 87.5t43 89t45 96.5l18 38q26 57 41 88.5t40.5 84t43 83t41.5 71.5t44 64.5t42.5 46.5t44 33t42.5 10q23 0 34.5 -11t11.5 -26q0 -13 -8 -22t-21 -9q-14 0 -14 13q0 14 13 14q8 0 9 -9t2 -9q5 0 9.5 6.5
t4.5 15.5q0 13 -9.5 22.5t-30.5 9.5q-31 0 -66 -35t-74 -105.5t-70.5 -135t-76.5 -163.5q-5 -11 -7 -16l-15 -32q-126 -276 -213.5 -405t-161.5 -129q-23 0 -34.5 11t-11.5 26q0 13 8 22t21 9q14 0 14 -13q0 -14 -14 -14q-8 0 -8.5 9t-1.5 9q-5 0 -9.5 -6.5t-4.5 -15.5
q0 -13 9.5 -22.5t30.5 -9.5z" />
    <glyph glyph-name="approxequal" unicode="&#x2248;" horiz-adv-x="402" 
d="M73 250l-13 5q26 62 84 62q26 0 80.5 -28.5t85.5 -28.5q47 0 73 53l11 -7q-28 -60 -86 -60q-34 0 -87.5 28.5t-77.5 28.5q-47 0 -70 -53zM35 113l-13 5q26 62 84 62q26 0 80.5 -28.5t85.5 -28.5q47 0 73 53l11 -7q-28 -60 -86 -60q-34 0 -87.5 28.5t-77.5 28.5
q-47 0 -70 -53z" />
    <glyph glyph-name="notequal" unicode="&#x2260;" horiz-adv-x="402" 
d="M60 275l4 14h202l67 87l11 -9l-60 -78h113l-4 -14h-120l-94 -122h176l-4 -14h-183l-66 -86l-11 9l59 77h-132l4 14h139l94 122h-195z" />
    <glyph glyph-name="lessequal" unicode="&#x2264;" horiz-adv-x="402" 
d="M85 270l2 11l378 109l3 -12l-365 -106l201 -151l-8 -11zM-74 0l4 14h303l-4 -14h-303z" />
    <glyph glyph-name="greaterequal" unicode="&#x2265;" horiz-adv-x="402" 
d="M382 230l-2 -11l-378 -109l-3 12l365 106l-201 151l8 11zM-63 0l4 14h303l-4 -14h-303z" />
    <glyph glyph-name="lozenge" unicode="&#x25ca;" horiz-adv-x="742" 
d="M112 198q48 48 186.5 183t226 224.5t144.5 159.5h10q-51 -232 -125 -582q-48 -48 -186.5 -183t-226 -224.5t-144.5 -159.5h-10q51 232 125 582zM630 709q-52 -58 -127.5 -134.5t-186.5 -185.5t-157 -155q-20 -85 -123 -562q51 58 124 132t189 187t155 152q16 61 126 566z
" />
    <glyph glyph-name="uniFB00" unicode="&#xfb00;" horiz-adv-x="379" 
d="M264 250l46 75h-50q-69 0 -97 -1l-49 -82q-296 -502 -446 -627q31 -21 65 -21q57 0 109 43t145.5 178.5t276.5 434.5zM313 330q159 249 264 342q-7 40 -54 40q-39 0 -85 -32.5t-94.5 -92.5t-89 -119.5t-88.5 -138.5q28 1 93 1h54zM661 711q-38 0 -122.5 -108t-181.5 -263
q128 100 225 201t97 153q0 17 -18 17zM-484 -441q58 0 119 53.5t162.5 198.5t286.5 445q32 52 41 66q-77 -4 -120 -18l-1 5q41 13 124 18q105 168 172 248q119 143 221 143q51 0 60 -43q49 42 79 42q24 0 24 -23q0 -52 -100 -158t-233 -206h104v-5h-107q-40 -65 -53 -88
q-77 -132 -141 -232.5t-111 -169.5t-88.5 -115.5t-69 -72.5t-57.5 -39t-49 -16t-47 -3q-37 0 -68 23q-71 -58 -148 -58q-35 0 -60 19l2 4q27 -18 58 -18z" />
    <glyph glyph-name="fi" unicode="&#xfb01;" horiz-adv-x="401" 
d="M5 304l-1 5q48 16 126 20q247 388 341 388q20 0 20 -18q0 -32 -80 -112t-183 -159l-62 -97q31 2 101 2h48q25 0 39 2l-143 -225q-5 -8 -15 -23t-16 -24.5t-13 -20.5t-10 -18.5t-3 -12.5q0 -14 15 -14q76 0 234 198q1 1 3 1t2 -2v-1l-1 -1q-158 -200 -239 -200
q-28 0 -28 30q0 34 48 110l124 196h-46q-73 0 -103 -2q-32 -52 -53 -89q-105 -179 -188.5 -305.5t-142 -199.5t-108.5 -113.5t-83.5 -52.5t-71.5 -12q-34 0 -63 18l3 4q29 -17 60 -17q58 0 119 54t161 196.5t284 440.5l46 74q-76 -6 -121 -20zM472 711q-58 0 -237 -271
q99 78 175 154.5t76 104.5q0 12 -14 12zM429 511q19 0 19 -18q0 -14 -11 -27t-27 -13q-18 0 -18 18q0 14 11 27t26 13z" />
    <glyph glyph-name="fl" unicode="&#xfb02;" horiz-adv-x="419" 
d="M-484 -446q-36 0 -61 19l3 4q27 -18 58 -18q58 0 119 54t161 196.5t284 440.5l46 73q-68 -4 -121 -19l-1 5q45 15 125 19q249 389 342 389q20 0 20 -19q0 -45 -113.5 -173t-211.5 -195q-1 0 -1 -1q25 1 85 1v-5q-63 0 -88 -1l-52 -87q-105 -179 -188.5 -305.5
t-142 -199.5t-108.5 -113.5t-83.5 -52.5t-71.5 -12zM225 187l96 126l270 426q22 0 38 2l-400 -631q-6 -9 -15 -23t-15.5 -24t-13 -20.5t-10 -18.5t-3.5 -13q0 -14 14 -14q77 0 235 198q1 2 3 0.5t1 -3.5q-158 -200 -240 -200q-27 0 -27 30q0 34 48 110l82 129l-59 -77
q-40 -53 -98 -114.5t-94 -91.5l-3 4q36 29 93.5 90.5t97.5 114.5zM472 711q-70 0 -300 -371q97 68 205.5 192.5t108.5 165.5q0 13 -14 13z" />
    <glyph glyph-name="uniFB03" unicode="&#xfb03;" horiz-adv-x="594" 
d="M361 -8q-28 0 -28 30q0 34 48 110l124 196h-148l-54 -91q-89 -153 -159 -264t-123.5 -181t-92 -112t-74 -61.5t-58 -24.5t-55.5 -5q-44 0 -73 27q-74 -62 -153 -62q-34 0 -60 19l2 4q27 -18 58 -18q58 0 119 53.5t162.5 198.5t286.5 445l42 68q-76 -6 -121 -20l-1 5
q49 14 125 20q104 167 171 246q119 143 221 143q53 0 61 -48q52 47 83 47q20 0 20 -18q0 -32 -80 -112t-183 -159q-7 -10 -28.5 -43.5t-32.5 -51.5h152q21 0 35 2l-143 -225q-5 -8 -15 -23t-16 -24.5t-13 -20.5t-10 -18.5t-3 -12.5q0 -14 15 -14q76 0 234 198q1 1 3 1t2 -2
l-1 -1v-1q-158 -200 -239 -200zM265 328q-42 0 -102 -2l-50 -84q-289 -493 -441 -623q31 -25 70 -25q44 0 77 18t93 90t139.5 195t221.5 353q9 15 26 41.5t23 36.5h-57zM166 331q60 2 98 2h61q154 242 252 333q-4 46 -55 46q-39 0 -84.5 -32.5t-94 -92t-89 -118.5
t-88.5 -138zM665 711q-58 0 -237 -271q99 78 175 154.5t76 104.5q0 12 -14 12zM623 511q19 0 19 -18q0 -14 -11 -27t-27 -13q-18 0 -18 18q0 14 11 27t26 13z" />
    <glyph glyph-name="uniFB04" unicode="&#xfb04;" horiz-adv-x="612" 
d="M273 250q8 12 24 38.5t24 39.5h-56q-42 0 -102 -2l-50 -84q-289 -493 -441 -623q31 -25 70 -25q43 0 77 18.5t94 91t140 195t220 351.5zM324 333q155 242 253 334q-4 45 -55 45q-39 0 -84.5 -32.5t-94 -92t-89 -118.5t-88.5 -138q60 2 98 2h60zM418 187l96 126l270 426
q22 0 38 2l-400 -631q-6 -9 -15 -23t-15.5 -24t-13 -20.5t-10 -18.5t-3.5 -13q0 -14 14 -14q77 0 235 198q2 2 4 0.5t0 -3.5q-158 -200 -240 -200q-27 0 -27 30q0 34 48 110l82 129l-59 -77q-40 -53 -98 -114.5t-94 -91.5l-3 4q36 29 93.5 90.5t97.5 114.5zM665 711
q-70 0 -300 -371q97 69 205.5 193t108.5 165q0 13 -14 13zM-485 -441q58 0 119 53.5t162.5 198.5t286.5 445l42 68q-76 -6 -121 -20l-1 5q49 14 125 20q104 167 171 246q119 143 221 143q53 0 61 -47q50 46 83 46q20 0 20 -18q0 -45 -111.5 -171.5t-209.5 -194.5h80v-5h-85
q-12 -19 -32 -52.5t-23 -38.5q-90 -153 -160.5 -264.5t-124 -181.5t-91.5 -112t-73 -61t-57.5 -24t-55.5 -5q-44 0 -73 27q-74 -62 -153 -62q-35 0 -60 19l2 4q27 -18 58 -18z" />
    <glyph glyph-name="a.sc" horiz-adv-x="366" 
d="M126 5q19 0 30.5 2.5t22 13t13.5 30.5l12 86h-128l-35 -39q-59 -67 -58 -78q0 -15 41 -15h13l-1 -5h-148l1 5q60 2 116 63l249 275q5 0 12 4l-35 -255l-7 -60q0 -15 9 -21t36 -6h5l-1 -5h-151l1 5h3zM230 309l-150 -167h125z" />
    <glyph glyph-name="agrave.sc" horiz-adv-x="366" 
d="M262 458l-4 1l-1 122q9 -5 31 -10zM126 5q19 0 30.5 2.5t22 13t13.5 30.5l12 86h-128l-35 -39q-59 -67 -58 -78q0 -15 41 -15h13l-1 -5h-148l1 5q60 2 116 63l249 275q5 0 12 4l-35 -255l-7 -60q0 -15 9 -21t36 -6h5l-1 -5h-151l1 5h3zM230 309l-150 -167h125z" />
    <glyph glyph-name="aacute.sc" horiz-adv-x="366" 
d="M306 458h-5l72 97q29 0 45 3zM126 5q19 0 30.5 2.5t22 13t13.5 30.5l12 86h-128l-35 -39q-59 -67 -58 -78q0 -15 41 -15h13l-1 -5h-148l1 5q60 2 116 63l249 275q5 0 12 4l-35 -255l-7 -60q0 -15 9 -21t36 -6h5l-1 -5h-151l1 5h3zM230 309l-150 -167h125z" />
    <glyph glyph-name="acircumflex.sc" horiz-adv-x="366" 
d="M201 458l138 117q21 0 32 3l-18 -120h-5l-3 92l-137 -92h-7zM126 5q19 0 30.5 2.5t22 13t13.5 30.5l12 86h-128l-35 -39q-59 -67 -58 -78q0 -15 41 -15h13l-1 -5h-148l1 5q60 2 116 63l249 275q5 0 12 4l-35 -255l-7 -60q0 -15 9 -21t36 -6h5l-1 -5h-151l1 5h3zM230 309
l-150 -167h125z" />
    <glyph glyph-name="atilde.sc" horiz-adv-x="366" 
d="M190 467l-4 3q34 48 71 48q21 0 59.5 -18t55.5 -18q22 0 48 37l4 -3q-32 -50 -73 -50q-19 0 -57.5 18.5t-56.5 18.5q-22 0 -47 -36zM126 5q19 0 30.5 2.5t22 13t13.5 30.5l12 86h-128l-35 -39q-59 -67 -58 -78q0 -15 41 -15h13l-1 -5h-148l1 5q60 2 116 63l249 275
q5 0 12 4l-35 -255l-7 -60q0 -15 9 -21t36 -6h5l-1 -5h-151l1 5h3zM230 309l-150 -167h125z" />
    <glyph glyph-name="adieresis.sc" horiz-adv-x="366" 
d="M255 514q18 0 18 -17q0 -13 -10.5 -25t-24.5 -12q-17 0 -17 17q0 12 10 24.5t24 12.5zM360 514q18 0 18 -17q0 -13 -10.5 -25t-24.5 -12q-17 0 -17 17q0 12 10 24.5t24 12.5zM126 5q19 0 30.5 2.5t22 13t13.5 30.5l12 86h-128l-35 -39q-59 -67 -58 -78q0 -15 41 -15h13
l-1 -5h-148l1 5q60 2 116 63l249 275q5 0 12 4l-35 -255l-7 -60q0 -15 9 -21t36 -6h5l-1 -5h-151l1 5h3zM230 309l-150 -167h125z" />
    <glyph glyph-name="aring.sc" horiz-adv-x="366" 
d="M126 5q19 0 30.5 2.5t22 13t13.5 30.5l12 86h-128l-35 -39q-59 -67 -58 -78q0 -15 41 -15h13l-1 -5h-148l1 5q60 2 116 63l249 275q5 0 12 4l-35 -255l-7 -60q0 -15 9 -21t36 -6h5l-1 -5h-151l1 5h3zM230 309l-150 -167h125zM255 499q0 22 17 39t42 17q19 0 31.5 -12
t12.5 -29q0 -24 -17 -40t-41 -16q-20 0 -32.5 11.5t-12.5 29.5zM263 500q0 -16 10.5 -25.5t27.5 -9.5q20 0 34.5 14.5t14.5 33.5q0 16 -10 25.5t-27 9.5q-21 0 -35.5 -14.5t-14.5 -33.5z" />
    <glyph glyph-name="ae.sc" horiz-adv-x="574" 
d="M68 107l269 222q-3 9 -38 9h-21l1 5h242q18 0 45 3l2 -5q-4 -6 -7.5 -12t-8 -14.5t-7.5 -14.5l-20 -39h-5q4 25 4 57q0 12 -8 16t-40 4h-51q-16 0 -32 -2q-13 -1 -22 -21l-68 -135h33q32 0 42 1.5t21 9.5q20 12 43 37h5q-34 -59 -55 -108h-3v27q0 18 -9 23t-42 5h-38
l-82 -162q2 -6 19 -7q13 -1 30 -1h53q48 0 74 17q10 6 20 15t26 26.5t24 25.5h6l-30 -58q-5 -10 -10 -31l-4 -3q-27 3 -54 3h-247l1 5h9q26 1 40.5 11.5t29.5 41.5l41 81h-131l-59 -49q-69 -57 -69 -73q0 -12 42 -12h9l-1 -5h-147l1 5q54 0 177 102zM328 300q8 16 9 23
l-216 -179h127z" />
    <glyph glyph-name="b.sc" horiz-adv-x="376" 
d="M-74 0l1 5h21q27 1 45.5 12.5t32.5 40.5l123 242q9 18 9 26q0 12 -36 12h-22l1 5h131q39 0 65 -15.5t26 -46.5q0 -44 -38 -69t-87 -28q32 -4 55 -25t23 -52q0 -49 -39.5 -78t-125.5 -29h-185zM170 182h-10q-14 0 -36 -2l-85 -167q1 -4 10 -6q14 -2 43 -2h12
q66 0 101.5 31.5t35.5 81.5q0 28 -17 46t-54 18zM195 319l-66 -130q17 -2 44 -2q56 0 87.5 30.5t31.5 67.5q0 53 -58 53q-10 0 -19 -1q-11 -2 -20 -18z" />
    <glyph glyph-name="c.sc" horiz-adv-x="378" 
d="M261 69l4 -4q-59 -73 -140 -73q-54 0 -82 29.5t-28 76.5q0 39 18 78q33 75 101 124.5t142 49.5q22 0 48 -4.5t29 -4.5q12 0 28 13l5 -3q-16 -23 -48 -94h-6q3 28 3 54q0 34 -60 34q-58 0 -114 -48.5t-87.5 -112t-31.5 -113.5q0 -32 20.5 -52.5t62.5 -20.5q79 0 136 71z
" />
    <glyph glyph-name="ccedilla.sc" horiz-adv-x="378" 
d="M49 -54l43 49q-38 8 -57.5 36t-19.5 67t18 78q33 75 101 124.5t142 49.5q22 0 48 -4.5t29 -4.5q12 0 28 13l5 -3q-16 -23 -48 -94h-6q3 28 3 54q0 34 -60 34q-58 0 -114 -48.5t-87.5 -112t-31.5 -113.5q0 -32 20.5 -52.5t62.5 -20.5q79 0 136 71l4 -4q-59 -73 -140 -73
q-11 0 -27 2l-37 -43q26 -4 39 -17.5t13 -32.5q0 -25 -22 -45t-57 -20q-31 0 -56 14l1 3q22 -11 48 -11q27 0 45.5 18t18.5 40q0 36 -42 46z" />
    <glyph glyph-name="d.sc" horiz-adv-x="450" 
d="M103 0h-177l1 5h15q31 0 50 12t34 41l123 242q9 16 9 26q0 12 -37 12h-21l1 5h163q66 0 96.5 -30t30.5 -75q0 -49 -23 -98q-31 -66 -92 -103t-173 -37zM217 336q-14 -1 -22 -17l-156 -306q1 -8 35 -8h19q89 2 147 35t93 109q27 58 27 104q0 85 -96 85h-15q-10 0 -32 -2z
" />
    <glyph glyph-name="eth.sc" horiz-adv-x="450" 
d="M36 175v5h52l61 120q9 16 9 26q0 12 -37 12h-21l1 5h163q66 0 96.5 -30t30.5 -75q0 -49 -23 -98q-31 -66 -92 -103t-173 -37h-177l1 5h15q31 0 50 12t34 41l59 117h-49zM217 336q-14 -1 -22 -17l-71 -139h91l-1 -5h-93l-82 -162q1 -8 35 -8h19q89 2 147 35t93 109
q27 58 27 104q0 85 -96 85h-15q-10 0 -32 -2z" />
    <glyph glyph-name="e.sc" horiz-adv-x="411" 
d="M226 120v27q0 18 -9.5 23t-47.5 5h-48l-82 -162q1 -4 10 -6q20 -2 35 -2h73q46 0 73 18q19 12 71 66h6l-30 -58q-5 -10 -10 -31l-4 -3q-27 3 -54 3h-280l1 5h14q31 1 49 12t33 41l123 242q9 18 9 26q0 12 -36 12h-21l1 5h256q21 0 45 3l2 -5q-4 -6 -7.5 -12t-8 -14.5
t-7.5 -14.5l-20 -39h-5q4 25 4 57q0 12 -8 16t-40 4h-65q-17 0 -35 -2q-11 -1 -22 -21l-67 -135h43q54 0 69 11q20 12 43 37h5q-37 -65 -55 -108h-3z" />
    <glyph glyph-name="egrave.sc" horiz-adv-x="411" 
d="M289 458l-4 1l-1 122q9 -5 31 -10zM226 120v27q0 18 -9.5 23t-47.5 5h-48l-82 -162q1 -4 10 -6q20 -2 35 -2h73q46 0 73 18q19 12 71 66h6l-30 -58q-5 -10 -10 -31l-4 -3q-27 3 -54 3h-280l1 5h14q31 1 49 12t33 41l123 242q9 18 9 26q0 12 -36 12h-21l1 5h256q21 0 45 3
l2 -5q-4 -6 -7.5 -12t-8 -14.5t-7.5 -14.5l-20 -39h-5q4 25 4 57q0 12 -8 16t-40 4h-65q-17 0 -35 -2q-11 -1 -22 -21l-67 -135h43q54 0 69 11q20 12 43 37h5q-37 -65 -55 -108h-3z" />
    <glyph glyph-name="eacute.sc" horiz-adv-x="411" 
d="M313 458h-5l72 97q29 0 45 3zM226 120v27q0 18 -9.5 23t-47.5 5h-48l-82 -162q1 -4 10 -6q20 -2 35 -2h73q46 0 73 18q19 12 71 66h6l-30 -58q-5 -10 -10 -31l-4 -3q-27 3 -54 3h-280l1 5h14q31 1 49 12t33 41l123 242q9 18 9 26q0 12 -36 12h-21l1 5h256q21 0 45 3l2 -5
q-4 -6 -7.5 -12t-8 -14.5t-7.5 -14.5l-20 -39h-5q4 25 4 57q0 12 -8 16t-40 4h-65q-17 0 -35 -2q-11 -1 -22 -21l-67 -135h43q54 0 69 11q20 12 43 37h5q-37 -65 -55 -108h-3z" />
    <glyph glyph-name="ecircumflex.sc" horiz-adv-x="411" 
d="M230 458l138 117q21 0 32 3l-18 -120h-5l-3 92l-137 -92h-7zM226 120v27q0 18 -9.5 23t-47.5 5h-48l-82 -162q1 -4 10 -6q20 -2 35 -2h73q46 0 73 18q19 12 71 66h6l-30 -58q-5 -10 -10 -31l-4 -3q-27 3 -54 3h-280l1 5h14q31 1 49 12t33 41l123 242q9 18 9 26
q0 12 -36 12h-21l1 5h256q21 0 45 3l2 -5q-4 -6 -7.5 -12t-8 -14.5t-7.5 -14.5l-20 -39h-5q4 25 4 57q0 12 -8 16t-40 4h-65q-17 0 -35 -2q-11 -1 -22 -21l-67 -135h43q54 0 69 11q20 12 43 37h5q-37 -65 -55 -108h-3z" />
    <glyph glyph-name="edieresis.sc" horiz-adv-x="411" 
d="M274 514q18 0 18 -17q0 -13 -10.5 -25t-24.5 -12q-17 0 -17 17q0 12 10 24.5t24 12.5zM379 514q18 0 18 -17q0 -13 -10.5 -25t-24.5 -12q-17 0 -17 17q0 12 10 24.5t24 12.5zM226 120v27q0 18 -9.5 23t-47.5 5h-48l-82 -162q1 -4 10 -6q20 -2 35 -2h73q46 0 73 18
q19 12 71 66h6l-30 -58q-5 -10 -10 -31l-4 -3q-27 3 -54 3h-280l1 5h14q31 1 49 12t33 41l123 242q9 18 9 26q0 12 -36 12h-21l1 5h256q21 0 45 3l2 -5q-4 -6 -7.5 -12t-8 -14.5t-7.5 -14.5l-20 -39h-5q4 25 4 57q0 12 -8 16t-40 4h-65q-17 0 -35 -2q-11 -1 -22 -21
l-67 -135h43q54 0 69 11q20 12 43 37h5q-37 -65 -55 -108h-3z" />
    <glyph glyph-name="f.sc" horiz-adv-x="377" 
d="M117 166l-59 -116q-14 -28 -14 -34q0 -11 55 -11h21v-5h-191l1 5h18q52 0 78 53l123 242q9 16 9 26q0 12 -35 12h-22l1 5h245q26 0 53 3l2 -5q-4 -7 -8.5 -15t-11 -20.5t-12.5 -22.5l-15 -30h-4q5 38 5 61q0 16 -11.5 20t-43.5 4h-54q-13 0 -35 -2q-11 -2 -19 -17
l-73 -148h43q33 0 46.5 2.5t28.5 12.5q4 2 37 33h5q-40 -73 -54 -108h-4v27q0 18 -10.5 23t-46.5 5h-48z" />
    <glyph glyph-name="g.sc" horiz-adv-x="429" 
d="M125 -8q-53 0 -81.5 29.5t-28.5 73.5q0 41 20 85q36 80 105 125t144 45q25 0 52.5 -4.5t29.5 -4.5q13 0 29 13l5 -3q-15 -20 -48 -94h-6q3 20 3 56q0 32 -65 32q-69 0 -127.5 -53t-93.5 -133q-21 -45 -21 -88q0 -32 21 -52.5t62 -20.5q37 0 72.5 14.5t50.5 45.5l17 35
q14 30 14 35q0 12 -48 12h-19l1 5h155l-1 -5h-5q-28 0 -39.5 -10t-25.5 -41l-14 -29q-12 -23 -13 -28q-7 0 -52.5 -20t-92.5 -20z" />
    <glyph glyph-name="h.sc" horiz-adv-x="487" 
d="M99 338l1 5h160l-1 -5h-6q-30 0 -44.5 -9.5t-31.5 -42.5l-55 -108h208l64 126q8 16 8 22q0 12 -39 12h-15l1 5h163l-1 -5h-20q-26 0 -40 -10.5t-30 -41.5l-115 -228q-17 -34 -17 -42q0 -10 36 -11h20l-1 -5h-157l1 5h9q25 0 40.5 10t28.5 35l62 123h-209l-56 -111
q-19 -38 -19 -46q0 -11 35 -11h15l-1 -5h-168l1 5h15q59 1 80 45l125 246q11 22 11 30q0 12 -31 12h-27z" />
    <glyph glyph-name="i.sc" horiz-adv-x="244" 
d="M178 286l-112 -220q-21 -42 -21 -50q0 -11 35 -11h18l-1 -5h-171l1 5h15q59 1 80 45l125 246q11 22 11 30q0 12 -31 12h-27l1 5h167l-1 -5h-13q-30 0 -44.5 -9.5t-31.5 -42.5z" />
    <glyph glyph-name="igrave.sc" horiz-adv-x="244" 
d="M178 286l-112 -220q-21 -42 -21 -50q0 -11 35 -11h18l-1 -5h-171l1 5h15q59 1 80 45l125 246q11 22 11 30q0 12 -31 12h-27l1 5h167l-1 -5h-13q-30 0 -44.5 -9.5t-31.5 -42.5zM209 458l-4 1l-1 122q9 -5 31 -10z" />
    <glyph glyph-name="iacute.sc" horiz-adv-x="244" 
d="M178 286l-112 -220q-21 -42 -21 -50q0 -11 35 -11h18l-1 -5h-171l1 5h15q59 1 80 45l125 246q11 22 11 30q0 12 -31 12h-27l1 5h167l-1 -5h-13q-30 0 -44.5 -9.5t-31.5 -42.5zM237 458h-5l72 97q29 0 45 3z" />
    <glyph glyph-name="icircumflex.sc" horiz-adv-x="244" 
d="M178 286l-112 -220q-21 -42 -21 -50q0 -11 35 -11h18l-1 -5h-171l1 5h15q59 1 80 45l125 246q11 22 11 30q0 12 -31 12h-27l1 5h167l-1 -5h-13q-30 0 -44.5 -9.5t-31.5 -42.5zM160 458l138 117q21 0 32 3l-18 -120h-5l-3 92l-137 -92h-7z" />
    <glyph glyph-name="idieresis.sc" horiz-adv-x="244" 
d="M178 286l-112 -220q-21 -42 -21 -50q0 -11 35 -11h18l-1 -5h-171l1 5h15q59 1 80 45l125 246q11 22 11 30q0 12 -31 12h-27l1 5h167l-1 -5h-13q-30 0 -44.5 -9.5t-31.5 -42.5zM200 514q18 0 18 -17q0 -13 -10.5 -25t-24.5 -12q-17 0 -17 17q0 12 10 24.5t24 12.5z
M305 514q18 0 18 -17q0 -13 -10.5 -25t-24.5 -12q-17 0 -17 17q0 12 10 24.5t24 12.5z" />
    <glyph glyph-name="j.sc" horiz-adv-x="233" 
d="M-7 -2l151 298q11 21 11 30q0 12 -32 12h-24l1 5h164l-1 -5h-16q-29 0 -43 -10.5t-29 -41.5q-8 -16 -64.5 -126.5t-80.5 -161.5q-22 -48 -66 -89t-104 -41q-26 0 -39 11t-13 26q0 12 7 21.5t18 9.5q15 0 15 -17q0 -9 -4 -19t-4 -14q0 -13 22 -13q68 0 131 125z" />
    <glyph glyph-name="k.sc" horiz-adv-x="401" 
d="M177 286l-56 -110h19q26 0 73 35l80 63q53 42 53 54q0 10 -24 10h-8v5h130v-5q-66 -5 -158 -77l-80 -62q-21 -17 -46 -25q47 -10 72 -72l24 -61q8 -22 16 -29t24 -7h19l-1 -5h-36q-27 0 -40.5 14t-26.5 47q-2 5 -14 39q-3 7 -7 20.5t-6.5 20t-7.5 15t-11 12t-15 3.5h-8
q-18 0 -24 -1l-53 -104q-21 -42 -21 -50q0 -11 35 -11h18l-1 -5h-171l1 5h15q59 1 80 45l125 246q11 22 11 30q0 12 -31 12h-27l1 5h167l-1 -5h-13q-30 0 -44.5 -9.5t-31.5 -42.5z" />
    <glyph glyph-name="l.sc" horiz-adv-x="374" 
d="M178 286l-138 -273q1 -4 9 -6q22 -2 43 -2h48q48 0 74 17q10 6 20 15t26 26.5t24 25.5h6l-30 -58q-8 -15 -10 -31l-4 -3q-29 3 -54 3h-258l1 5h21q26 1 40 11.5t30 41.5l121 238q11 22 11 30q0 12 -31 12h-27l1 5h167l-1 -5h-13q-30 0 -44.5 -9.5t-31.5 -42.5z" />
    <glyph glyph-name="m.sc" horiz-adv-x="527" 
d="M445 326l-266 -269q-5 0 -13 -4l-13 240l-98 -192q-30 -60 -30 -77q0 -19 53 -19h7l-1 -5h-163l1 5h7q15 0 25 2t27 10.5t35 31.5t37 60l99 192q-3 20 -11 28.5t-26 8.5h-31l1 5h28q58 0 64 -3q4 -9 7 -46l12 -212l256 258q13 3 42 3h54l-1 -5h-12q-31 0 -44 -9t-30 -43
l-115 -228q-17 -34 -17 -42q0 -11 36 -11h17l-1 -5h-164l1 5h15q30 1 45.5 10.5t27.5 34.5z" />
    <glyph glyph-name="n.sc" horiz-adv-x="444" 
d="M242 0q-8 0 -13 -3q-14 58 -25.5 106t-18.5 77.5t-13 52.5t-8.5 34.5t-4.5 19t-3 10.5t-1 5l-101 -197q-32 -62 -32 -81t53 -19h7l-1 -5h-157l1 5h7q17 0 29.5 3t38 28t50.5 73l103 200q-6 18 -15.5 23.5t-30.5 5.5h-19l1 5h27q52 0 58 -3q6 -11 11 -31l69 -274l105 207
q28 56 28 77q0 19 -51 19h-8l1 5h158l-1 -5h-7q-14 0 -23.5 -2t-25 -11t-33 -32t-36.5 -60z" />
    <glyph glyph-name="ntilde.sc" horiz-adv-x="444" 
d="M242 0q-8 0 -13 -3q-14 58 -25.5 106t-18.5 77.5t-13 52.5t-8.5 34.5t-4.5 19t-3 10.5t-1 5l-101 -197q-32 -62 -32 -81t53 -19h7l-1 -5h-157l1 5h7q17 0 29.5 3t38 28t50.5 73l103 200q-6 18 -15.5 23.5t-30.5 5.5h-19l1 5h27q52 0 58 -3q6 -11 11 -31l69 -274l105 207
q28 56 28 77q0 19 -51 19h-8l1 5h158l-1 -5h-7q-14 0 -23.5 -2t-25 -11t-33 -32t-36.5 -60zM238 467l-4 3q34 48 71 48q21 0 59.5 -18t55.5 -18q22 0 48 37l4 -3q-32 -50 -73 -50q-19 0 -57.5 18.5t-56.5 18.5q-22 0 -47 -36z" />
    <glyph glyph-name="o.sc" horiz-adv-x="432" 
d="M121 -8q-52 0 -79 30.5t-27 81.5q0 88 82 167t177 79q50 0 77.5 -30.5t27.5 -81.5q0 -84 -80 -165t-178 -81zM271 345q-81 0 -154.5 -91.5t-73.5 -175.5q0 -81 79 -81q56 0 111 45.5t86.5 108t31.5 115.5q0 79 -80 79z" />
    <glyph glyph-name="ograve.sc" horiz-adv-x="432" 
d="M287 449l-4 1l-1 122q9 -5 31 -10zM121 -8q-52 0 -79 30.5t-27 81.5q0 88 82 167t177 79q50 0 77.5 -30.5t27.5 -81.5q0 -84 -80 -165t-178 -81zM271 345q-81 0 -154.5 -91.5t-73.5 -175.5q0 -81 79 -81q56 0 111 45.5t86.5 108t31.5 115.5q0 79 -80 79z" />
    <glyph glyph-name="oacute.sc" horiz-adv-x="432" 
d="M327 458h-5l72 97q29 0 45 3zM121 -8q-52 0 -79 30.5t-27 81.5q0 88 82 167t177 79q50 0 77.5 -30.5t27.5 -81.5q0 -84 -80 -165t-178 -81zM271 345q-81 0 -154.5 -91.5t-73.5 -175.5q0 -81 79 -81q56 0 111 45.5t86.5 108t31.5 115.5q0 79 -80 79z" />
    <glyph glyph-name="ocircumflex.sc" horiz-adv-x="432" 
d="M244 458l138 117q21 0 32 3l-18 -120h-5l-3 92l-137 -92h-7zM121 -8q-52 0 -79 30.5t-27 81.5q0 88 82 167t177 79q50 0 77.5 -30.5t27.5 -81.5q0 -84 -80 -165t-178 -81zM271 345q-81 0 -154.5 -91.5t-73.5 -175.5q0 -81 79 -81q56 0 111 45.5t86.5 108t31.5 115.5
q0 79 -80 79z" />
    <glyph glyph-name="otilde.sc" horiz-adv-x="432" 
d="M263 467l-4 3q34 48 71 48q21 0 59.5 -18t55.5 -18q22 0 48 37l4 -3q-32 -50 -73 -50q-19 0 -57.5 18.5t-56.5 18.5q-22 0 -47 -36zM121 -8q-52 0 -79 30.5t-27 81.5q0 88 82 167t177 79q50 0 77.5 -30.5t27.5 -81.5q0 -84 -80 -165t-178 -81zM271 345
q-81 0 -154.5 -91.5t-73.5 -175.5q0 -81 79 -81q56 0 111 45.5t86.5 108t31.5 115.5q0 79 -80 79z" />
    <glyph glyph-name="odieresis.sc" horiz-adv-x="432" 
d="M291 514q18 0 18 -17q0 -13 -10.5 -25t-24.5 -12q-17 0 -17 17q0 12 10 24.5t24 12.5zM396 514q18 0 18 -17q0 -13 -10.5 -25t-24.5 -12q-17 0 -17 17q0 12 10 24.5t24 12.5zM121 -8q-52 0 -79 30.5t-27 81.5q0 88 82 167t177 79q50 0 77.5 -30.5t27.5 -81.5
q0 -84 -80 -165t-178 -81zM271 345q-81 0 -154.5 -91.5t-73.5 -175.5q0 -81 79 -81q56 0 111 45.5t86.5 108t31.5 115.5q0 79 -80 79z" />
    <glyph glyph-name="oslash.sc" horiz-adv-x="432" 
d="M-11 -34l-4 5l56 53q-26 29 -26 80q0 88 82 167t177 79q50 0 77 -30l57 54l4 -4l-57 -55q24 -28 24 -77q0 -84 -80 -165t-178 -81q-49 0 -76 27zM271 345q-81 0 -154.5 -91.5t-73.5 -175.5q0 -29 7 -45l292 278q-18 34 -71 34zM351 266q0 24 -7 39l-290 -277
q17 -31 68 -31q56 0 111 45.5t86.5 108t31.5 115.5z" />
    <glyph glyph-name="p.sc" horiz-adv-x="359" 
d="M137 149q-17 0 -29 -1l-50 -98q-13 -26 -13 -34q0 -11 49 -11h26v-5h-186l1 5h18q28 0 43 11t30 42l123 242q9 16 9 26q0 12 -35 12h-24l1 5h131q51 0 78 -21t27 -52q0 -55 -47 -88t-135 -33h-17zM195 319l-84 -164q13 -1 27 -1h6q78 0 118 36t40 84q0 28 -17 46t-55 18
q-7 0 -12 -1q-17 -4 -23 -18z" />
    <glyph glyph-name="thorn.sc" horiz-adv-x="359" 
d="M178 286l-7 -13h25q48 0 76 -20t28 -55q0 -53 -47 -86t-136 -33h-17q-16 0 -28 -1l-6 -12q-21 -42 -21 -50q0 -11 35 -11h18l-1 -5h-171l1 5h15q59 1 80 45l125 246q11 22 11 30q0 12 -31 12h-27l1 5h167l-1 -5h-13q-30 0 -44.5 -9.5t-31.5 -42.5zM157 245l-81 -159
q18 -2 25 -2h5q80 0 121 36t41 82q0 66 -72 66q-13 0 -20 -3q-12 -4 -19 -20z" />
    <glyph glyph-name="q.sc" horiz-adv-x="432" 
d="M121 -8q-52 0 -79 30.5t-27 81.5q0 88 82 167t177 79q50 0 77.5 -30.5t27.5 -81.5q0 -73 -65 -148t-151 -93q20 -45 40 -85q14 -30 24.5 -42t26.5 -12q37 0 71 50l4 -3q-36 -53 -77 -53q-27 0 -52 23t-56 94q-4 8 -10 24q-5 -1 -13 -1zM271 345q-81 0 -154.5 -91.5
t-73.5 -175.5v-6q18 15 34 15q45 0 83 -85q74 22 132.5 106.5t58.5 157.5q0 79 -80 79zM74 81q-16 0 -31 -15q4 -69 79 -69q7 0 10 1q-17 42 -29.5 62.5t-28.5 20.5z" />
    <glyph glyph-name="r.sc" horiz-adv-x="376" 
d="M327 274q0 -41 -38 -69t-118 -28q66 -8 83 -86l8 -36q8 -34 14.5 -42t31.5 -8h12l-1 -5h-18q-39 0 -55 14t-24 60q-3 16 -5 25.5t-3 14.5q-7 36 -21.5 48.5t-44.5 12.5q-2 0 -11.5 -0.5t-15.5 -0.5l-63 -124q-13 -26 -13 -34q0 -11 52 -11h16l-1 -5h-186l1 5h18
q30 0 47.5 11.5t33.5 41.5l117 230q15 30 15 38q0 12 -33 12h-26l1 5h129q51 0 74.5 -19.5t23.5 -49.5zM195 319l-70 -137q10 -1 27 -1q15 0 29 1q53 2 83.5 32t30.5 66q0 26 -16 42t-48 16q-16 0 -23 -3.5t-13 -15.5z" />
    <glyph glyph-name="s.sc" horiz-adv-x="317" 
d="M81 -3q75 0 75 86q0 26 -17 86t-17 84q0 53 30.5 75t65.5 22q23 0 48.5 -8t28.5 -8q14 0 26 15l5 -3q-8 -11 -54 -100l-6 2q10 24 10 58q0 7 -3.5 15t-17.5 16t-38 8q-33 0 -50 -20t-17 -48q0 -26 18.5 -91t18.5 -90q0 -31 -11.5 -53t-29.5 -32t-34 -14.5t-31 -4.5
q-29 0 -59 12.5t-33 12.5q-14 0 -33 -25l-5 3q45 82 63 121l6 -2q-13 -52 -13 -61q0 -23 19 -39.5t55 -16.5z" />
    <glyph glyph-name="t.sc" horiz-adv-x="429" 
d="M150 343h254q22 0 52 3l1 -5q-10 -17 -25 -45l-22 -43h-5q7 40 7 68q0 17 -45 17h-19q-22 0 -38 -2t-23 -16l-132 -260q-18 -36 -18 -44q0 -11 40 -11h24l-1 -5h-183l1 5h14q60 0 82 45l117 230q22 45 22 49q0 9 -36 9h-34q-32 0 -54 -25q-12 -13 -31 -32t-27 -28h-6
l28 59q9 20 12 31l3 3q18 -3 42 -3z" />
    <glyph glyph-name="u.sc" horiz-adv-x="423" 
d="M344 228l-57 -111q-63 -125 -169 -125q-46 0 -71 22t-25 56q0 33 24 83l75 147q10 20 10 26q0 12 -38 12h-9v5h154l-1 -5h-18q-27 0 -40.5 -11t-28.5 -41l-73 -144q-33 -66 -33 -87q0 -57 76 -57q101 0 162 121l43 85q47 92 47 117q0 17 -40 17h-4l1 5h132l-1 -5h-3
q-29 0 -53.5 -21t-59.5 -89z" />
    <glyph glyph-name="ugrave.sc" horiz-adv-x="423" 
d="M344 228l-57 -111q-63 -125 -169 -125q-46 0 -71 22t-25 56q0 33 24 83l75 147q10 20 10 26q0 12 -38 12h-9v5h154l-1 -5h-18q-27 0 -40.5 -11t-28.5 -41l-73 -144q-33 -66 -33 -87q0 -57 76 -57q101 0 162 121l43 85q47 92 47 117q0 17 -40 17h-4l1 5h132l-1 -5h-3
q-29 0 -53.5 -21t-59.5 -89zM297 458l-4 1l-1 122q9 -5 31 -10z" />
    <glyph glyph-name="uacute.sc" horiz-adv-x="423" 
d="M344 228l-57 -111q-63 -125 -169 -125q-46 0 -71 22t-25 56q0 33 24 83l75 147q10 20 10 26q0 12 -38 12h-9v5h154l-1 -5h-18q-27 0 -40.5 -11t-28.5 -41l-73 -144q-33 -66 -33 -87q0 -57 76 -57q101 0 162 121l43 85q47 92 47 117q0 17 -40 17h-4l1 5h132l-1 -5h-3
q-29 0 -53.5 -21t-59.5 -89zM328 458h-5l72 97q29 0 45 3z" />
    <glyph glyph-name="ucircumflex.sc" horiz-adv-x="423" 
d="M344 228l-57 -111q-63 -125 -169 -125q-46 0 -71 22t-25 56q0 33 24 83l75 147q10 20 10 26q0 12 -38 12h-9v5h154l-1 -5h-18q-27 0 -40.5 -11t-28.5 -41l-73 -144q-33 -66 -33 -87q0 -57 76 -57q101 0 162 121l43 85q47 92 47 117q0 17 -40 17h-4l1 5h132l-1 -5h-3
q-29 0 -53.5 -21t-59.5 -89zM241 458l138 117q21 0 32 3l-18 -120h-5l-3 92l-137 -92h-7z" />
    <glyph glyph-name="udieresis.sc" horiz-adv-x="423" 
d="M344 228l-57 -111q-63 -125 -169 -125q-46 0 -71 22t-25 56q0 33 24 83l75 147q10 20 10 26q0 12 -38 12h-9v5h154l-1 -5h-18q-27 0 -40.5 -11t-28.5 -41l-73 -144q-33 -66 -33 -87q0 -57 76 -57q101 0 162 121l43 85q47 92 47 117q0 17 -40 17h-4l1 5h132l-1 -5h-3
q-29 0 -53.5 -21t-59.5 -89zM276 514q18 0 18 -17q0 -13 -10.5 -25t-24.5 -12q-17 0 -17 17q0 12 10 24.5t24 12.5zM381 514q18 0 18 -17q0 -13 -10.5 -25t-24.5 -12q-17 0 -17 17q0 12 10 24.5t24 12.5z" />
    <glyph glyph-name="v.sc" horiz-adv-x="366" 
d="M92 34l189 211q58 62 58 78q0 15 -41 15h-13l1 5h148l-1 -5q-60 -2 -116 -63l-249 -275q-5 0 -12 -4l35 255q7 59 7 60q0 15 -9 21t-36 6h-5l1 5h151l-1 -5h-3q-19 0 -30.5 -2.5t-22 -13t-13.5 -30.5z" />
    <glyph glyph-name="w.sc" horiz-adv-x="539" 
d="M240 -4l35 255l-208 -251q-4 0 -11 -4l35 253q7 47 7 61q0 16 -9.5 22t-30.5 6h-9l1 5h136l-1 -5h-3q-25 0 -36.5 -8.5t-16.5 -39.5l-36 -251l184 222q5 42 5 51q0 15 -9 20.5t-30 5.5h-3l1 5h133l-1 -5h-6q-25 0 -38 -9t-17 -39l-35 -251l164 197q59 72 59 87t-40 15h-5
l1 5h137l-1 -5q-30 0 -60.5 -19t-86.5 -86l-194 -233q-4 0 -11 -4z" />
    <glyph glyph-name="x.sc" horiz-adv-x="378" 
d="M173 287l13 -86l65 55q67 56 67 70q0 12 -30 12h-2l1 5h123l-1 -5q-58 -4 -150 -82l-72 -61l20 -131q4 -29 10 -41t21 -16q7 -2 31 -2l-1 -5h-143l1 5h16q22 1 29 5.5t7 16.5q0 17 -5 42l-16 109l-108 -92q-68 -59 -68 -70t44 -11h8v-5h-147l1 5q1 0 13 1.5t16 2.5
q44 10 127 80l113 95l-16 108q-4 27 -11.5 35.5t-30.5 10.5h-14l1 5h129l-1 -5h-12q-21 -1 -26.5 -5t-5.5 -14q0 -3 2 -15.5t2 -16.5z" />
    <glyph glyph-name="y.sc" horiz-adv-x="351" 
d="M59 338l1 5h138l-1 -5h-2q-34 0 -45 -15q-6 -9 -8 -34l-6 -157l124 118q61 57 61 74q0 14 -39 14h-7l1 5h134l-1 -5q-50 0 -145 -91l-126 -120l-35 -69q-17 -34 -17 -42q0 -11 37 -11h27l-1 -5h-183l1 5h14q59 0 82 45l43 84q6 151 6 162q0 24 -7 33t-30 9h-16z" />
    <glyph glyph-name="yacute.sc" horiz-adv-x="351" 
d="M59 338l1 5h138l-1 -5h-2q-34 0 -45 -15q-6 -9 -8 -34l-6 -157l124 118q61 57 61 74q0 14 -39 14h-7l1 5h134l-1 -5q-50 0 -145 -91l-126 -120l-35 -69q-17 -34 -17 -42q0 -11 37 -11h27l-1 -5h-183l1 5h14q59 0 82 45l43 84q6 151 6 162q0 24 -7 33t-30 9h-16zM287 458
h-5l72 97q29 0 45 3z" />
    <glyph glyph-name="ydieresis.sc" horiz-adv-x="351" 
d="M59 338l1 5h138l-1 -5h-2q-34 0 -45 -15q-6 -9 -8 -34l-6 -157l124 118q61 57 61 74q0 14 -39 14h-7l1 5h134l-1 -5q-50 0 -145 -91l-126 -120l-35 -69q-17 -34 -17 -42q0 -11 37 -11h27l-1 -5h-183l1 5h14q59 0 82 45l43 84q6 151 6 162q0 24 -7 33t-30 9h-16zM239 514
q18 0 18 -17q0 -13 -10.5 -25t-24.5 -12q-17 0 -17 17q0 12 10 24.5t24 12.5zM344 514q18 0 18 -17q0 -13 -10.5 -25t-24.5 -12q-17 0 -17 17q0 12 10 24.5t24 12.5z" />
    <glyph glyph-name="z.sc" horiz-adv-x="374" 
d="M170 0h-223q2 8 2 12l369 317q6 6 6 9h-123q-25 0 -33.5 -4t-23.5 -19q-14 -14 -32 -34t-21 -23h-6l26 54q9 20 12 31l3 3q18 -3 42 -3h201q-2 -6 -2 -13l-371 -318q-4 -3 -4 -7h129q48 0 71 17q9 7 73 71h6l-33 -62q-4 -8 -10 -31l-4 -3q-27 3 -54 3z" />
    <glyph glyph-name="germandbls.sc" horiz-adv-x="600" 
d="M81 -3q75 0 75 86q0 26 -17 86t-17 84q0 53 30.5 75t65.5 22q23 0 48.5 -8t28.5 -8q14 0 26 15l5 -3q-8 -11 -54 -100l-6 2q10 24 10 58q0 7 -3.5 15t-17.5 16t-38 8q-33 0 -50 -20t-17 -48q0 -26 18.5 -91t18.5 -90q0 -31 -11.5 -53t-29.5 -32t-34 -14.5t-31 -4.5
q-29 0 -59 12.5t-33 12.5q-14 0 -33 -25l-5 3q45 82 63 121l6 -2q-13 -52 -13 -61q0 -23 19 -39.5t55 -16.5zM364 -3q75 0 75 86q0 26 -17 86t-17 84q0 53 30.5 75t65.5 22q23 0 48.5 -8t28.5 -8q14 0 26 15l5 -3q-8 -11 -54 -100l-6 2q10 24 10 58q0 7 -3.5 15t-17.5 16
t-38 8q-33 0 -50 -20t-17 -48q0 -26 18.5 -91t18.5 -90q0 -31 -11.5 -53t-29.5 -32t-34 -14.5t-31 -4.5q-29 0 -59 12.5t-33 12.5q-14 0 -33 -25l-5 3q45 82 63 121l6 -2q-13 -52 -13 -61q0 -23 19 -39.5t55 -16.5z" />
    <glyph glyph-name="fi.sc" horiz-adv-x="592" 
d="M116 166l-59 -116q-14 -28 -14 -34q0 -11 55 -11h21v-5h-191l1 5h18q51 0 78 53l123 242q9 16 9 26q0 12 -35 12h-22l1 5h245q26 0 53 3l2 -5q-4 -7 -8.5 -15t-11 -20.5t-12.5 -22.5l-15 -30h-4q5 38 5 61q0 16 -11.5 20t-43.5 4h-54q-13 0 -35 -2q-11 -2 -19 -17
l-73 -148h43q33 0 46.5 2.5t28.5 12.5q4 2 37 33h5q-40 -73 -54 -108h-4v27q0 18 -10.5 23t-46.5 5h-48zM527 286l-112 -220q-21 -42 -21 -50q0 -11 35 -11h18l-1 -5h-171l1 5h15q59 1 80 45l125 246q11 22 11 30q0 12 -31 12h-27l1 5h167l-1 -5h-13q-30 0 -44.5 -9.5
t-31.5 -42.5z" />
    <glyph glyph-name="fl.sc" horiz-adv-x="723" 
d="M116 166l-59 -116q-14 -28 -14 -34q0 -11 55 -11h21v-5h-191l1 5h18q51 0 78 53l123 242q9 16 9 26q0 12 -35 12h-22l1 5h245q26 0 53 3l2 -5q-4 -7 -8.5 -15t-11 -20.5t-12.5 -22.5l-15 -30h-4q5 38 5 61q0 16 -11.5 20t-43.5 4h-54q-13 0 -35 -2q-11 -2 -19 -17
l-73 -148h43q33 0 46.5 2.5t28.5 12.5q4 2 37 33h5q-40 -73 -54 -108h-4v27q0 18 -10.5 23t-46.5 5h-48zM527 286l-138 -273q1 -4 9 -6q22 -2 43 -2h48q49 0 74 17q10 6 20 15t26 26.5t24 25.5h6l-30 -58q-8 -15 -10 -31l-4 -3q-29 3 -54 3h-258l1 5h21q26 1 40 11.5
t30 41.5l121 238q11 22 11 30q0 12 -31 12h-27l1 5h167l-1 -5h-13q-30 0 -44.5 -9.5t-31.5 -42.5z" />
    <glyph glyph-name="lslash.sc" horiz-adv-x="374" 
d="M178 286l-65 -129l161 48v-5l-165 -50l-69 -137q1 -4 9 -6q22 -2 43 -2h48q48 0 74 17q10 6 20 15t26 26.5t24 25.5h6l-30 -58q-8 -15 -10 -31l-4 -3q-29 3 -54 3h-258l1 5h21q26 1 40 11.5t30 41.5l40 79l-83 -25l-1 6l88 26l77 152q11 22 11 30q0 12 -31 12h-27l1 5
h167l-1 -5h-13q-30 0 -44.5 -9.5t-31.5 -42.5z" />
    <glyph glyph-name="oe.sc" horiz-adv-x="663" 
d="M121 -8q-52 0 -79 30.5t-27 81.5q0 88 82 167t177 79q49 0 76 -30.5t27 -81.5q0 -8 -2 -20l42 82q10 20 10 26q0 12 -39 12h-9l1 5h230q18 0 45 3l2 -5q-4 -6 -7.5 -12t-8 -14.5t-7.5 -14.5l-20 -39h-5q4 25 4 57q0 12 -8 16t-40 4h-51q-18 0 -34 -2q-13 -1 -22 -21
l-68 -135h35q32 0 42 1.5t21 9.5q20 12 43 37h5q-34 -59 -55 -108h-3v27q0 18 -9 23t-42 5h-40l-82 -162q1 -4 9 -6q20 -2 35 -2h60q49 0 74 17q10 6 20 15t26 26.5t24 25.5h6l-30 -58q-5 -10 -10 -31l-4 -3q-27 3 -54 3h-227l1 5h2q23 0 32 9.5t26 43.5l13 27
q-84 -93 -187 -93zM271 345q-81 0 -154.5 -91.5t-73.5 -175.5q0 -81 79 -81q56 0 111 45.5t86.5 108t31.5 115.5q0 79 -80 79z" />
    <glyph glyph-name="scaron.sc" horiz-adv-x="317" 
d="M81 -3q75 0 75 86q0 26 -17 86t-17 84q0 53 30.5 75t65.5 22q23 0 48.5 -8t28.5 -8q14 0 26 15l5 -3q-8 -11 -54 -100l-6 2q10 24 10 58q0 7 -3.5 15t-17.5 16t-38 8q-33 0 -50 -20t-17 -48q0 -26 18.5 -91t18.5 -90q0 -31 -11.5 -53t-29.5 -32t-34 -14.5t-31 -4.5
q-29 0 -59 12.5t-33 12.5q-14 0 -33 -25l-5 3q45 82 63 121l6 -2q-13 -52 -13 -61q0 -23 19 -39.5t55 -16.5zM420 575l-138 -117q-21 0 -32 -3l18 120h5l3 -92l137 92h7z" />
    <glyph glyph-name="zcaron.sc" horiz-adv-x="374" 
d="M170 0h-223q2 8 2 12l369 317q6 6 6 9h-123q-25 0 -33.5 -4t-23.5 -19q-14 -14 -32 -34t-21 -23h-6l26 54q9 20 12 31l3 3q18 -3 42 -3h201q-2 -6 -2 -13l-371 -318q-4 -3 -4 -7h129q48 0 71 17q9 7 73 71h6l-33 -62q-4 -8 -10 -31l-4 -3q-27 3 -54 3zM426 575l-138 -117
q-21 0 -32 -3l18 120h5l3 -92l137 92h7z" />
    <glyph glyph-name="acutecomb.case" 
d="M-527 1074h-6l86 116q35 0 54 4z" />
    <glyph glyph-name="gravecomb.case" 
d="M-357 1074h-4l-35 143q12 -4 38 -4z" />
    <glyph glyph-name="uni0302.case" 
d="M-472 1074l145 123q22 0 34 3l-19 -126h-5l-3 97l-145 -97h-7z" />
    <glyph glyph-name="tildecomb.case" 
d="M-579 1088l-4 4q43 61 90 61q25 0 75 -22.5t73 -22.5q30 0 58 46l4 -3q-40 -64 -92 -64q-24 0 -72 23t-71 23q-18 0 -31 -10.5t-30 -34.5z" />
    <glyph glyph-name="uni0304.case" 
d="M-528 1108l4 15h305l-3 -15h-306z" />
    <glyph glyph-name="uni0306.case" 
d="M-434 1189h5q-9 -25 -9 -48q0 -43 37 -43q36 0 73 28.5t64 63.5l4 -1q-77 -119 -146 -119q-45 0 -45 50q0 29 17 69z" />
    <glyph glyph-name="uni0307.case" 
d="M-400 1164q24 0 24 -22q0 -16 -14 -31.5t-32 -15.5q-22 0 -22 21q0 16 13 32t31 16z" />
    <glyph glyph-name="uni0308.case" 
d="M-460 1156q22 0 22 -20q0 -15 -13 -30t-30 -15q-20 0 -20 20q0 16 12 30.5t29 14.5zM-304 1156q22 0 22 -20q0 -15 -13 -30t-30 -15q-20 0 -20 20q0 16 12 30.5t29 14.5z" />
    <glyph glyph-name="uni030A.case" 
d="M-485 1123q0 30 22.5 52.5t56.5 22.5q26 0 42.5 -15.5t16.5 -39.5q0 -31 -23 -53t-55 -22q-27 0 -43.5 15.5t-16.5 39.5zM-474 1124q0 -22 14 -34.5t37 -12.5q26 0 45.5 19.5t19.5 45.5q0 21 -13.5 34t-35.5 13q-28 0 -47.5 -20t-19.5 -45z" />
    <glyph glyph-name="uni030B.case" 
d="M-448 1074h-6l87 116q27 0 46 4zM-323 1074h-6l88 116q26 0 46 4z" />
    <glyph glyph-name="uni030C.case" 
d="M-205 1197l-145 -123q-22 0 -34 -3l19 126h5l3 -97l145 97h7z" />
    <glyph glyph-name="uni0328.case" 
d="M-175 73l5 -5q-71 -67 -128.5 -152t-57.5 -130q0 -34 37 -34q58 0 117 83l4 -5q-58 -85 -121 -85q-29 0 -45 15.5t-16 37.5q0 26 10.5 52.5t35 56.5t44.5 51t58.5 58.5t56.5 56.5z" />
    <glyph glyph-name="uni0327.case" 
d="M-323 -76l66 76h8l-59 -68q37 -8 56.5 -28.5t19.5 -47.5q0 -36 -32.5 -64.5t-83.5 -28.5q-46 0 -83 20l2 4q34 -17 71 -17q41 0 68 27t27 60q0 23 -15 41.5t-45 25.5z" />
    <glyph glyph-name="acutecomb.sc" 
d="M-194 458h-5l72 97q29 0 45 3z" />
    <glyph glyph-name="gravecomb.sc" 
d="M-93 458l-4 1l-1 122q9 -5 31 -10z" />
    <glyph glyph-name="uni0302.sc" 
d="M-243 458l138 117q21 0 32 3l-18 -120h-5l-3 92l-137 -92h-7z" />
    <glyph glyph-name="tildecomb.sc" 
d="M-289 467l-4 3q34 48 71 48q21 0 59.5 -18t55.5 -18q22 0 48 37l4 -3q-32 -50 -73 -50q-19 0 -57.5 18.5t-56.5 18.5q-22 0 -47 -36z" />
    <glyph glyph-name="uni0304.sc" 
d="M-289 491l3 12h187l-3 -12h-187z" />
    <glyph glyph-name="uni0306.sc" 
d="M-193 555h4q-8 -22 -8 -41q0 -35 31 -35q30 0 61 24t53 53l4 -1q-64 -99 -122 -99q-37 0 -37 42q0 27 14 57z" />
    <glyph glyph-name="uni0307.sc" 
d="M-98 516q19 0 19 -18q0 -14 -11 -27t-27 -13q-18 0 -18 18q0 14 10.5 27t26.5 13z" />
    <glyph glyph-name="uni0308.sc" 
d="M-196 514q18 0 18 -17q0 -13 -10.5 -25t-24.5 -12q-17 0 -17 17q0 12 10 24.5t24 12.5zM-91 514q18 0 18 -17q0 -13 -10.5 -25t-24.5 -12q-17 0 -17 17q0 12 10 24.5t24 12.5z" />
    <glyph glyph-name="uni030A.sc" 
d="M-168 499q0 22 17 39t42 17q19 0 31.5 -12t12.5 -29q0 -24 -17 -40t-41 -16q-20 0 -32.5 11.5t-12.5 29.5zM-160 500q0 -16 10.5 -25.5t27.5 -9.5q20 0 34.5 14.5t14.5 33.5q0 16 -10 25.5t-27 9.5q-21 0 -35.5 -14.5t-14.5 -33.5z" />
    <glyph glyph-name="uni030B.sc" 
d="M-216 458h-5l73 97q22 0 38 3zM-138 458h-5l73 97q22 0 38 3z" />
    <glyph glyph-name="uni030C.sc" 
d="M-23 575l-138 -117q-21 0 -32 -3l18 120h5l3 -92l137 92h7z" />
    <glyph glyph-name="uni0328.sc" 
d="M-156 73l3 -3q-52 -50 -94 -112t-42 -94q0 -25 27 -25q42 0 86 60l3 -3q-43 -62 -89 -62q-22 0 -33 11.5t-11 27.5q0 19 7.5 38t26 41.5t32 37t43 42.5t41.5 41z" />
    <glyph glyph-name="uni0327.sc" 
d="M-259 -54l45 51h7l-40 -46q52 -9 52 -50q0 -25 -22 -45t-57 -20q-31 0 -56 14l1 3q22 -11 48 -11q27 0 45.5 18t18.5 40q0 36 -42 46z" />
    <glyph glyph-name="f_f_i" horiz-adv-x="594" 
d="M361 -8q-28 0 -28 30q0 34 48 110l124 196h-148l-54 -91q-89 -153 -159 -264t-123.5 -181t-92 -112t-74 -61.5t-58 -24.5t-55.5 -5q-44 0 -73 27q-74 -62 -153 -62q-34 0 -60 19l2 4q27 -18 58 -18q58 0 119 53.5t162.5 198.5t286.5 445l42 68q-76 -6 -121 -20l-1 5
q49 14 125 20q104 167 171 246q119 143 221 143q53 0 61 -48q52 47 83 47q20 0 20 -18q0 -32 -80 -112t-183 -159q-7 -10 -28.5 -43.5t-32.5 -51.5h152q21 0 35 2l-143 -225q-5 -8 -15 -23t-16 -24.5t-13 -20.5t-10 -18.5t-3 -12.5q0 -14 15 -14q76 0 234 198q1 1 3 1t2 -2
l-1 -1v-1q-158 -200 -239 -200zM265 328q-42 0 -102 -2l-50 -84q-289 -493 -441 -623q31 -25 70 -25q44 0 77 18t93 90t139.5 195t221.5 353q9 15 26 41.5t23 36.5h-57zM166 331q60 2 98 2h61q154 242 252 333q-4 46 -55 46q-39 0 -84.5 -32.5t-94 -92t-89 -118.5
t-88.5 -138zM665 711q-58 0 -237 -271q99 78 175 154.5t76 104.5q0 12 -14 12zM623 511q19 0 19 -18q0 -14 -11 -27t-27 -13q-18 0 -18 18q0 14 11 27t26 13z" />
    <glyph glyph-name="f_i" horiz-adv-x="401" 
d="M5 304l-1 5q48 16 126 20q247 388 341 388q20 0 20 -18q0 -32 -80 -112t-183 -159l-62 -97q31 2 101 2h48q25 0 39 2l-143 -225q-5 -8 -15 -23t-16 -24.5t-13 -20.5t-10 -18.5t-3 -12.5q0 -14 15 -14q76 0 234 198q1 1 3 1t2 -2v-1l-1 -1q-158 -200 -239 -200
q-28 0 -28 30q0 34 48 110l124 196h-46q-73 0 -103 -2q-32 -52 -53 -89q-105 -179 -188.5 -305.5t-142 -199.5t-108.5 -113.5t-83.5 -52.5t-71.5 -12q-34 0 -63 18l3 4q29 -17 60 -17q58 0 119 54t161 196.5t284 440.5l46 74q-76 -6 -121 -20zM472 711q-58 0 -237 -271
q99 78 175 154.5t76 104.5q0 12 -14 12zM429 511q19 0 19 -18q0 -14 -11 -27t-27 -13q-18 0 -18 18q0 14 11 27t26 13z" />
    <glyph glyph-name="A.swsh01" horiz-adv-x="1878" 
d="M1710 708q-144 -131 -254 -284l11 -3q77 107 175 207t181 159q-173 -149 -327 -379q90 -44 136 -134q78 90 147 90q43 0 64.5 -25t21.5 -67q0 -79 -63.5 -177t-161.5 -152q-28 -76 -80.5 -142.5t-128.5 -120t-182 -84.5t-229 -31q-185 0 -303.5 100.5t-145.5 254.5
q-63 -11 -125 -11q-187 0 -286.5 96.5t-99.5 236.5q0 65 23 131q-64 73 -64 172q0 61 26 119t73 105t120.5 75.5t161.5 28.5q98 0 175 -28l-2 -4q-80 27 -176 27q-167 0 -270 -98.5t-103 -225.5q0 -95 61 -166q45 125 160 207.5t280 82.5q137 0 215 -62.5t93 -157.5
q85 62 199 120q66 33 107.5 55.5t95.5 55.5t87.5 60.5t69.5 65.5t55.5 76.5t32.5 87t13 103.5q0 126 -82.5 212.5t-205.5 102.5q44 -65 44 -149q0 -22 -3 -43q74 -36 74 -122q0 -52 -29.5 -108.5t-80 -105t-129 -79.5t-166.5 -31q-127 0 -195.5 69t-68.5 173q0 71 33 142.5
t93.5 132t157.5 98t214 37.5q13 0 41 -2q-77 92 -233 92q-51 0 -112 -18t-128 -55.5t-124 -108.5t-86 -164l-5 2q23 76 66.5 138t92.5 100t105 64t103.5 36.5t87.5 10.5q162 0 240 -98q126 -17 213.5 -105.5t87.5 -220.5q0 -49 -9 -92.5t-28.5 -81.5t-41.5 -70t-58 -62.5
t-67.5 -54.5t-80 -52t-85.5 -47.5t-94 -47.5q-116 -58 -200 -121q2 -22 2 -35q0 -101 -68 -186t-184 -108q-15 -52 -15 -113q0 -38 6 -74q121 23 236 91v4q0 90 53 178.5t156 156t231 83.5q1 2 5 6q78 90 134 150.5t135.5 133t147 115t150 72t163.5 29.5q109 0 164 -59
t55 -148q0 -121 -85 -219q-44 -50 -105 -78t-126 -28q-73 0 -113.5 39t-40.5 95q0 76 60 127t136 51q36 0 69 -11l-2 -4q-33 11 -67 11q-72 0 -131.5 -49.5t-59.5 -124.5q0 -54 38 -90.5t105 -36.5q80 0 152 54t112 132t40 154q0 80 -50 130t-154 50q-92 0 -181 -34
t-180.5 -105t-174 -154t-187.5 -205l-2 -2q44 4 68 4q4 0 12 -0.5t12 -0.5q49 130 148 134l1 -4q-45 -1 -73 -30t-57 -101q23 -2 60 -10q94 127 225 242t261 181l1 -5q-103 -49 -206 -143zM1242 1197q3 20 3 40q0 86 -46 150q-22 3 -44 3q-108 0 -202.5 -39.5t-154.5 -101.5
t-94.5 -135t-34.5 -143q0 -95 63 -156t185 -61q87 0 163.5 31t126.5 79t78.5 103.5t28.5 106.5q0 81 -69 115q-16 -111 -93.5 -192t-188.5 -81q-43 0 -64.5 22t-21.5 60q0 74 78 145.5t194 71.5q52 0 93 -18zM1049 -209q-107 0 -171 63t-67 158q-115 -69 -235 -91
q26 -152 143 -251.5t301 -99.5q108 0 204.5 29t169 79t125.5 112.5t86 135.5q-68 -28 -132 -28q-71 0 -111 28q-144 -135 -313 -135zM580 119q50 179 250 327q-14 93 -90.5 154.5t-209.5 61.5q-158 0 -270 -88t-154 -217q75 -69 197 -83v6q0 75 53 132t140 57h4
q45 -1 70.5 -23t25.5 -54q0 -49 -57.5 -88t-165.5 -39q-20 0 -54 2q0 -66 47.5 -110.5t142.5 -44.5q31 0 71 7zM1388 295q31 57 76 121q-3 2 -11 4q-2 -3 -19 -28q-133 -197 -133 -344q0 -43 13 -75q-23 35 -23 93q0 146 74 271q23 40 60 91q-24 7 -58 10l-1 -2
q-43 -112 -112 -125q2 -10 2 -17q0 -33 -38 -69.5t-83 -65t-83 -68.5t-38 -77q0 -24 15 -40.5t41 -16.5q36 0 70.5 24t57.5 72l4 -2q-21 -46 -56.5 -72.5t-75.5 -26.5q-28 0 -46 18.5t-18 47.5q0 41 25 75.5t61 58.5t72.5 45t61.5 46t25 52q0 7 -3 15q-5 -1 -17 -1
q-21 0 -21 13q0 14 16 14q18 0 26 -20q34 6 54 34.5t42 88.5q-4 0 -12 0.5t-12 0.5q-33 0 -71 -5q-72 -83 -109.5 -125.5t-99 -106t-116.5 -108.5t-112 -80q2 -93 63.5 -156t169.5 -63q167 0 309 133q-49 36 -49 111q0 110 79 255zM564 1q0 60 14 112q-33 -6 -70 -6
q-97 0 -148.5 46.5t-55.5 115.5q-123 14 -200 83q-18 -60 -18 -120q0 -135 92 -226t269 -91q62 0 123 11q-6 36 -6 75zM1319 33q0 -67 43 -100q63 60 154.5 186t108.5 146q-41 94 -132 139q-79 -118 -126.5 -220t-47.5 -151zM963 922q109 0 186 80t92 189q-35 16 -83 16
q-109 0 -189 -75.5t-80 -143.5q0 -28 17.5 -47t56.5 -19zM1635 268q35 -73 35 -161q0 -77 -27 -155q94 54 155.5 149t61.5 170q0 41 -20.5 64.5t-61.5 23.5q-67 0 -143 -91zM816 22v-1q55 34 107.5 77t111.5 103.5t94 99.5t103 117l14 16q-125 -17 -225.5 -83.5t-152.5 -154
t-52 -174.5zM1627 259q-12 -15 -104.5 -142t-155.5 -187q39 -26 106 -26t136 31q42 96 42 192q0 72 -24 132zM502 460q-77 0 -129 -57.5t-54 -130.5q34 -2 54 -2q105 0 161 37.5t56 83.5q0 30 -23.5 49.5t-64.5 19.5zM830 440q-194 -144 -245 -320q114 23 180.5 106.5
t66.5 182.5q0 11 -2 31zM1230 314q11 0 16 1q-7 16 -20 16q-11 0 -11 -9q0 -8 15 -8z" />
    <glyph glyph-name="Agrave.swsh01" horiz-adv-x="1878" 
d="M1710 708q-144 -131 -254 -284l11 -3q77 107 175 207t181 159q-173 -149 -327 -379q90 -44 136 -134q78 90 147 90q43 0 64.5 -25t21.5 -67q0 -79 -63.5 -177t-161.5 -152q-28 -76 -80.5 -142.5t-128.5 -120t-182 -84.5t-229 -31q-185 0 -303.5 100.5t-145.5 254.5
q-63 -11 -125 -11q-187 0 -286.5 96.5t-99.5 236.5q0 65 23 131q-64 73 -64 172q0 61 26 119t73 105t120.5 75.5t161.5 28.5q98 0 175 -28l-2 -4q-80 27 -176 27q-167 0 -270 -98.5t-103 -225.5q0 -95 61 -166q45 125 160 207.5t280 82.5q137 0 215 -62.5t93 -157.5
q85 62 199 120q66 33 107.5 55.5t95.5 55.5t87.5 60.5t69.5 65.5t55.5 76.5t32.5 87t13 103.5q0 126 -82.5 212.5t-205.5 102.5q44 -65 44 -149q0 -22 -3 -43q74 -36 74 -122q0 -52 -29.5 -108.5t-80 -105t-129 -79.5t-166.5 -31q-127 0 -195.5 69t-68.5 173q0 71 33 142.5
t93.5 132t157.5 98t214 37.5q13 0 41 -2q-77 92 -233 92q-51 0 -112 -18t-128 -55.5t-124 -108.5t-86 -164l-5 2q23 76 66.5 138t92.5 100t105 64t103.5 36.5t87.5 10.5q162 0 240 -98q126 -17 213.5 -105.5t87.5 -220.5q0 -49 -9 -92.5t-28.5 -81.5t-41.5 -70t-58 -62.5
t-67.5 -54.5t-80 -52t-85.5 -47.5t-94 -47.5q-116 -58 -200 -121q2 -22 2 -35q0 -101 -68 -186t-184 -108q-15 -52 -15 -113q0 -38 6 -74q121 23 236 91v4q0 90 53 178.5t156 156t231 83.5q1 2 5 6q78 90 134 150.5t135.5 133t147 115t150 72t163.5 29.5q109 0 164 -59
t55 -148q0 -121 -85 -219q-44 -50 -105 -78t-126 -28q-73 0 -113.5 39t-40.5 95q0 76 60 127t136 51q36 0 69 -11l-2 -4q-33 11 -67 11q-72 0 -131.5 -49.5t-59.5 -124.5q0 -54 38 -90.5t105 -36.5q80 0 152 54t112 132t40 154q0 80 -50 130t-154 50q-92 0 -181 -34
t-180.5 -105t-174 -154t-187.5 -205l-2 -2q44 4 68 4q4 0 12 -0.5t12 -0.5q49 130 148 134l1 -4q-45 -1 -73 -30t-57 -101q23 -2 60 -10q94 127 225 242t261 181l1 -5q-103 -49 -206 -143zM1242 1197q3 20 3 40q0 86 -46 150q-22 3 -44 3q-108 0 -202.5 -39.5t-154.5 -101.5
t-94.5 -135t-34.5 -143q0 -95 63 -156t185 -61q87 0 163.5 31t126.5 79t78.5 103.5t28.5 106.5q0 81 -69 115q-16 -111 -93.5 -192t-188.5 -81q-43 0 -64.5 22t-21.5 60q0 74 78 145.5t194 71.5q52 0 93 -18zM1049 -209q-107 0 -171 63t-67 158q-115 -69 -235 -91
q26 -152 143 -251.5t301 -99.5q108 0 204.5 29t169 79t125.5 112.5t86 135.5q-68 -28 -132 -28q-71 0 -111 28q-144 -135 -313 -135zM580 119q50 179 250 327q-14 93 -90.5 154.5t-209.5 61.5q-158 0 -270 -88t-154 -217q75 -69 197 -83v6q0 75 53 132t140 57h4
q45 -1 70.5 -23t25.5 -54q0 -49 -57.5 -88t-165.5 -39q-20 0 -54 2q0 -66 47.5 -110.5t142.5 -44.5q31 0 71 7zM1388 295q31 57 76 121q-3 2 -11 4q-2 -3 -19 -28q-133 -197 -133 -344q0 -43 13 -75q-23 35 -23 93q0 146 74 271q23 40 60 91q-24 7 -58 10l-1 -2
q-43 -112 -112 -125q2 -10 2 -17q0 -33 -38 -69.5t-83 -65t-83 -68.5t-38 -77q0 -24 15 -40.5t41 -16.5q36 0 70.5 24t57.5 72l4 -2q-21 -46 -56.5 -72.5t-75.5 -26.5q-28 0 -46 18.5t-18 47.5q0 41 25 75.5t61 58.5t72.5 45t61.5 46t25 52q0 7 -3 15q-5 -1 -17 -1
q-21 0 -21 13q0 14 16 14q18 0 26 -20q34 6 54 34.5t42 88.5q-4 0 -12 0.5t-12 0.5q-33 0 -71 -5q-72 -83 -109.5 -125.5t-99 -106t-116.5 -108.5t-112 -80q2 -93 63.5 -156t169.5 -63q167 0 309 133q-49 36 -49 111q0 110 79 255zM564 1q0 60 14 112q-33 -6 -70 -6
q-97 0 -148.5 46.5t-55.5 115.5q-123 14 -200 83q-18 -60 -18 -120q0 -135 92 -226t269 -91q62 0 123 11q-6 36 -6 75zM1319 33q0 -67 43 -100q63 60 154.5 186t108.5 146q-41 94 -132 139q-79 -118 -126.5 -220t-47.5 -151zM963 922q109 0 186 80t92 189q-35 16 -83 16
q-109 0 -189 -75.5t-80 -143.5q0 -28 17.5 -47t56.5 -19zM1635 268q35 -73 35 -161q0 -77 -27 -155q94 54 155.5 149t61.5 170q0 41 -20.5 64.5t-61.5 23.5q-67 0 -143 -91zM816 22v-1q55 34 107.5 77t111.5 103.5t94 99.5t103 117l14 16q-125 -17 -225.5 -83.5t-152.5 -154
t-52 -174.5zM1627 259q-12 -15 -104.5 -142t-155.5 -187q39 -26 106 -26t136 31q42 96 42 192q0 72 -24 132zM502 460q-77 0 -129 -57.5t-54 -130.5q34 -2 54 -2q105 0 161 37.5t56 83.5q0 30 -23.5 49.5t-64.5 19.5zM830 440q-194 -144 -245 -320q114 23 180.5 106.5
t66.5 182.5q0 11 -2 31zM1230 314q11 0 16 1q-7 16 -20 16q-11 0 -11 -9q0 -8 15 -8zM1868 1074h-4l-35 143q12 -4 38 -4z" />
    </font>
</defs>
</svg>
